<svg width="120" height="120" viewBox="0 0 120 120" fill="none" xmlns="http://www.w3.org/2000/svg">
<g clip-path="url(#clip0)">
<path d="M37.1786 48.2699C38.8663 48.9543 40.3413 49.8046 41.5438 50.7813V44.7752C41.5438 42.5828 42.5601 40.5698 44.3409 38.8757C45.6362 37.6467 47.3437 36.5835 49.3438 35.7532C48.6526 34.2649 48.2671 32.6039 48.2671 30.8634V20.1673C48.2671 18.1476 49.0912 16.3139 50.4264 14.9852C51.7553 13.65 53.589 12.8262 55.6086 12.8262H64.3982C66.4178 12.8262 68.2515 13.65 69.587 14.9852C70.9159 16.3139 71.7395 18.1476 71.7395 20.1673V30.8636C71.7395 32.6043 71.3544 34.2653 70.6632 35.7602C72.65 36.584 74.3441 37.627 75.6263 38.8361C77.4336 40.5435 78.47 42.5699 78.47 44.7756V50.7883C79.6726 49.8051 81.1538 48.9545 82.8481 48.2636C82.1637 46.7753 81.7789 45.1211 81.7789 43.3872V32.6906C81.7789 30.671 82.6093 28.8372 83.9382 27.5086C85.2666 26.1731 87.1004 25.3495 89.1265 25.3495H97.91C99.9296 25.3495 101.77 26.1733 103.099 27.5086C104.427 28.8375 105.251 30.671 105.251 32.6906V43.387C105.251 45.1209 104.873 46.7751 104.188 48.2568C106.228 49.094 107.969 50.1702 109.284 51.4127C111.064 53.1067 112.081 55.1132 112.081 57.299V70.2076H118.246C119.216 70.2076 120 70.9984 120 71.9682C120 72.3868 119.854 72.7721 119.609 73.0712L113.164 82.452L119.688 91.9393C120.24 92.7366 120.034 93.8262 119.243 94.3775C118.95 94.5767 118.598 94.6899 118.246 94.6899H79.7588L80.4097 103.048C80.4894 104.104 80.1306 105.094 79.4865 105.838C78.3502 107.16 76.4767 107.545 74.9153 106.795L60.0069 100.636L44.8787 106.881C43.2913 107.532 41.4639 107.047 40.4078 105.698C39.8296 104.954 39.5308 103.984 39.5971 103.048L40.2484 94.6899H27.6719C26.7018 94.6899 25.9178 93.9059 25.9178 92.9359C25.9178 91.966 26.7021 91.1752 27.6719 91.1752H40.5208L40.866 86.7306L30.3494 74.3865C30.1699 74.2072 29.9906 73.9414 29.8642 73.7223H5.09648L10.3978 81.429C10.8166 82.0135 10.8431 82.8174 10.4112 83.4486L5.09648 91.1752H19.7123C20.6824 91.1752 21.4664 91.966 21.4664 92.9359C21.4664 93.9059 20.6821 94.6899 19.7123 94.6899H1.76109C0.791014 94.6899 0.00703153 93.9059 0.00703153 92.9359C0.00703153 92.5173 0.153047 92.132 0.398906 91.8263L6.84374 82.4518L0.319218 72.9646C-0.517967 71.7489 0.398906 70.2074 1.82765 70.2074H7.97319V61.285C7.97319 60.3151 8.75694 59.5244 9.72678 59.5244C10.6966 59.5244 11.4874 60.3151 11.4874 61.285V70.2074H29.6917C29.9111 69.729 30.3628 69.1047 30.821 68.7857C31.3127 68.4004 31.8906 68.1744 32.4951 68.0284L41.5441 65.8426V57.2987C41.5441 56.1163 40.9129 54.9602 39.8102 53.9237C38.6873 52.8674 37.1062 51.9506 35.1991 51.2596C32.9735 53.7109 29.8378 55.1195 26.5157 55.1195C23.1937 55.1195 20.058 53.7109 17.8256 51.2596C15.9255 51.9506 13.7995 53.0732 12.5175 54.681C11.9065 55.4317 10.8037 55.5512 10.0528 54.9468C9.29529 54.3421 9.17576 53.2394 9.78045 52.4819C11.3217 50.5619 13.5872 49.1934 15.8458 48.2631C15.1615 46.7749 14.7766 45.1206 14.7766 43.3867V35.9125V32.6906C14.7766 30.671 15.607 28.8372 16.9354 27.5086C18.2643 26.1731 20.0981 25.3495 22.1243 25.3495H36.4947C37.4648 25.3495 38.2488 26.1401 38.2488 27.1101V35.913V43.3872C38.2485 45.1277 37.863 46.7819 37.1786 48.2699ZM101.736 40.5103L91.8104 37.1486L85.2997 40.3443V43.387C85.2997 45.6459 86.2229 47.6988 87.7112 49.187C89.2062 50.6819 91.2589 51.6053 93.5178 51.6053C95.7769 51.6053 97.8296 50.6819 99.3176 49.187C100.813 47.6988 101.736 45.6459 101.736 43.387V40.5103H101.736ZM85.2997 36.4443L90.8204 33.7403C91.2392 33.4945 91.7637 33.4282 92.2554 33.5941L101.736 36.8029V32.6906C101.736 31.6408 101.304 30.6841 100.614 29.9932C99.916 29.2957 98.9593 28.8637 97.9097 28.8637H89.1263C88.0702 28.8637 87.1198 29.2957 86.4228 29.9932C85.7251 30.6841 85.2999 31.6408 85.2999 32.6906V36.4443H85.2997ZM18.2906 34.1589H34.7338V28.864H22.1238C21.0677 28.864 20.111 29.2959 19.4198 29.9934C18.7225 30.6843 18.2906 31.6411 18.2906 32.6908V34.1589ZM34.7338 37.6734H18.2906V43.387C18.2906 45.6459 19.2208 47.6988 20.7089 49.187C22.2039 50.6819 24.2566 51.6053 26.5155 51.6053C28.7744 51.6053 30.8275 50.6819 32.3158 49.187C33.8104 47.6988 34.7336 45.6459 34.7336 43.387V37.6734H34.7338ZM68.225 27.7146C65.5806 28.1198 61.1828 28.1198 57.5551 24.8843C56.293 25.6284 54.2601 26.4787 51.7818 26.2462V30.8636C51.7818 33.1225 52.712 35.1754 54.2001 36.6637C55.6883 38.1585 57.7478 39.082 60.0067 39.082C62.2654 39.082 64.3185 38.1585 65.8065 36.6637C67.3011 35.1754 68.2248 33.1225 68.2248 30.8636V27.7146H68.225ZM51.7818 22.7119C53.4695 22.9776 55.3363 22.4062 56.6115 21.2702C57.3425 20.639 58.4453 20.7187 59.083 21.4495C62.0664 24.8843 66.2186 24.5789 68.225 24.1669V20.1673C68.225 19.1175 67.7928 18.1608 67.0958 17.4698C66.4046 16.7723 65.4479 16.3404 64.3982 16.3404H55.6086C54.5589 16.3404 53.6022 16.7723 52.911 17.4698C52.2137 18.1608 51.7818 19.1175 51.7818 20.1673V22.7119ZM84.8277 51.253C82.8744 51.9639 81.2602 52.9075 80.1242 53.9903C79.0677 55.0068 78.4698 56.1428 78.4698 57.2987V65.8426L87.7313 68.0816C88.7544 68.3275 89.5913 68.9718 90.0962 69.8089C90.1763 69.9353 90.249 70.0679 90.3155 70.2076H108.566V57.299C108.566 56.1297 107.948 54.9803 106.865 53.9573C105.743 52.8878 104.141 51.9641 102.201 51.2601C102.075 51.3995 101.942 51.539 101.809 51.6719C99.6837 53.7979 96.747 55.12 93.518 55.12C90.289 55.12 87.3523 53.7979 85.2266 51.6719C85.0869 51.5388 84.954 51.3993 84.8277 51.253ZM51.3299 38.7496C49.4366 39.4471 47.8682 40.364 46.7591 41.4203C45.6761 42.4502 45.058 43.5996 45.058 44.7754V57.2987V64.9986L48.1673 64.2479L56.7315 50.3029C57.2896 49.3994 58.1598 48.8081 59.1165 48.5756C60.7443 48.1902 62.4386 48.9077 63.2954 50.3294L71.8461 64.2479L74.9488 64.9986V57.2987V44.7754C74.9488 43.5862 74.3244 42.4303 73.2212 41.3939C72.1121 40.3441 70.5503 39.4406 68.6769 38.7431C66.4513 41.1946 63.3219 42.5964 60.0069 42.5964C56.6919 42.5964 53.5626 41.1946 51.3299 38.7496ZM90.1496 73.7221C90.0296 73.9213 89.8969 74.1139 89.7376 74.2935L86.7877 77.7615C86.1566 78.4991 85.0538 78.5788 84.3162 77.9542C83.5787 77.323 83.4922 76.2135 84.1236 75.4827L87.0734 72.0146C87.1461 71.9282 87.1662 71.8021 87.133 71.6957C87.0999 71.5893 87.0134 71.5098 86.9073 71.4831C81.4128 70.161 75.932 68.8389 70.4439 67.5102C69.9521 67.4371 69.5073 67.1514 69.2279 66.6997L60.2987 52.1699C60.2324 52.057 60.1527 51.9904 60.0067 51.9904C59.8937 51.9838 59.7873 52.0436 59.7275 52.1432L50.7852 66.6995C50.5462 67.0783 50.1672 67.3705 49.6958 67.4835C44.2347 68.799 38.7801 70.1146 33.3189 71.4364C33.1527 71.4831 32.9803 71.4831 32.8938 71.6558C32.8342 71.7688 32.8476 71.9216 32.9336 72.0146L43.9424 84.9367C44.2748 85.2821 44.4606 85.7605 44.4208 86.2787C43.9823 91.9524 43.5437 97.6327 43.0987 103.313C43.0919 103.413 43.1385 103.519 43.2182 103.585C43.311 103.658 43.4439 103.685 43.5505 103.639L59.3361 97.1211C59.7482 96.9483 60.2265 96.9352 60.6714 97.1211L76.2645 103.559C76.5235 103.652 76.9421 103.771 76.9086 103.313C76.4701 97.6327 76.025 91.9524 75.5865 86.2787C75.5535 85.8334 75.6927 85.3752 76.0053 85.0032L78.9615 81.5417C79.5859 80.8044 80.6954 80.7179 81.433 81.3491C82.1635 81.9803 82.25 83.083 81.6256 83.8206L79.1474 86.7303L79.4865 91.175H114.911L109.609 83.4683C109.19 82.8903 109.164 82.0799 109.596 81.4553L114.911 73.7221H90.1496Z" fill="#0A0D27"/>
</g>
<defs>
<clipPath id="clip0">
<rect width="120" height="120" fill="white"/>
</clipPath>
</defs>
</svg>
