<svg width="120" height="120" viewBox="0 0 120 120" fill="none" xmlns="http://www.w3.org/2000/svg">
<path d="M21.8951 39.8884H59.1471C61.4142 39.8884 61.4142 36.3728 59.1471 36.3728H21.8951C19.6282 36.3728 19.6282 39.8884 21.8951 39.8884Z" fill="#0A0D27"/>
<path d="M21.8951 52.8198H59.771C62.0381 52.8198 62.0381 49.3042 59.771 49.3042H21.8951C19.6282 49.3042 19.6282 52.8198 21.8951 52.8198Z" fill="#0A0D27"/>
<path d="M21.8951 65.7512H53.4326C55.6997 65.7512 55.6997 62.2356 53.4326 62.2356H21.8951C19.6282 62.2356 19.6282 65.7512 21.8951 65.7512Z" fill="#0A0D27"/>
<path d="M93.491 66.9811C89.2441 66.9811 85.2284 67.9866 81.6663 69.7695V63.5156C81.6663 61.2485 78.1507 61.2485 78.1507 63.5156V71.8819C76.4655 73.0816 74.9269 74.4745 73.5654 76.0261V71.7188C73.5654 69.4516 70.0498 69.4516 70.0498 71.7188V80.8594C70.0498 80.9379 70.0568 81.0148 70.0666 81.0907C68.0988 84.7931 66.9816 89.0135 66.9816 93.4905C66.9816 96.5149 67.492 99.4221 68.4291 102.132H11.7788C11.6895 102.132 11.6166 102.059 11.6166 101.97V20.8615C11.6166 20.7722 11.6895 20.6998 11.7788 20.6998H22.8731V22.6238C22.8731 23.5948 23.6602 24.3816 24.6309 24.3816H57.0352C58.0059 24.3816 58.793 23.5948 58.793 22.6238V20.6998H69.8873C69.9766 20.6998 70.0495 20.7724 70.0495 20.8615V51.5625C70.0495 53.8296 73.5652 53.8296 73.5652 51.5625V20.8615C73.5652 18.8339 71.9152 17.1841 69.8873 17.1841H58.793V13.2952C58.793 13.0477 58.7412 12.8123 58.6488 12.5986H69.8873C74.4436 12.5986 78.1505 16.3052 78.1505 20.8615V44.5312C78.1505 46.7984 81.6661 46.7984 81.6661 44.5312V20.8615C81.6661 14.3667 76.3821 9.08297 69.8873 9.08297H47.5725V6.73945C47.5727 3.0232 44.5493 0 40.8333 0C37.1173 0 34.0938 3.0232 34.0938 6.73945V9.08297H11.779C5.28398 9.08297 0 14.3667 0 20.8615V101.97C0 108.465 5.28398 113.749 11.7788 113.749H69.8876C71.6925 113.749 73.4681 113.332 75.0769 112.541C79.8492 117.156 86.3438 120 93.491 120C99.0333 120 104.342 118.307 108.844 115.104C109.635 114.541 109.819 113.444 109.257 112.653C108.694 111.862 107.597 111.677 106.805 112.239C102.903 115.016 98.2987 116.484 93.491 116.484C80.8123 116.484 70.4974 106.169 70.4974 93.4908C70.4974 80.8118 80.8123 70.4969 93.491 70.4969C106.17 70.4969 116.484 80.812 116.484 93.4908C116.484 98.3899 114.965 103.066 112.091 107.012C111.519 107.797 111.692 108.896 112.477 109.468C113.261 110.04 114.361 109.867 114.933 109.082C118.248 104.53 120 99.1385 120 93.4908C120 78.8733 108.108 66.9811 93.491 66.9811ZM37.6095 6.73945C37.6095 4.98492 39.0792 3.51562 40.8333 3.51562C42.5876 3.51562 44.0571 4.98469 44.0571 6.73945V13.2952C44.0571 14.2662 44.8441 15.053 45.8149 15.053H55.2776V20.8659H26.389V15.053H35.8516C36.8224 15.053 37.6095 14.2662 37.6095 13.2952V6.73945ZM11.7788 110.233C7.2225 110.233 3.51562 106.526 3.51562 101.97V20.8615C3.51562 16.3055 7.2225 12.5986 11.7788 12.5986H23.0173C22.9249 12.8121 22.8731 13.0477 22.8731 13.2952V17.1841H11.7788C9.75094 17.1841 8.10094 18.8339 8.10094 20.8615V101.97C8.10094 103.998 9.75094 105.648 11.7788 105.648H69.8876C69.9042 105.648 69.9204 105.645 69.937 105.645C70.6945 107.107 71.584 108.49 72.5899 109.778C71.7253 110.077 70.812 110.233 69.8876 110.233H11.7788V110.233Z" fill="#0A0D27"/>
<path d="M93.2744 72.6853C92.3037 72.6853 91.5166 73.4721 91.5166 74.4431V93.4908C91.5166 94.1384 91.8726 94.7334 92.4433 95.0395L105.351 101.966C107.36 103.044 109.003 99.9359 107.013 98.8683L95.0325 92.4389V74.4431C95.0323 73.4721 94.2452 72.6853 93.2744 72.6853Z" fill="#0A0D27"/>
<path d="M81.5456 51.443C80.869 50.7663 79.737 50.7659 79.0598 51.443L44.8638 85.6392L38.138 78.9134C37.4515 78.2271 36.3384 78.2271 35.6522 78.9134L20.6522 93.9134C19.0547 95.5111 21.529 98.0079 23.138 96.3994L36.8951 82.6423L43.6209 89.3681C43.9505 89.6977 44.3977 89.8828 44.8638 89.8828C45.33 89.8828 45.7772 89.6977 46.1067 89.3681L80.3027 55.1719L86.932 61.8014C87.6089 62.4783 88.7407 62.4785 89.4178 61.8014L111.826 39.3935V46.3477C111.826 48.6148 115.342 48.6148 115.342 46.3477V36.2695C115.342 35.2985 114.555 34.5117 113.584 34.5117H103.974C101.707 34.5117 101.707 38.0273 103.974 38.0273H108.22L88.1747 58.0725L81.5456 51.443Z" fill="#0A0D27"/>
</svg>
