<svg width="120" height="120" viewBox="0 0 120 120" fill="none" xmlns="http://www.w3.org/2000/svg">
<path d="M118.564 38.6229L108.142 34.882C107.695 33.6178 107.179 32.3738 106.603 31.1665C111.745 20.265 111.495 20.9459 111.495 20.4023C111.495 19.9373 111.31 19.4916 110.982 19.1625C99.6748 7.85484 100.301 8.23055 99.3232 8.23055C98.771 8.23055 99.4373 7.99148 88.5595 13.1229C87.3534 12.5468 86.1091 12.0314 84.8438 11.5835L81.1031 1.16109C80.8531 0.464531 80.1926 0 79.4527 0H64.7182C63.9783 0 63.3178 0.464531 63.068 1.16086L59.3269 11.5833C58.0627 12.0309 56.8184 12.5466 55.6116 13.1227L45.596 8.39766C44.9267 8.08195 44.1314 8.22023 43.6078 8.74359L33.1889 19.163C32.666 19.6861 32.5273 20.4818 32.843 21.1509L37.568 31.1665C36.9912 32.3742 36.4758 33.6183 36.0286 34.8818L25.6059 38.6229C24.9096 38.8727 24.4451 39.5332 24.4451 40.2731V55.0071C24.4451 56.3705 25.7004 56.6911 26.0585 56.8195L24.4381 61.3348C23.7136 61.5991 22.9997 61.8949 22.3027 62.2195L15.6312 59.0721C14.9618 58.7564 14.1663 58.8949 13.643 59.4178L6.46103 66.5998C5.9379 67.1229 5.79939 67.9186 6.11532 68.588L9.26275 75.2595C8.93743 75.9574 8.64189 76.6716 8.37822 77.3946L1.43509 79.8874C0.738762 80.1373 0.274231 80.7977 0.274231 81.5377V91.6941C0.274231 92.434 0.738762 93.0945 1.43532 93.3445L8.37798 95.8359C8.64189 96.5597 8.93767 97.2734 9.26251 97.9713L6.11556 104.643C5.79962 105.312 5.93837 106.108 6.46126 106.631L13.6427 113.813C14.1659 114.336 14.9609 114.475 15.6309 114.159L22.3027 111.011C22.9997 111.337 23.7141 111.632 24.4383 111.896L26.9299 118.838C27.1795 119.535 27.8402 120 28.5802 120H38.7368C39.4767 120 40.1372 119.535 40.387 118.838L42.8787 111.896C43.6029 111.632 44.3166 111.336 45.0143 111.011L51.6858 114.159C52.3554 114.475 53.1518 114.336 53.6747 113.813L60.8559 106.631C61.3791 106.108 61.5176 105.312 61.2016 104.643L58.054 97.9718C58.3793 97.2748 58.6749 96.5604 58.939 95.8359L63.1584 94.3212C63.4547 94.9029 64.0523 95.2802 64.7177 95.2802H79.4522C80.1921 95.2802 80.8526 94.8157 81.1027 94.1191L84.8431 83.6972C86.1084 83.2495 87.3527 82.7339 88.5591 82.1578L98.5744 86.8828C99.0605 87.1118 99.626 87.1055 100.108 86.8648C100.471 86.6831 99.7362 87.3637 110.981 76.1173C111.504 75.5941 111.643 74.7984 111.327 74.1293L106.602 64.1142C107.179 62.9067 107.695 61.6627 108.142 60.398L118.564 56.6573C119.261 56.4075 119.725 55.7468 119.725 55.0069V40.2729C119.726 39.5332 119.261 38.873 118.564 38.6229ZM63.5365 90.4605C53.8828 93.9251 57.2213 91.8872 54.5463 97.1686C54.3019 97.6514 54.2939 98.2198 54.5245 98.7089L57.5039 105.024L52.0667 110.461L45.7514 107.482C45.2623 107.251 44.6939 107.259 44.2111 107.504C41.1099 109.074 40.3097 108.674 39.8616 109.923L37.5033 116.493H29.8134L27.4552 109.923C27.2726 109.414 26.8655 109.018 26.3517 108.849C20.7931 107.024 24.5576 106.07 15.2503 110.461L9.81282 105.024L12.792 98.7087C13.0226 98.2193 13.0149 97.6507 12.7704 97.1686C10.1304 91.9538 13.4698 93.9384 3.78048 90.4605V82.7712L10.3517 80.412C11.5999 79.9638 11.1987 79.1684 12.7706 76.062C13.0146 75.5794 13.0224 75.0113 12.792 74.5223L9.81282 68.2076L15.2503 62.7701L21.5653 65.7492C22.0552 65.9801 22.6231 65.9719 23.1056 65.7274C28.3231 63.0851 26.336 66.4266 29.8134 56.7375H37.5033L39.8616 63.3082C40.0442 63.8168 40.451 64.2129 40.9645 64.3816C44.2734 65.4689 44.5533 66.3148 45.7517 65.749L52.0671 62.7696L57.5042 68.2073L54.5248 74.5221C54.2942 75.0115 54.3019 75.5798 54.5466 76.0624C57.1868 81.2768 53.8474 79.2921 63.5365 82.7707V90.4605ZM116.219 53.7738H116.219L106.163 57.383C104.8 57.8721 105.347 58.8534 103.092 63.3063C102.848 63.7891 102.84 64.3575 103.07 64.8466L107.629 74.5102L98.9552 83.1848L89.2913 78.6255C87.9734 78.004 87.7163 79.0737 82.9313 80.6442C82.4177 80.813 82.0104 81.2091 81.8276 81.7179L78.2189 91.7735H67.0411C67.0439 91.7081 67.043 81.6031 67.043 81.5377C67.043 80.7977 66.5784 80.1375 65.8821 79.8874L58.9395 77.3951C58.6751 76.6706 58.3793 75.957 58.0545 75.2597C61.4606 68.0398 61.3814 68.3634 61.3695 67.8028C61.3601 67.3603 61.1834 66.9267 60.8562 66.6C53.0278 58.7714 53.4406 58.9962 52.6076 58.9137C51.964 58.8497 52.3188 58.774 45.0145 62.22C44.3182 61.8954 43.6038 61.5996 42.8792 61.335L40.3875 54.3926C40.1377 53.6963 39.477 53.2315 38.737 53.2315C27.7395 53.2315 28.3692 53.186 27.952 53.348V41.5073L38.0081 37.898C38.517 37.7154 38.9128 37.3083 39.0816 36.7948C40.6542 32.0055 41.7232 31.7548 41.1002 30.4348L36.5412 20.771L45.2159 12.0961L54.8794 16.6552C56.1982 17.277 56.4476 16.2113 61.2398 14.636C61.7531 14.4673 62.1602 14.0712 62.3426 13.5628L65.9517 3.50719H78.2191L81.8278 13.5628C82.3214 14.9374 83.2652 14.3625 87.7514 16.6338C88.2342 16.8783 88.8026 16.8863 89.2915 16.6554L98.9559 12.0961L107.63 20.7703L103.07 30.4348C102.84 30.9241 102.847 31.4925 103.092 31.9748C105.365 36.4634 104.787 37.4039 106.163 37.898L116.219 41.5071V53.7738H116.219Z" fill="#0A0D27"/>
<path d="M38.3025 72.642C37.3842 72.3364 36.3912 72.834 36.086 73.7532C35.7804 74.6722 36.278 75.6645 37.1972 75.9699C41.7907 77.496 44.8774 81.7742 44.8774 86.6157C44.8774 92.8013 39.8447 97.8338 33.6589 97.8338C27.473 97.8338 22.4403 92.8013 22.4403 86.6157C22.4403 81.7742 25.5267 77.496 30.1205 75.9699C31.0397 75.6645 31.5373 74.6722 31.2317 73.7532C30.9265 72.8342 29.9344 72.3364 29.0152 72.642C22.9852 74.645 18.9338 80.2609 18.9338 86.6157C18.9338 94.7349 25.5396 101.341 33.6591 101.341C41.7788 101.341 48.3844 94.7349 48.3844 86.6157C48.3839 80.2606 44.3325 74.6452 38.3025 72.642Z" fill="#0A0D27"/>
<path d="M90.8326 50.0196C89.888 49.8107 88.9508 50.4063 88.7412 51.3517C87.0251 59.0892 80.0204 64.705 72.0858 64.705C62.6764 64.705 55.021 57.0501 55.021 47.6407C55.021 38.231 62.6762 30.5756 72.0858 30.5756C80.0201 30.5756 87.0247 36.1912 88.741 43.9286C88.951 44.8741 89.8883 45.4703 90.8323 45.2608C91.7778 45.051 92.374 44.1145 92.1645 43.1695C90.1156 33.9339 81.8691 27.0691 72.0856 27.0691C60.7426 27.0691 51.514 36.2976 51.514 47.6409C51.514 64.8649 71.6272 74.5181 85.0444 63.615C88.6383 60.6949 91.1673 56.6092 92.1647 52.1111C92.374 51.1654 91.7778 50.2293 90.8326 50.0196Z" fill="#0A0D27"/>
<path d="M25.4761 86.6437C25.4761 91.1869 29.1722 94.8827 33.7153 94.8827C38.2584 94.8827 41.9545 91.1866 41.9545 86.6437C41.9545 82.1004 38.2584 78.4043 33.7153 78.4043C29.1722 78.4043 25.4761 82.1006 25.4761 86.6437ZM33.7153 81.911C36.3248 81.911 38.4478 84.034 38.4478 86.6437C38.4478 89.253 36.3248 91.376 33.7153 91.376C31.1058 91.376 28.9828 89.253 28.9828 86.6437C28.9828 84.034 31.106 81.911 33.7153 81.911Z" fill="#0A0D27"/>
<path d="M72.142 34.2832C64.7615 34.2832 58.7568 40.2879 58.7568 47.6684C58.7568 55.0488 64.7615 61.0533 72.142 61.0533C79.5225 61.0533 85.5272 55.0488 85.5272 47.6684C85.5272 40.2879 79.5229 34.2832 72.142 34.2832ZM72.142 57.5466C66.6949 57.5466 62.2636 53.1152 62.2636 47.6684C62.2636 42.2215 66.6949 37.7899 72.142 37.7899C77.5891 37.7899 82.0204 42.2215 82.0204 47.6684C82.0204 53.1152 77.5891 57.5466 72.142 57.5466Z" fill="#0A0D27"/>
</svg>
