<svg width="120" height="120" viewBox="0 0 120 120" fill="none" xmlns="http://www.w3.org/2000/svg">
<path d="M113.812 10.6377H72.1043C69.9159 7.55329 67.2658 4.70212 64.1582 2.10032C60.8175 -0.699521 59.1843 -0.700459 55.8361 2.09962C52.728 4.70189 50.0777 7.55306 47.8893 10.6377H6.18114C2.7909 10.6377 0.0327759 13.3958 0.0327759 16.7863V46.0878C0.0327759 47.0586 0.819807 47.8454 1.79035 47.8454C2.7609 47.8454 3.54793 47.0586 3.54793 46.0878V16.7863C3.54793 15.3343 4.72918 14.1531 6.18114 14.1531H45.6501C43.4212 18.0877 41.8739 22.3576 41.0224 26.9384C41.0001 27.058 40.9804 27.178 40.9591 27.2977C37.2661 28.2374 34.5431 30.6655 32.8603 34.5416C31.323 38.0825 30.7975 42.4252 30.3337 46.2568C30.115 48.0643 29.9083 49.7717 29.6168 51.2928C29.3062 52.9262 29.7032 54.4077 30.7059 55.3576C31.4086 56.0232 32.3238 56.3661 33.3579 56.3661C33.7671 56.3661 34.1948 56.3124 34.6357 56.2037L43.4437 54.0226C43.6929 54.7799 43.9549 55.5397 44.2333 56.3031C44.3456 56.6108 44.4318 56.8681 44.5038 57.0833C44.9625 58.452 45.4577 59.083 46.4754 59.3136C45.4835 61.2847 45.0047 63.6582 45.1015 66.245C42.8852 66.9083 40.8822 68.1587 39.2439 69.9195C35.3386 69.3854 31.36 69.8678 27.9363 71.3054C24.0658 72.9303 21.1839 75.6423 19.5281 79.1853H3.54793V54.5244C3.54793 53.5536 2.7609 52.7668 1.79035 52.7668C0.819807 52.7668 0.0327759 53.5536 0.0327759 54.5244V88.7413C0.0327759 92.1315 2.7909 94.8899 6.18114 94.8899H40.6361L37.4004 105.737H32.0941C28.1618 105.737 24.9625 108.936 24.9625 112.868V116.635C24.9625 118.49 26.4691 120 28.3211 120H91.8051C93.6572 120 95.1637 118.49 95.1637 116.635V112.868C95.1637 108.936 91.9645 105.737 88.0322 105.737H82.7259L79.4901 94.8899H113.812C117.206 94.8899 119.967 92.1317 119.967 88.7413V16.7863C119.967 13.3958 117.206 10.6377 113.812 10.6377ZM33.7919 52.7912C33.378 52.8931 33.1575 52.8374 33.1235 52.8057C33.0661 52.7513 32.973 52.4605 33.0698 51.9524C33.3839 50.3145 33.5976 48.5488 33.8238 46.6794C34.7522 39.0078 35.8331 33.2272 40.4432 31.1755C39.8925 37.3421 40.5562 43.8617 42.4249 50.6537L33.7919 52.7912ZM45.1209 46.9407C41.2739 29.8909 45.7453 15.1325 58.0919 4.79563C59.0993 3.95329 59.741 3.52603 59.9993 3.52603C60.2566 3.52603 60.8962 3.95282 61.901 4.79517C74.2467 15.1316 78.7197 29.8902 74.8769 46.9409H65.6039V46.7455C65.6039 43.6555 63.09 41.1416 60.0002 41.1416C56.9067 41.1416 54.3897 43.6555 54.3897 46.7455V46.9409H45.1209V46.9407ZM60 64.7846C63.0086 64.7846 65.4698 62.3985 65.5975 59.4172H69.3947C71.0442 61.2845 71.3955 63.837 71.3873 65.6992C67.3818 65.6171 63.3954 67.2636 60 70.3836C56.6043 67.2629 52.6188 65.6115 48.6096 65.6992C48.5988 63.8401 48.948 61.2899 50.5997 59.4172H54.3956C54.5236 62.3985 56.9878 64.7846 60 64.7846ZM57.9049 59.1742V46.7455C57.9049 45.5938 58.8447 44.657 60 44.657C61.132 44.657 62.0885 45.6134 62.0885 46.7455V59.1742C62.0885 60.3294 61.1517 61.2695 60 61.2695C58.8447 61.2692 57.9049 60.3294 57.9049 59.1742ZM65.6036 55.9018V50.4561H73.9764C73.8972 50.7322 72.9021 53.8967 72.4647 55.097C72.3494 55.4124 72.2587 55.6803 72.1825 55.9079C72.1776 55.9077 72.1729 55.9077 72.1682 55.9077C71.9763 55.9049 65.6036 55.9018 65.6036 55.9018ZM46.0221 50.4561H54.3897V55.9018C54.3897 55.9018 48.0236 55.9049 47.8317 55.9074C47.827 55.9074 47.8223 55.9074 47.8174 55.9077C47.7412 55.6801 47.6505 55.4122 47.5354 55.0977C46.9654 53.5349 46.4618 51.987 46.0221 50.4561ZM39.6168 73.5378C40.2515 73.6538 40.8989 73.4127 41.3029 72.9095C43.1357 70.6274 45.7057 69.316 48.5393 69.2178C52.0966 69.0955 55.7097 70.8132 58.7093 74.0581C59.0418 74.4181 59.5099 74.6227 60 74.6227C60.49 74.6227 60.9581 74.4181 61.2907 74.0581C64.2893 70.8139 67.8977 69.0946 71.4546 69.2176C74.2886 69.3151 76.8611 70.6267 78.6977 72.9104C79.1018 73.4129 79.7486 73.6541 80.3833 73.5378C86.0393 72.5038 93.025 73.9356 96.4631 79.1851H23.5371C26.9747 73.937 33.9595 72.5052 39.6168 73.5378ZM91.6483 112.868V116.484H28.4779V112.868C28.4779 110.874 30.1003 109.252 32.0941 109.252H88.0319C90.026 109.252 91.6483 110.874 91.6483 112.868ZM116.452 88.7413C116.452 90.1932 115.268 91.3745 113.812 91.3745H64.4971C63.5264 91.3745 62.7396 92.1613 62.7396 93.1321C62.7396 94.1028 63.5266 94.8896 64.4971 94.8896H75.8214L79.0572 105.736H41.0688L44.3046 94.8896H55.7088C56.6796 94.8896 57.4664 94.1028 57.4664 93.1321C57.4664 92.1613 56.6793 91.3745 55.7088 91.3745H6.18114C4.72918 91.3745 3.54793 90.193 3.54793 88.7413V82.7003H116.452V88.7413H116.452ZM116.452 79.1851H100.472C98.816 75.6423 95.9332 72.9303 92.0611 71.3052C88.6361 69.8678 84.6579 69.3852 80.7555 69.9193C79.1158 68.1585 77.1124 66.9083 74.8964 66.245C74.9899 63.6561 74.5104 61.2826 73.5197 59.3136C74.5432 59.0839 75.0365 58.4556 75.4961 57.0831C75.5681 56.8679 75.6541 56.6108 75.7671 56.3014C76.0448 55.539 76.3064 54.7801 76.555 54.0238L85.3589 56.2037C85.7993 56.3124 86.2268 56.3661 86.636 56.3661C87.6712 56.3661 88.5881 56.0223 89.2922 55.3552C90.2955 54.4049 90.693 52.9241 90.3822 51.29C90.0911 49.7724 89.8844 48.0664 89.6655 46.2603C89.201 42.4283 88.6746 38.0846 87.1371 34.543C85.4531 30.6641 82.7287 28.2348 79.0343 27.2959C79.0132 27.1766 78.9935 27.0568 78.9712 26.9377C78.1193 22.3569 76.5717 18.0873 74.3428 14.1526H113.812C115.267 14.1526 116.452 15.3341 116.452 16.7858V79.1851H116.452ZM79.5513 31.1731C84.1633 33.2234 85.2457 39.0074 86.1761 46.6834C86.4025 48.5513 86.6165 50.3157 86.9296 51.9495C87.0265 52.4581 86.9325 52.749 86.8748 52.8034C86.8495 52.8277 86.6491 52.9018 86.2026 52.7912L77.5732 50.6544C79.4404 43.8613 80.103 37.3407 79.5513 31.1731Z" fill="#0A0D27"/>
<path d="M54.9468 33.5497C56.3036 34.4361 57.2798 34.7652 58.5147 34.8697V35.3596C58.5147 36.3304 59.3017 37.1172 60.2723 37.1172C61.243 37.1172 62.0298 36.3304 62.0298 35.3596V34.5205C64.1167 33.7213 65.4487 31.8158 65.7653 29.9329C66.2165 27.2502 64.762 24.8275 62.1477 23.905C60.757 23.4123 59.2185 22.8182 58.3656 22.1561C58.15 21.9859 58.0581 21.5582 58.142 21.1166C58.1859 20.8867 58.3886 20.1184 59.167 19.8838C59.5656 19.7633 59.9263 19.7263 60.2472 19.7385C60.2556 19.7385 60.2638 19.7397 60.2723 19.7397C60.2753 19.7397 60.2784 19.7392 60.2816 19.7392C61.0323 19.7765 61.5534 20.0886 61.7875 20.2628C62.5663 20.8417 63.6674 20.68 64.2468 19.9011C64.8262 19.1221 64.6642 18.021 63.8854 17.4418C63.5327 17.1798 62.8949 16.7788 62.0301 16.5069V15.2783C62.0301 14.3075 61.243 13.5208 60.2725 13.5208C59.3017 13.5208 58.5149 14.3075 58.5149 15.2783V16.4228C58.3945 16.4525 58.2745 16.4811 58.1512 16.5184C56.3758 17.0535 55.049 18.564 54.6887 20.4601C54.3555 22.2151 54.9297 23.9221 56.1991 24.924C57.2137 25.7115 58.5972 26.3765 60.9763 27.219C62.357 27.7063 62.3978 28.7633 62.2991 29.3502C62.1428 30.28 61.3912 31.2789 60.0979 31.3855C60.0963 31.3858 60.0946 31.3855 60.093 31.3858C60.0255 31.3911 59.9575 31.3961 59.887 31.3965C58.4146 31.4087 57.9944 31.3412 56.8696 30.6065C56.057 30.0761 54.9677 30.3041 54.4368 31.1169C53.9055 31.9295 54.134 33.0186 54.9468 33.5497Z" fill="#0A0D27"/>
</svg>
