<svg width="120" height="120" viewBox="0 0 120 120" fill="none" xmlns="http://www.w3.org/2000/svg">
<g clip-path="url(#clip0)">
<path d="M111.257 9.2915H8.74289C3.92203 9.2915 0 13.2135 0 18.0344V101.965C0 106.786 3.92203 110.708 8.74289 110.708H111.257C116.078 110.708 120 106.786 120 101.965V18.0344C120 13.2135 116.078 9.2915 111.257 9.2915ZM116.484 28.8281H27.6087C26.6377 28.8281 25.8509 29.6149 25.8509 30.5859C25.8509 31.5569 26.6377 32.3437 27.6087 32.3437H116.484V101.965C116.484 104.848 114.139 107.193 111.257 107.193H8.74289C5.86055 107.193 3.51562 104.848 3.51562 101.965V32.3437H19.3915C20.3625 32.3437 21.1493 31.5569 21.1493 30.5859C21.1493 29.6149 20.3625 28.8281 19.3915 28.8281H3.51562V18.0344C3.51562 15.1518 5.86055 12.8069 8.74289 12.8069H111.257C114.14 12.8069 116.485 15.1518 116.485 18.0344V28.8281H116.484Z" fill="#0A0D27"/>
<path d="M15.2496 22.57C16.2175 22.57 17.002 21.7854 17.002 20.8176C17.002 19.8498 16.2175 19.0652 15.2496 19.0652C14.2818 19.0652 13.4972 19.8498 13.4972 20.8176C13.4972 21.7854 14.2818 22.57 15.2496 22.57Z" fill="#0A0D27"/>
<path d="M23.509 22.57C24.4768 22.57 25.2614 21.7854 25.2614 20.8176C25.2614 19.8498 24.4768 19.0652 23.509 19.0652C22.5411 19.0652 21.7566 19.8498 21.7566 20.8176C21.7566 21.7854 22.5411 22.57 23.509 22.57Z" fill="#0A0D27"/>
<path d="M31.7684 22.57C32.7362 22.57 33.5208 21.7854 33.5208 20.8176C33.5208 19.8498 32.7362 19.0652 31.7684 19.0652C30.8005 19.0652 30.0159 19.8498 30.0159 20.8176C30.0159 21.7854 30.8005 22.57 31.7684 22.57Z" fill="#0A0D27"/>
<path d="M106.503 19.0598H96.2109C95.2399 19.0598 94.4531 19.8466 94.4531 20.8176C94.4531 21.7886 95.2399 22.5754 96.2109 22.5754H106.503C107.474 22.5754 108.261 21.7886 108.261 20.8176C108.261 19.8466 107.474 19.0598 106.503 19.0598Z" fill="#0A0D27"/>
<path d="M46.0392 75.6776C46.0392 76.6361 46.8162 77.4133 47.775 77.4133C48.7336 77.4133 49.5108 76.6361 49.5108 75.6776C49.5108 74.719 48.7336 73.9418 47.775 73.9418C46.8162 73.9418 46.0392 74.719 46.0392 75.6776Z" fill="#0A0D27"/>
<path d="M70.5703 75.6776C70.5703 76.6361 71.3475 77.4133 72.3061 77.4133C73.2647 77.4133 74.0419 76.6361 74.0419 75.6776C74.0419 74.719 73.2647 73.9418 72.3061 73.9418C71.3475 73.9418 70.5703 74.719 70.5703 75.6776Z" fill="#0A0D27"/>
<path d="M41.4167 64.3017L39.3146 70.2991L37.2455 64.2337C37.2436 64.2285 37.2413 64.2238 37.2394 64.2187C36.6874 62.6484 34.4906 62.6685 33.9312 64.1988C33.9296 64.203 33.9274 64.207 33.926 64.2114L31.736 70.3565L29.663 64.3249C29.3475 63.4068 28.3488 62.9181 27.4294 63.2338C26.5113 63.5493 26.0227 64.5494 26.3384 65.4674L30.0436 76.2489C30.2864 76.9553 30.949 77.4311 31.6962 77.4353H31.706C32.449 77.4353 33.1123 76.968 33.3617 76.2677L35.5456 70.1397L37.6282 76.2452C37.8701 76.9542 38.5353 77.4321 39.2846 77.4353H39.2918C40.0383 77.4353 40.7035 76.9638 40.9507 76.2588L44.7345 65.4644C45.0556 64.5485 44.5732 63.5453 43.6568 63.224C42.7413 62.9036 41.738 63.3852 41.4167 64.3017Z" fill="#0A0D27"/>
<path d="M65.8783 64.3016L63.7762 70.299L61.7072 64.2336C61.7053 64.2284 61.7029 64.2238 61.7011 64.2186C61.158 62.6717 58.9617 62.6431 58.3929 64.1987C58.3912 64.2029 58.3891 64.2069 58.3877 64.2113L56.1977 70.3564L54.1249 64.3248C53.8094 63.4065 52.8096 62.9178 51.8913 63.2338C50.9733 63.5492 50.4846 64.5493 50.8003 65.4674L54.5053 76.2488C54.7479 76.9552 55.4107 77.431 56.1576 77.4352H56.1677C56.9107 77.4352 57.574 76.9679 57.8233 76.2676L60.0072 70.1396L62.0901 76.2453C62.3322 76.9543 62.9972 77.4322 63.7465 77.4355H63.7537C64.5002 77.4355 65.1654 76.9639 65.4126 76.2589L69.1961 65.4645C69.5172 64.5486 69.0349 63.5455 68.1185 63.2241C67.2033 62.9035 66.1997 63.3854 65.8783 64.3016Z" fill="#0A0D27"/>
<path d="M90.3403 64.3016L88.2382 70.299L86.1691 64.2336C85.624 62.6506 83.4164 62.6631 82.8548 64.1985C82.8532 64.2027 82.8511 64.2067 82.8497 64.2111L80.6594 70.3562L78.5866 64.3245C78.2712 63.4063 77.2713 62.9176 76.353 63.2335C75.435 63.549 74.9463 64.5491 75.262 65.4671L78.967 76.2486C79.2096 76.955 79.8724 77.4308 80.6194 77.435H80.6294C81.3724 77.435 82.0357 76.9679 82.2851 76.2674L84.469 70.1394L86.5519 76.2451C86.7937 76.9541 87.4589 77.432 88.2082 77.4353H88.2155C88.9619 77.4353 89.6271 76.9637 89.8744 76.2587L93.6581 65.4643C93.9792 64.5484 93.4969 63.5453 92.5805 63.2239C91.665 62.9035 90.6614 63.3852 90.3403 64.3016Z" fill="#0A0D27"/>
<path d="M13.8251 59.3311V81.1477C13.8251 84.7889 16.7876 87.7514 20.4291 87.7514H32.7527C38.7284 97.0282 48.9548 102.627 60 102.627C71.0346 102.627 81.266 97.0369 87.2473 87.7514H99.9642C103.606 87.7514 106.568 84.7889 106.568 81.1477V74.1382C106.568 73.1672 105.781 72.3804 104.81 72.3804C103.839 72.3804 103.053 73.1672 103.053 74.1382V81.1477C103.053 82.8506 101.667 84.2358 99.9642 84.2358H20.4291C18.7261 84.2358 17.3407 82.8506 17.3407 81.1477V59.3311C17.3407 57.6281 18.7261 56.2427 20.4291 56.2427H99.9645C101.667 56.2427 103.053 57.6281 103.053 59.3311V65.8594C103.053 66.8304 103.84 67.6172 104.811 67.6172C105.782 67.6172 106.568 66.8304 106.568 65.8594V59.3311C106.568 55.6896 103.606 52.7271 99.9645 52.7271H87.2473C81.2716 43.4508 71.0452 37.8516 60 37.8516C48.9649 37.8516 38.7337 43.4426 32.7527 52.7273H20.4291C16.7876 52.7273 13.8251 55.6896 13.8251 59.3311ZM75.877 87.7514H82.9498C79.8319 91.8291 75.6312 95.1094 70.6214 97.0884C72.9288 94.3898 74.6482 91.0823 75.877 87.7514ZM61.7578 87.7514H72.1045C70.1752 92.4403 66.6987 97.8087 61.7578 98.9147V87.7514ZM58.2422 87.7514V98.9147C53.2983 97.808 49.8227 92.4347 47.8955 87.7514H58.2422ZM44.123 87.7514C45.3518 91.0819 47.0709 94.3894 49.3786 97.0884C44.3667 95.1087 40.1667 91.8274 37.0502 87.7514H44.123ZM82.9481 52.7273H75.877C74.6452 49.3884 72.9244 46.084 70.6216 43.3905C75.6457 45.3752 79.8398 48.6614 82.9481 52.7273ZM61.7578 41.5643C66.7017 42.671 70.1773 48.0443 72.1045 52.7273H61.7578V41.5643ZM58.2422 41.5643V52.7273H47.8955C49.8251 48.0384 53.3013 42.6703 58.2422 41.5643ZM49.3784 43.3905C47.0749 46.0849 45.3544 49.3898 44.123 52.7273H37.0519C40.1597 48.6619 44.3534 45.3757 49.3784 43.3905Z" fill="#0A0D27"/>
</g>
<defs>
<clipPath id="clip0">
<rect width="120" height="120" fill="white"/>
</clipPath>
</defs>
</svg>
