<svg width="1440" height="180" viewBox="0 0 1440 180" fill="none" xmlns="http://www.w3.org/2000/svg">
<rect width="1440" height="180" fill="#1343EA"/>
<path opacity="0.2" fill-rule="evenodd" clip-rule="evenodd" d="M0 8.94802L300.709 2.79114L300.728 2.79053L371.607 0H405.825L383.263 1.54224L383.248 1.54279L300.778 4.78992L300.768 4.79016L0 10.9485V8.94802ZM0 40.8628V38.8154L6.08981 37.474L6.10873 37.4698L43.2001 30.7942L80.4619 25.4369L125.282 20.3165L125.297 20.3148L125.313 20.3135L207.609 13.4388L207.619 13.4382L417.319 0.277832L417.347 0.275635L420.354 0H442.26L417.501 2.26953L417.487 2.27081L417.473 2.27173L207.765 15.4327L207.744 15.4343L125.509 22.3035L125.479 22.3065L80.7322 27.4186L80.7033 27.4223L43.537 32.7657L43.5022 32.7713L6.52004 39.4271L6.48206 39.4348L0 40.8628ZM0 73.7186V71.5312L8.43769 67.7927L51.669 52.849L95.6416 41.2776L147.452 31.0588L192.147 24.3546L251.872 17.4496L251.885 17.4482L447.068 0H467.145L461.516 0.715027L461.497 0.717407L252.101 19.4365L252.076 19.4391L192.427 26.335L192.394 26.3395L147.793 33.03L96.0907 43.2276L52.2507 54.764L9.17045 69.6555L0 73.7186ZM0 108.514V106.129L8.1844 100.805L28.4609 89.2238L49.1971 78.84L91.7435 61.4385L113.424 54.1963L113.445 54.1901L142.627 45.8754L194.211 34.2861L194.239 34.2799L253.674 24.418L253.694 24.4148L313.371 16.8951L313.381 16.8939L313.39 16.8929L462.752 0.984985L462.785 0.980835L469.757 0H484.111L463.03 2.96545L463.014 2.96783L313.621 18.8794L313.602 18.8817L254.002 26.391L253.963 26.3966L194.622 36.2436L143.12 47.8145L114.015 56.1075L92.4399 63.3146L50.0245 80.6624L29.4055 90.9875L9.22589 102.514L0 108.514ZM0 147.011V144.305L6.22546 138.633L24.7782 123.616L50.5926 105.584L77.4579 89.7823L98.1908 79.3415L126.375 67.1496L155.115 56.7727L206.183 42.2768L235.681 35.6563L272.747 28.688L339.761 18.7385L481.431 0.95813L481.466 0.953064L487.342 0H499.833L481.733 2.93524L481.715 2.93744L340.044 20.7184L340.021 20.7215L273.098 30.6572L273.06 30.6635L236.102 37.6116L236.068 37.6187L206.675 44.216L155.729 58.6776L127.112 69.0097L99.0383 81.154L78.4158 91.5392L51.6741 107.269L25.9813 125.215L7.5295 140.15L0 147.011ZM9.9899 180H7.28734L19.8859 166.138L37.1326 149.158L61.3918 128.372L86.9051 109.754L106.791 97.287L134.104 82.5712L162.14 69.9095L183.566 61.6129L212.466 52.033L212.488 52.0266L241.667 43.8657L241.689 43.8599L241.71 43.8549L278.49 35.2846L278.514 35.279L345.264 23.1912L345.281 23.1888L501.535 0.380676L501.577 0.373657L503.548 0H514.283L501.908 2.34564L501.887 2.34961L345.604 25.1623L345.57 25.1678L278.92 37.2381L242.185 45.7977L213.05 53.9464L184.242 63.4958L162.913 71.7549L134.991 84.3652L107.797 99.0167L88.0274 111.411L62.634 129.941L38.4861 150.632L21.3286 167.524L9.9899 180ZM54.2348 180H51.5266L63.4969 166.892L86.6247 144.438L111.16 124.091L130.394 110.303L130.424 110.285L156.983 93.8854L184.475 79.5786L212.638 67.297L241.319 56.8063L270.37 47.8121L307.049 38.3517L373.6 24.9172L373.617 24.9144L507.247 2.63281L507.285 2.62585L520.039 0H529.956L507.651 4.59167L507.632 4.59552L373.979 26.881L373.946 26.8872L307.497 40.3016L270.915 49.7369L241.959 58.702L213.382 69.1545L185.338 81.3843L157.972 95.6256L131.503 111.969L112.383 125.675L87.9614 145.928L64.9333 168.285L54.2348 180ZM102.202 180H99.3837L120.503 158.735L144.148 137.022L162.753 122.171L162.776 122.152L182.106 108.514L208.77 92.3022L236.306 78.2162L236.335 78.2012L264.546 66.0378L293.228 55.6056L329.588 44.5906L395.796 28.9304L528.933 2.69409L539.705 0H547.947L529.393 4.64062L529.368 4.64679L396.238 30.881L396.201 30.889L330.109 46.5228L293.86 57.5037L265.284 67.8975L237.187 80.0118L209.746 94.0494L183.203 110.188L163.978 123.752L145.45 138.542L121.889 160.178L102.202 180ZM151.497 180L156.227 175.509L198.191 138.478L223.072 118.781L249.133 101.296L249.16 101.278L269.393 89.575L297.029 75.7701L325.312 63.8715L354.046 53.5558L412.357 36.6922L544.672 5.33685L562.795 0H569.876L545.186 7.27039L412.866 38.6269L354.662 55.4595L326.039 65.7356L297.864 77.5883L270.341 91.3372L250.22 102.975L224.251 120.398L199.475 140.013L157.591 176.972L157.564 176.996L154.401 180H151.497ZM208.855 180L211.029 178.123L211.042 178.112L272.832 128.303L298.332 109.695L318.19 97.1704L345.422 82.3115L345.449 82.299L366.349 72.431L394.705 60.7385L445.142 43.5878L445.164 43.5803L561.666 10.0051L588.579 0H594.319L562.293 11.9059L445.764 45.4888L395.409 62.6118L367.158 74.2608L346.329 84.0953L319.204 98.8955L299.457 111.351L274.05 129.89L212.336 179.637L212.311 179.659L211.915 180H208.855ZM271.349 180L348.557 119.838L348.579 119.822L367.955 106.351L387.928 94.067L408.329 82.9395L408.353 82.9263L436.186 69.6793L485.969 49.8861L572.195 19.8206L614.43 1.94958L618.089 0H622.342L615.291 3.75671L572.914 21.6878L486.688 51.7526L486.647 51.7676L436.986 71.5135L409.262 84.7087L388.932 95.7976L369.05 108.026L349.744 121.448L274.603 180H271.349ZM335.368 180L348.993 169.245L349.01 169.232L398.025 128.822L398.043 128.807L417.036 114.561L417.058 114.546L436.618 101.479L477.239 78.6274L512.094 62.2822L512.111 62.2748L596.715 26.4279L630.999 8.91388L645.302 0H649.083L632.021 10.6335L631.985 10.656L597.561 28.2417L512.926 64.101L512.891 64.1164L478.155 80.4068L437.665 103.185L418.192 116.194L399.28 130.379L350.258 170.795L338.596 180H335.368ZM395.353 180L404.133 172.524L404.159 172.501L439.614 140.091L470.753 115.473L496.84 98.0764L496.864 98.0607L496.888 98.0463L517.009 86.2184L544.369 71.6644L606.494 40.8683L633.537 25.8093L665.839 3.77795L670.359 0H673.477L667.046 5.37543L667.006 5.40302L634.627 27.4868L634.589 27.5123L607.425 42.639L545.296 73.4369L545.27 73.45L518.004 87.9534L517.967 87.9742L497.926 99.756L471.93 117.092L440.91 141.615L405.482 174L405.469 174.012L398.437 180H395.353ZM450.249 180H447.423L479.059 148.309L503.292 127.546L503.317 127.525L503.342 127.505L522.27 113.29L522.292 113.273L548.42 95.8655L622.322 52.9905L622.357 52.9693L648.642 36.2518L673.776 17.2914L692.723 0H695.69L675.055 18.8316L649.783 37.8964L623.378 54.689L549.477 97.5646L523.449 114.906L504.569 129.085L480.419 149.778L450.249 180ZM494.093 180H491.41L504.832 164.991L534.042 137.467L534.068 137.442L552.574 122.384L552.594 122.368L571.713 108.356L637.142 65.5082L637.169 65.4903L656.417 51.9845L681.064 32.111L698.508 15.6393L712.549 0H715.237L699.969 17.0065L699.941 17.0372L682.38 33.6187L657.621 53.5834L638.278 67.1547L638.264 67.1634L572.853 110L553.817 123.951L535.387 138.948L506.266 166.388L494.093 180ZM531.65 180H528.927L528.972 179.945L528.993 179.919L529.016 179.894L545.612 162.06L563.06 145.315L593.617 119.794L650.976 78.171L651.002 78.1514L669.706 63.6219L687.687 47.9257L704.789 30.9229L731.365 0.0953979L731.435 0H733.908L732.934 1.3385L706.254 32.287L689.051 49.3897L670.978 65.1664L652.203 79.7505L652.19 79.7605L594.847 121.373L564.395 146.806L547.038 163.464L531.65 180ZM565.766 180H563.04L578.847 162.934L578.866 162.914L596.256 146.117L614.318 130.321L614.335 130.308L676.134 80.6973L705.097 52.9734L731.617 22.1534L747.722 0H750.195L733.186 23.3956L706.549 54.3515L677.454 82.2026L677.42 82.23L615.619 131.84L615.587 131.867L597.61 147.59L580.296 164.313L565.766 180ZM597.007 180H594.276L610.646 162.383L628.037 145.556L676.239 103.762L676.264 103.74L693.842 87.4341L716.023 63.9379L736.71 38.5987L756.108 11.9049L763.96 0H766.356L757.765 13.0252L757.752 13.0441L757.739 13.0625L738.311 39.7971L738.295 39.8198L717.526 65.2585L695.251 88.8552L677.599 105.229L677.587 105.24L629.389 147.031L612.075 163.784L597.007 180ZM626.296 180H623.677L625.014 178.419L641.681 160.651L688.46 116.691L688.485 116.667L705.492 99.5413L721.683 81.3306L742 55.606L761.09 28.6338L761.113 28.5997L779.204 0.66217L779.589 0H781.902L780.909 1.7085L762.757 29.7382L743.603 56.8036L743.586 56.8243L723.216 82.6164L706.951 100.911L689.879 118.1L689.867 118.113L689.854 118.124L643.096 162.065L626.508 179.749L626.296 180ZM654.744 180H652.074L660.769 170.173L660.789 170.152L700.587 130.087L700.614 130.058L717.021 112.176L732.617 93.2596L747.458 73.5661L747.481 73.5332L766.314 46.3079L766.335 46.2758L784.204 18.1891L794.644 0H796.95L785.916 19.2237L785.904 19.2429L767.991 47.3978L749.091 74.7206L749.079 74.7368L734.202 94.4806L734.188 94.498L718.547 113.469L718.531 113.489L718.513 113.509L702.047 131.454L702.033 131.468L662.249 171.52L654.744 180ZM682.97 180H680.273L723.735 131.93L739.002 112.697L758.344 85.9547L758.367 85.9216L776.729 58.2537L776.747 58.2256L794.261 29.827L794.281 29.7933L811.083 0H813.378L795.994 30.8265L778.422 59.3176L760 87.0774L759.988 87.0938L740.597 113.905L725.261 133.223L682.97 180ZM712.31 180H709.709L737.034 147.117L770.724 100.138L801.749 50.6634L830.172 0H832.465L803.47 51.6849L803.457 51.7056L772.402 101.226L772.386 101.252L738.618 148.341L712.31 180ZM748.362 180H745.731L750.574 174.334L775.313 141.479L807.287 92.8535L828.515 56.7147L828.527 56.6936L853.03 12.5552L860.816 0H863.169L854.755 13.5682L830.263 57.6854L830.258 57.696L808.986 93.9107L808.972 93.9319L776.95 142.631L776.931 142.656L752.134 175.587L752.114 175.611L748.362 180ZM795.006 180H792.407L805.721 163.962L820.291 143.998L838.667 116.309L877.171 51.4634L900.052 16.6141L912.314 0H914.8L901.694 17.7577L878.868 52.5231L840.362 117.373L821.933 145.141L807.3 165.192L807.28 165.216L795.006 180ZM822.832 180H820.303L833.359 163.133L847.632 142.846L883.007 86.1662L906.337 51.7579L936.4 12.4894L947.066 0H949.696L937.955 13.7476L907.96 52.9276L884.694 87.2412L884.673 87.2729L849.299 143.951L834.969 164.321L822.832 180ZM851.662 180H849.118L869.859 153.634L906.929 98.4837L926.38 71.6876L946.821 45.9597L946.835 45.942L946.85 45.9249L973.604 15.2123L973.62 15.194L973.636 15.1765L988.213 0H990.985L975.112 16.5261L975.096 16.5443L948.373 47.2218L927.986 72.8801L908.579 99.6144L908.558 99.644L871.478 154.811L851.662 180ZM885.542 180H883.059L922.107 126.907L922.12 126.89L947.814 94.9005L980.303 58.3868L1014.38 23.9698L1014.39 23.9551L1040.16 0H1043.09L1015.8 25.3769L1015.77 25.4057L981.779 59.7362L949.342 96.192L923.705 128.109L923.679 128.143L885.542 180ZM920.943 180H918.365L950.12 140.943L950.132 140.929L971.585 116.418L971.598 116.402L993.929 92.8847L993.944 92.8703L1022.84 64.8609L1076.85 17.3907L1076.87 17.3806L1097.96 0H1101.1L1078.16 18.9035L1078.14 18.9241L1024.22 66.314L1024.18 66.3471L995.365 94.2769L995.336 94.3063L973.09 117.735L973.062 117.765L951.66 142.219L951.637 142.246L920.943 180ZM964.949 180H962.254L973.578 167.465L973.589 167.454L995.992 144.113L996.009 144.094L996.028 144.077L1036.98 105.566L1085.55 64.3361L1085.56 64.3279L1085.57 64.3199L1165.38 0H1168.56L1086.85 65.8609L1086.83 65.8771L1038.33 107.04L1038.29 107.074L997.435 145.497L997.398 145.534L975.052 168.817L975.032 168.839L964.949 180ZM1017.78 180H1014.77L1014.78 179.99L1014.8 179.974L1056.63 142.827L1056.65 142.813L1099.7 107.608L1099.71 107.603L1192.82 33.821L1192.84 33.805L1233.35 0H1236.47L1194.11 35.3565L1194.1 35.3646L1194.09 35.3725L1100.96 109.161L1100.95 109.17L1057.96 144.322L1057.93 144.349L1017.78 180ZM1089 180H1085.78L1216.19 76.6797L1216.22 76.6577L1252.55 45.7527L1252.57 45.7332L1288.16 13.6008L1288.18 13.5776L1302.22 0H1305.1L1289.55 15.0387L1289.53 15.0505L1289.52 15.062L1253.89 47.2371L1253.88 47.2469L1253.87 47.2566L1217.49 78.2032L1217.48 78.2145L1217.46 78.2253L1089 180ZM1181.64 180H1178.4L1212.67 153.079L1212.7 153.056L1255.2 117.124L1255.23 117.101L1296.68 79.534L1296.71 79.5082L1336.93 40.1884L1336.96 40.1634L1375.26 0H1377.98L1377.51 0.533813L1377.5 0.547119L1377.49 0.560059L1338.38 41.5687L1338.37 41.5814L1338.36 41.5937L1298.08 80.9643L1298.06 80.9775L1298.05 80.9901L1256.54 118.606L1256.53 118.617L1256.52 118.628L1213.96 154.606L1213.95 154.618L1181.64 180ZM1241.81 180H1238.76L1272.89 150.389L1272.92 150.366L1308.1 117.682L1308.12 117.658L1348.05 77.8981L1348.08 77.8729L1386.81 36.5023L1386.83 36.4799L1418.98 0H1421.64L1388.31 37.8245L1388.3 37.8358L1388.29 37.8469L1349.51 79.265L1349.5 79.2778L1349.49 79.2902L1309.51 119.1L1309.5 119.112L1274.25 151.854L1274.24 151.866L1274.23 151.877L1241.81 180ZM1322.17 180H1319.26L1320.97 178.383L1320.99 178.359L1360.57 138.099L1360.6 138.076L1393.56 102.317L1393.58 102.297L1431.05 59.3685L1431.06 59.349L1440 48.5669V51.701L1432.59 60.6447L1432.58 60.6545L1395.06 103.643L1395.05 103.653L1362.04 139.455L1362.03 139.467L1362.02 139.478L1322.39 179.785L1322.38 179.797L1322.37 179.808L1322.17 180ZM1389.67 180H1386.97L1404.8 160.393L1404.83 160.365L1440 118.679V121.78L1406.33 161.682L1406.32 161.697L1406.31 161.71L1389.67 180Z" fill="white"/>
<rect width="1440" height="180" fill="url(#paint0_linear)"/>
<defs>
<linearGradient id="paint0_linear" x1="1172.46" y1="180" x2="1165.04" y2="-54.1964" gradientUnits="userSpaceOnUse">
<stop stop-color="#1343EA"/>
<stop offset="1" stop-color="#1343EA" stop-opacity="0"/>
</linearGradient>
</defs>
</svg>
