<?xml version="1.0" encoding="UTF-8"?><svg xmlns="http://www.w3.org/2000/svg" xmlns:xlink="http://www.w3.org/1999/xlink" contentScriptType="text/ecmascript" width="180" zoomAndPan="magnify" contentStyleType="text/css" viewBox="0 0 180 30.000001" height="30.000001" preserveAspectRatio="xMidYMid meet" version="1.0"><defs><clipPath id="clip-0"><path d="M 2.902344 0 L 177.097656 0 L 177.097656 29.03125 L 2.902344 29.03125 Z M 2.902344 0 " clip-rule="nonzero"/></clipPath><clipPath id="clip-1"><path d="M 20 0.378906 L 37 0.378906 L 37 29 L 20 29 Z M 20 0.378906 " clip-rule="nonzero"/></clipPath><clipPath id="clip-2"><path d="M 4 0.378906 L 21 0.378906 L 21 29 L 4 29 Z M 4 0.378906 " clip-rule="nonzero"/></clipPath><clipPath id="clip-3"><path d="M 41.769531 5 L 69 5 L 69 23.625 L 41.769531 23.625 Z M 41.769531 5 " clip-rule="nonzero"/></clipPath><clipPath id="clip-4"><path d="M 71 5 L 76 5 L 76 23.625 L 71 23.625 Z M 71 5 " clip-rule="nonzero"/></clipPath><clipPath id="clip-5"><path d="M 78 5 L 90 5 L 90 23.625 L 78 23.625 Z M 78 5 " clip-rule="nonzero"/></clipPath><clipPath id="clip-6"><path d="M 126 5 L 138 5 L 138 23.625 L 126 23.625 Z M 126 5 " clip-rule="nonzero"/></clipPath><clipPath id="clip-7"><path d="M 153 5 L 168.785156 5 L 168.785156 23.625 L 153 23.625 Z M 153 5 " clip-rule="nonzero"/></clipPath><clipPath id="clip-8"><path d="M 92 5 L 109 5 L 109 23.625 L 92 23.625 Z M 92 5 " clip-rule="nonzero"/></clipPath><clipPath id="clip-9"><path d="M 110 5 L 125 5 L 125 23.625 L 110 23.625 Z M 110 5 " clip-rule="nonzero"/></clipPath><clipPath id="clip-10"><path d="M 140 5 L 153 5 L 153 23.625 L 140 23.625 Z M 140 5 " clip-rule="nonzero"/></clipPath></defs><g clip-path="url(#clip-0)"><path fill="rgb(100%, 100%, 100%)" d="M 2.902344 0 L 177.097656 0 L 177.097656 36.289062 L 2.902344 36.289062 Z M 2.902344 0 " fill-opacity="1" fill-rule="nonzero"/><path fill="rgb(100%, 100%, 100%)" d="M 2.902344 0 L 177.097656 0 L 177.097656 29.03125 L 2.902344 29.03125 Z M 2.902344 0 " fill-opacity="1" fill-rule="nonzero"/><path fill="rgb(100%, 100%, 100%)" d="M 2.902344 0 L 177.097656 0 L 177.097656 29.03125 L 2.902344 29.03125 Z M 2.902344 0 " fill-opacity="1" fill-rule="nonzero"/></g><path fill="rgb(2.749634%, 40.388489%, 100%)" d="M 31.300781 24.175781 C 31.128906 24.269531 30.945312 24.316406 30.75 24.316406 C 30.4375 24.316406 30.171875 24.207031 29.953125 23.984375 L 25.636719 19.664062 L 25.632812 19.65625 C 25.574219 19.601562 25.515625 19.542969 25.453125 19.484375 C 25.054688 19.101562 24.707031 18.769531 24.707031 18.441406 C 24.707031 17.722656 24.753906 17.703125 25.035156 17.589844 C 25.191406 17.527344 25.34375 17.457031 25.496094 17.378906 L 25.632812 17.296875 L 25.722656 17.25 L 25.765625 17.210938 C 25.980469 17.0625 26.175781 16.886719 26.351562 16.691406 C 26.527344 16.492188 26.675781 16.277344 26.800781 16.042969 C 26.921875 15.808594 27.015625 15.5625 27.078125 15.304688 C 27.144531 15.050781 27.175781 14.789062 27.175781 14.523438 C 27.175781 14.257812 27.144531 14 27.082031 13.742188 C 27.019531 13.484375 26.929688 13.238281 26.804688 13.003906 C 26.683594 12.769531 26.535156 12.554688 26.363281 12.355469 C 26.1875 12.15625 25.992188 11.980469 25.777344 11.828125 L 25.734375 11.789062 L 25.636719 11.738281 L 25.511719 11.664062 L 25.496094 11.65625 C 25.347656 11.578125 25.195312 11.507812 25.039062 11.445312 C 24.753906 11.332031 24.710938 11.3125 24.710938 10.59375 C 24.710938 10.265625 25.058594 9.933594 25.457031 9.546875 C 25.515625 9.492188 25.574219 9.433594 25.632812 9.378906 L 29.953125 5.054688 L 29.953125 5.050781 C 30.175781 4.828125 30.441406 4.71875 30.753906 4.71875 C 31.164062 4.71875 31.480469 4.890625 31.703125 5.234375 C 32.046875 5.777344 32.222656 6.367188 32.222656 7.007812 C 32.222656 7.308594 32.183594 7.601562 32.101562 7.894531 C 32.027344 8.171875 31.914062 8.433594 31.769531 8.683594 C 31.402344 9.304688 30.972656 9.882812 30.484375 10.414062 C 30 10.945312 29.460938 11.414062 28.875 11.824219 L 28.871094 11.828125 C 28.65625 11.980469 28.464844 12.15625 28.292969 12.355469 C 28.121094 12.554688 27.972656 12.769531 27.851562 13.003906 C 27.734375 13.238281 27.640625 13.484375 27.578125 13.738281 C 27.515625 13.996094 27.488281 14.253906 27.488281 14.519531 C 27.488281 14.78125 27.515625 15.039062 27.578125 15.296875 C 27.640625 15.550781 27.734375 15.796875 27.851562 16.03125 C 27.972656 16.265625 28.121094 16.480469 28.292969 16.679688 C 28.464844 16.878906 28.65625 17.054688 28.871094 17.207031 L 28.875 17.210938 C 29.464844 17.621094 30 18.089844 30.484375 18.621094 C 30.972656 19.152344 31.402344 19.730469 31.765625 20.351562 C 31.914062 20.601562 32.027344 20.863281 32.101562 21.140625 C 32.363281 22.085938 32.230469 22.972656 31.703125 23.796875 C 31.601562 23.957031 31.464844 24.082031 31.300781 24.175781 " fill-opacity="1" fill-rule="nonzero"/><g clip-path="url(#clip-1)"><path fill="rgb(2.749634%, 40.388489%, 100%)" d="M 33.375 27.917969 C 34.164062 27.476562 34.804688 26.875 35.292969 26.113281 C 35.671875 25.523438 35.960938 24.890625 36.164062 24.222656 C 36.367188 23.550781 36.476562 22.863281 36.488281 22.164062 C 36.5 21.464844 36.417969 20.773438 36.242188 20.097656 C 36.0625 19.417969 35.796875 18.777344 35.441406 18.175781 C 34.921875 17.289062 34.316406 16.46875 33.621094 15.714844 C 33.230469 15.289062 32.816406 14.890625 32.378906 14.519531 C 32.816406 14.144531 33.230469 13.746094 33.621094 13.320312 C 34.316406 12.566406 34.921875 11.746094 35.441406 10.863281 C 35.796875 10.257812 36.0625 9.617188 36.242188 8.9375 C 36.421875 8.261719 36.503906 7.570312 36.488281 6.871094 C 36.476562 6.167969 36.367188 5.484375 36.164062 4.8125 C 35.960938 4.140625 35.671875 3.511719 35.292969 2.921875 C 34.796875 2.144531 34.144531 1.535156 33.339844 1.09375 C 32.53125 0.652344 31.667969 0.433594 30.75 0.433594 C 30.03125 0.429688 29.34375 0.570312 28.679688 0.84375 C 28.015625 1.121094 27.433594 1.515625 26.929688 2.027344 L 22.632812 6.328125 L 22.496094 6.460938 C 22.164062 6.78125 21.703125 7.222656 21.304688 7.820312 C 20.730469 8.675781 20.441406 9.609375 20.441406 10.59375 C 20.441406 11.070312 20.441406 11.957031 20.824219 12.890625 C 21.082031 13.519531 21.464844 14.0625 21.972656 14.519531 C 21.464844 14.972656 21.082031 15.515625 20.824219 16.144531 C 20.441406 17.078125 20.441406 17.964844 20.441406 18.441406 C 20.441406 19.425781 20.730469 20.359375 21.304688 21.214844 C 21.703125 21.8125 22.164062 22.253906 22.496094 22.578125 L 22.628906 22.707031 L 26.925781 27.007812 C 27.429688 27.519531 28.011719 27.914062 28.675781 28.191406 C 29.339844 28.46875 30.03125 28.605469 30.75 28.601562 C 31.683594 28.601562 32.558594 28.375 33.375 27.917969 M 28.433594 25.496094 L 24.128906 21.1875 C 24.078125 21.136719 24.027344 21.085938 23.972656 21.035156 C 23.382812 20.464844 22.570312 19.683594 22.570312 18.441406 C 22.570312 17.964844 22.585938 17.457031 22.792969 16.960938 C 23.046875 16.339844 23.535156 15.878906 24.242188 15.597656 C 24.332031 15.558594 24.414062 15.515625 24.5 15.472656 L 24.589844 15.402344 C 24.839844 15.207031 24.984375 14.957031 25.023438 14.640625 C 25.035156 14.558594 25.035156 14.476562 25.023438 14.390625 C 24.980469 14.078125 24.832031 13.824219 24.582031 13.628906 L 24.488281 13.558594 C 24.40625 13.511719 24.324219 13.472656 24.242188 13.4375 C 23.53125 13.152344 23.042969 12.691406 22.789062 12.070312 C 22.582031 11.574219 22.566406 11.066406 22.566406 10.59375 C 22.566406 9.347656 23.375 8.566406 23.96875 7.996094 C 24.023438 7.945312 24.074219 7.894531 24.125 7.84375 L 28.433594 3.535156 C 29.070312 2.890625 29.84375 2.570312 30.746094 2.570312 C 31.304688 2.570312 31.828125 2.703125 32.316406 2.96875 C 32.804688 3.238281 33.199219 3.605469 33.5 4.074219 C 33.769531 4.5 33.980469 4.953125 34.125 5.433594 C 34.269531 5.914062 34.347656 6.40625 34.359375 6.910156 C 34.367188 7.414062 34.308594 7.90625 34.179688 8.394531 C 34.054688 8.882812 33.863281 9.339844 33.609375 9.773438 C 33.164062 10.53125 32.648438 11.226562 32.054688 11.871094 C 31.464844 12.515625 30.808594 13.085938 30.09375 13.585938 C 29.945312 13.695312 29.832031 13.828125 29.75 13.992188 C 29.667969 14.15625 29.625 14.332031 29.625 14.515625 C 29.625 14.699219 29.667969 14.875 29.75 15.039062 C 29.832031 15.203125 29.945312 15.335938 30.09375 15.445312 C 30.8125 15.945312 31.464844 16.519531 32.054688 17.160156 C 32.648438 17.804688 33.164062 18.503906 33.609375 19.257812 C 33.851562 19.671875 34.035156 20.105469 34.164062 20.566406 C 34.367188 21.3125 34.414062 22.070312 34.296875 22.832031 C 34.183594 23.597656 33.917969 24.304688 33.5 24.957031 C 33.199219 25.425781 32.804688 25.796875 32.316406 26.0625 C 31.828125 26.332031 31.304688 26.464844 30.75 26.464844 C 29.84375 26.464844 29.074219 26.144531 28.4375 25.496094 " fill-opacity="1" fill-rule="nonzero"/></g><path fill="rgb(2.749634%, 40.388489%, 100%)" d="M 9.457031 24.117188 C 9.628906 24.214844 9.8125 24.261719 10.007812 24.261719 C 10.320312 24.261719 10.585938 24.152344 10.804688 23.925781 L 15.117188 19.609375 L 15.125 19.601562 C 15.183594 19.542969 15.242188 19.488281 15.304688 19.429688 C 15.703125 19.046875 16.046875 18.710938 16.046875 18.382812 C 16.046875 17.664062 16.003906 17.648438 15.71875 17.535156 C 15.566406 17.472656 15.414062 17.402344 15.265625 17.324219 L 15.121094 17.242188 L 15.035156 17.199219 L 14.992188 17.160156 C 14.601562 16.890625 14.285156 16.554688 14.042969 16.148438 C 13.800781 15.742188 13.652344 15.300781 13.601562 14.832031 C 13.574219 14.585938 13.574219 14.34375 13.601562 14.101562 C 13.707031 13.117188 14.167969 12.34375 14.980469 11.777344 L 15.019531 11.738281 L 15.121094 11.683594 L 15.242188 11.613281 L 15.261719 11.601562 C 15.40625 11.523438 15.558594 11.453125 15.714844 11.394531 C 16 11.277344 16.042969 11.257812 16.042969 10.542969 C 16.042969 10.214844 15.699219 9.882812 15.296875 9.496094 C 15.238281 9.4375 15.179688 9.382812 15.125 9.324219 L 10.800781 5 C 10.582031 4.773438 10.320312 4.660156 10.007812 4.660156 C 9.597656 4.660156 9.277344 4.832031 9.058594 5.179688 C 8.710938 5.71875 8.539062 6.3125 8.539062 6.953125 C 8.539062 7.253906 8.578125 7.546875 8.65625 7.835938 C 8.734375 8.113281 8.84375 8.378906 8.992188 8.628906 C 9.359375 9.25 9.785156 9.828125 10.273438 10.359375 C 10.757812 10.886719 11.296875 11.359375 11.886719 11.769531 L 11.890625 11.769531 C 12.105469 11.921875 12.296875 12.097656 12.46875 12.296875 C 12.640625 12.496094 12.785156 12.714844 12.90625 12.949219 C 13.027344 13.183594 13.117188 13.425781 13.179688 13.683594 C 13.242188 13.9375 13.273438 14.199219 13.273438 14.460938 C 13.273438 14.726562 13.242188 14.984375 13.179688 15.238281 C 13.117188 15.496094 13.027344 15.742188 12.90625 15.976562 C 12.785156 16.207031 12.640625 16.425781 12.46875 16.625 C 12.296875 16.824219 12.105469 17 11.890625 17.152344 L 11.886719 17.15625 C 11.296875 17.566406 10.761719 18.035156 10.273438 18.5625 C 9.785156 19.09375 9.359375 19.671875 8.992188 20.292969 C 8.847656 20.542969 8.734375 20.808594 8.65625 21.085938 C 8.578125 21.375 8.539062 21.667969 8.539062 21.96875 C 8.539062 22.613281 8.710938 23.203125 9.058594 23.742188 C 9.160156 23.902344 9.292969 24.027344 9.457031 24.117188 " fill-opacity="1" fill-rule="nonzero"/><g clip-path="url(#clip-2)"><path fill="rgb(2.749634%, 40.388489%, 100%)" d="M 7.378906 27.863281 C 6.589844 27.421875 5.953125 26.820312 5.460938 26.054688 C 5.085938 25.464844 4.792969 24.835938 4.59375 24.164062 C 4.390625 23.496094 4.28125 22.808594 4.269531 22.109375 C 4.253906 21.40625 4.335938 20.71875 4.515625 20.039062 C 4.691406 19.363281 4.957031 18.722656 5.3125 18.117188 C 5.835938 17.234375 6.441406 16.414062 7.136719 15.660156 C 7.523438 15.234375 7.9375 14.835938 8.378906 14.460938 C 7.9375 14.089844 7.523438 13.691406 7.136719 13.265625 C 6.441406 12.511719 5.835938 11.691406 5.316406 10.808594 C 4.960938 10.203125 4.691406 9.5625 4.515625 8.886719 C 4.335938 8.207031 4.253906 7.515625 4.269531 6.816406 C 4.28125 6.113281 4.390625 5.429688 4.59375 4.757812 C 4.796875 4.085938 5.085938 3.457031 5.464844 2.867188 C 5.960938 2.089844 6.609375 1.480469 7.417969 1.039062 C 8.222656 0.597656 9.085938 0.378906 10.007812 0.378906 C 10.722656 0.375 11.414062 0.511719 12.078125 0.789062 C 12.738281 1.0625 13.324219 1.457031 13.828125 1.96875 L 18.125 6.269531 L 18.257812 6.402344 C 18.59375 6.722656 19.050781 7.167969 19.449219 7.765625 C 20.023438 8.617188 20.316406 9.550781 20.316406 10.539062 C 20.316406 11.015625 20.316406 11.902344 19.929688 12.832031 C 19.671875 13.464844 19.289062 14.007812 18.78125 14.460938 C 19.289062 14.914062 19.671875 15.457031 19.929688 16.089844 C 20.316406 17.019531 20.316406 17.90625 20.316406 18.382812 C 20.316406 19.371094 20.023438 20.304688 19.449219 21.160156 C 19.050781 21.757812 18.59375 22.199219 18.257812 22.519531 C 18.214844 22.566406 18.167969 22.609375 18.125 22.652344 L 13.832031 26.953125 C 13.324219 27.464844 12.742188 27.859375 12.078125 28.136719 C 11.414062 28.414062 10.722656 28.550781 10.003906 28.546875 C 9.070312 28.546875 8.199219 28.320312 7.382812 27.867188 M 12.320312 25.441406 L 16.628906 21.132812 C 16.679688 21.082031 16.730469 21.03125 16.785156 20.980469 C 17.375 20.410156 18.1875 19.628906 18.1875 18.382812 C 18.1875 17.910156 18.167969 17.402344 17.964844 16.90625 C 17.707031 16.285156 17.21875 15.824219 16.515625 15.539062 C 16.425781 15.503906 16.339844 15.460938 16.257812 15.414062 L 16.167969 15.34375 C 16.03125 15.242188 15.921875 15.109375 15.84375 14.953125 C 15.761719 14.800781 15.726562 14.632812 15.726562 14.457031 C 15.726562 14.285156 15.765625 14.121094 15.84375 13.964844 C 15.925781 13.808594 16.035156 13.679688 16.175781 13.578125 L 16.269531 13.503906 C 16.347656 13.457031 16.429688 13.417969 16.515625 13.382812 C 17.222656 13.097656 17.710938 12.636719 17.964844 12.015625 C 18.171875 11.519531 18.1875 11.011719 18.1875 10.539062 C 18.1875 9.292969 17.378906 8.511719 16.785156 7.941406 L 16.628906 7.792969 L 12.324219 3.480469 C 11.6875 2.835938 10.914062 2.511719 10.007812 2.515625 C 9.453125 2.511719 8.929688 2.648438 8.441406 2.914062 C 7.953125 3.179688 7.554688 3.550781 7.253906 4.019531 C 6.984375 4.441406 6.777344 4.894531 6.628906 5.378906 C 6.484375 5.859375 6.40625 6.351562 6.398438 6.855469 C 6.386719 7.359375 6.445312 7.851562 6.574219 8.339844 C 6.703125 8.824219 6.894531 9.285156 7.148438 9.71875 C 7.589844 10.472656 8.109375 11.171875 8.699219 11.816406 C 9.289062 12.460938 9.945312 13.03125 10.660156 13.53125 C 10.808594 13.640625 10.921875 13.777344 11.007812 13.941406 C 11.089844 14.105469 11.128906 14.277344 11.128906 14.464844 C 11.128906 14.648438 11.089844 14.820312 11.007812 14.984375 C 10.921875 15.148438 10.808594 15.285156 10.660156 15.394531 C 9.945312 15.894531 9.292969 16.464844 8.703125 17.109375 C 8.109375 17.753906 7.59375 18.453125 7.148438 19.207031 C 6.894531 19.640625 6.703125 20.101562 6.578125 20.585938 C 6.449219 21.074219 6.390625 21.566406 6.398438 22.070312 C 6.410156 22.574219 6.484375 23.066406 6.632812 23.546875 C 6.777344 24.027344 6.984375 24.480469 7.257812 24.90625 C 7.558594 25.375 7.953125 25.742188 8.441406 26.011719 C 8.929688 26.277344 9.453125 26.410156 10.007812 26.410156 C 10.914062 26.414062 11.683594 26.089844 12.320312 25.445312 " fill-opacity="1" fill-rule="nonzero"/></g><g clip-path="url(#clip-3)"><path fill="rgb(2.749634%, 40.388489%, 100%)" d="M 64.59375 5.6875 C 64.253906 5.6875 63.945312 5.789062 63.671875 5.992188 C 63.398438 6.199219 63.214844 6.464844 63.117188 6.792969 L 61.886719 10.976562 C 61.25 13.054688 60.757812 15.167969 60.40625 17.3125 C 60.320312 16.527344 59.949219 14.839844 59.292969 12.253906 C 58.765625 10.175781 58.277344 8.355469 57.820312 6.792969 C 57.726562 6.464844 57.542969 6.199219 57.269531 5.992188 C 56.996094 5.789062 56.6875 5.6875 56.34375 5.6875 L 54.078125 5.6875 C 53.734375 5.683594 53.425781 5.789062 53.152344 5.996094 C 52.878906 6.199219 52.695312 6.46875 52.597656 6.800781 C 52.144531 8.394531 51.660156 10.222656 51.148438 12.28125 C 50.511719 14.847656 50.140625 16.519531 50.035156 17.304688 C 49.765625 15.421875 49.28125 13.3125 48.582031 10.976562 L 47.3125 6.777344 C 47.214844 6.453125 47.027344 6.191406 46.757812 5.988281 C 46.484375 5.789062 46.179688 5.6875 45.839844 5.6875 L 41.769531 5.6875 L 47.339844 22.515625 C 47.445312 22.828125 47.632812 23.085938 47.902344 23.277344 C 48.167969 23.472656 48.46875 23.570312 48.800781 23.570312 L 50.503906 23.570312 C 50.84375 23.570312 51.148438 23.46875 51.421875 23.265625 C 51.695312 23.066406 51.878906 22.800781 51.976562 22.476562 L 55.195312 11.84375 L 58.414062 22.476562 C 58.511719 22.800781 58.695312 23.066406 58.96875 23.265625 C 59.242188 23.46875 59.546875 23.570312 59.886719 23.570312 L 61.589844 23.570312 C 61.921875 23.570312 62.222656 23.476562 62.492188 23.28125 C 62.761719 23.085938 62.949219 22.828125 63.054688 22.511719 L 68.605469 5.6875 Z M 64.59375 5.6875 " fill-opacity="1" fill-rule="nonzero"/></g><g clip-path="url(#clip-4)"><path fill="rgb(2.749634%, 40.388489%, 100%)" d="M 74.117188 5.6875 L 71.15625 5.6875 L 71.15625 23.570312 L 75.675781 23.570312 L 75.675781 7.246094 C 75.675781 7.039062 75.636719 6.839844 75.558594 6.648438 C 75.476562 6.457031 75.367188 6.289062 75.21875 6.144531 C 75.074219 5.996094 74.90625 5.882812 74.714844 5.804688 C 74.523438 5.726562 74.324219 5.6875 74.117188 5.6875 Z M 74.117188 5.6875 " fill-opacity="1" fill-rule="nonzero"/></g><g clip-path="url(#clip-5)"><path fill="rgb(2.749634%, 40.388489%, 100%)" d="M 82.746094 19.332031 L 82.746094 7.246094 C 82.746094 7.039062 82.707031 6.839844 82.628906 6.648438 C 82.546875 6.460938 82.4375 6.292969 82.289062 6.144531 C 82.144531 6 81.976562 5.886719 81.785156 5.808594 C 81.597656 5.730469 81.398438 5.691406 81.191406 5.691406 L 78.222656 5.691406 L 78.222656 23.570312 L 89.820312 23.570312 L 89.820312 19.332031 Z M 82.746094 19.332031 " fill-opacity="1" fill-rule="nonzero"/></g><g clip-path="url(#clip-6)"><path fill="rgb(2.749634%, 40.388489%, 100%)" d="M 126.910156 23.570312 L 126.910156 5.6875 L 135.496094 5.6875 C 135.769531 5.6875 136.027344 5.738281 136.277344 5.84375 C 136.527344 5.945312 136.746094 6.09375 136.9375 6.285156 C 137.128906 6.472656 137.277344 6.695312 137.378906 6.945312 C 137.484375 7.191406 137.535156 7.453125 137.535156 7.722656 L 137.535156 9.929688 L 131.433594 9.929688 L 131.433594 12.558594 L 137.761719 12.519531 L 137.761719 16.429688 L 131.433594 16.46875 L 131.433594 19.328125 L 137.535156 19.328125 L 137.535156 23.570312 Z M 126.910156 23.570312 " fill-opacity="1" fill-rule="nonzero"/></g><path fill="rgb(2.749634%, 40.388489%, 100%)" d="M 148.375 13.0625 L 147.375 12.722656 C 147.714844 12.816406 148.046875 12.929688 148.375 13.0625 Z M 148.375 13.0625 " fill-opacity="1" fill-rule="nonzero"/><g clip-path="url(#clip-7)"><path fill="rgb(2.749634%, 40.388489%, 100%)" d="M 166.75 5.6875 L 153.695312 5.6875 L 153.695312 9.929688 L 158.980469 9.929688 L 158.980469 23.570312 L 163.5 23.570312 L 163.5 9.929688 L 168.785156 9.929688 L 168.785156 7.722656 C 168.785156 7.453125 168.734375 7.191406 168.628906 6.945312 C 168.527344 6.695312 168.378906 6.472656 168.1875 6.28125 C 167.996094 6.09375 167.777344 5.945312 167.527344 5.839844 C 167.277344 5.738281 167.019531 5.6875 166.75 5.6875 Z M 166.75 5.6875 " fill-opacity="1" fill-rule="nonzero"/></g><g clip-path="url(#clip-8)"><path fill="rgb(2.749634%, 40.388489%, 100%)" d="M 105.570312 8 C 105.03125 7.480469 104.429688 7.042969 103.769531 6.6875 C 102.507812 6.011719 101.085938 5.691406 99.652344 5.691406 L 92.371094 5.691406 L 92.371094 23.574219 L 94.210938 23.574219 C 94.628906 23.589844 95.0625 23.59375 95.503906 23.59375 C 96.390625 23.59375 97.320312 23.574219 98.25 23.574219 C 101.398438 23.574219 103.605469 22.980469 105.453125 21.300781 C 107.300781 19.625 108.226562 17.394531 108.226562 14.617188 C 108.226562 11.910156 107.339844 9.703125 105.570312 8 Z M 102.042969 18.292969 C 101.140625 19.175781 99.898438 19.617188 98.320312 19.617188 C 98.070312 19.617188 97.847656 19.617188 97.648438 19.613281 C 97.324219 19.605469 97.070312 19.589844 96.890625 19.570312 L 96.890625 9.714844 C 97.175781 9.675781 97.464844 9.660156 97.753906 9.664062 C 97.898438 9.65625 98.0625 9.65625 98.242188 9.65625 C 99.878906 9.65625 101.140625 10.105469 102.042969 11.003906 C 102.949219 11.898438 103.394531 13.117188 103.394531 14.667969 C 103.394531 16.203125 102.949219 17.410156 102.042969 18.292969 Z M 102.042969 18.292969 " fill-opacity="1" fill-rule="nonzero"/></g><g clip-path="url(#clip-9)"><path fill="rgb(2.749634%, 40.388489%, 100%)" d="M 123.132812 15.753906 C 122.320312 14.917969 121.269531 14.414062 119.992188 14.246094 C 121.046875 14.039062 121.914062 13.550781 122.585938 12.773438 C 123.257812 12 123.59375 11.117188 123.59375 10.128906 C 123.59375 8.714844 122.988281 7.585938 121.769531 6.761719 C 121.363281 6.484375 120.925781 6.265625 120.464844 6.101562 C 119.65625 5.816406 118.824219 5.675781 117.96875 5.683594 L 110.78125 5.683594 L 110.78125 23.621094 L 117.828125 23.621094 C 118.742188 23.625 119.636719 23.511719 120.515625 23.277344 C 121.179688 23.105469 121.800781 22.839844 122.378906 22.480469 C 123.699219 21.640625 124.359375 20.34375 124.367188 18.585938 C 124.363281 17.535156 123.953125 16.589844 123.132812 15.753906 Z M 115.292969 9.414062 C 115.640625 9.375 115.992188 9.359375 116.34375 9.367188 C 117.144531 9.367188 117.738281 9.527344 118.128906 9.851562 C 118.53125 10.164062 118.726562 10.574219 118.714844 11.078125 C 118.714844 11.605469 118.503906 12.050781 118.078125 12.417969 C 117.65625 12.785156 117.019531 12.96875 116.164062 12.96875 L 115.292969 12.96875 Z M 118.523438 19.722656 C 118.058594 20.054688 117.417969 20.222656 116.597656 20.222656 C 116.160156 20.230469 115.726562 20.210938 115.292969 20.171875 L 115.292969 16.21875 L 116.164062 16.21875 C 117.148438 16.21875 117.910156 16.390625 118.441406 16.746094 C 118.96875 17.105469 119.226562 17.621094 119.226562 18.28125 C 119.226562 18.917969 118.992188 19.390625 118.523438 19.722656 Z M 118.523438 19.722656 " fill-opacity="1" fill-rule="nonzero"/></g><g clip-path="url(#clip-10)"><path fill="rgb(2.749634%, 40.388489%, 100%)" d="M 152.113281 18.15625 C 152.113281 19.992188 151.4375 21.417969 150.085938 22.425781 C 148.734375 23.425781 147.816406 23.570312 145.65625 23.570312 L 140.371094 23.570312 L 140.371094 19.332031 L 146.328125 19.332031 C 146.46875 19.34375 146.609375 19.328125 146.746094 19.28125 C 146.882812 19.234375 147.003906 19.160156 147.109375 19.0625 C 147.214844 18.964844 147.296875 18.851562 147.355469 18.71875 C 147.410156 18.585938 147.441406 18.449219 147.4375 18.304688 C 147.4375 18.03125 147.347656 17.796875 147.164062 17.59375 C 147.160156 17.585938 147.15625 17.582031 147.148438 17.574219 C 147.058594 17.464844 146.953125 17.367188 146.832031 17.285156 C 146.457031 17.03125 145.839844 16.777344 144.96875 16.519531 C 144.386719 16.355469 143.820312 16.144531 143.269531 15.894531 C 142.722656 15.636719 142.210938 15.320312 141.738281 14.945312 C 141.203125 14.535156 140.800781 14.023438 140.523438 13.40625 C 140.222656 12.714844 140.078125 11.988281 140.089844 11.230469 C 140.089844 9.492188 140.761719 8.082031 142.105469 7.007812 C 143.171875 6.148438 144.550781 5.792969 146.210938 5.6875 L 146.257812 5.6875 C 146.679688 5.660156 147.113281 5.648438 147.566406 5.648438 C 147.953125 5.648438 148.347656 5.664062 148.753906 5.6875 L 148.804688 5.6875 C 148.988281 5.699219 149.175781 5.710938 149.359375 5.730469 C 150.390625 5.832031 151.085938 6.113281 151.085938 7.152344 L 151.085938 9.890625 L 145.84375 9.890625 C 145.242188 9.890625 144.714844 10.351562 144.6875 10.957031 C 144.679688 11.179688 144.734375 11.386719 144.847656 11.582031 C 144.964844 11.773438 145.125 11.917969 145.328125 12.011719 L 145.550781 12.089844 L 146.15625 12.296875 C 146.195312 12.3125 146.234375 12.332031 146.273438 12.347656 C 146.523438 12.449219 146.796875 12.546875 147.109375 12.644531 C 147.152344 12.65625 147.199219 12.671875 147.238281 12.683594 L 147.371094 12.726562 L 148.371094 13.0625 L 148.40625 13.078125 C 149.46875 13.507812 150.289062 14.039062 150.882812 14.671875 C 151.707031 15.550781 152.117188 16.710938 152.113281 18.15625 Z M 152.113281 18.15625 " fill-opacity="1" fill-rule="nonzero"/></g></svg>