<svg width="124" height="34" viewBox="0 0 124 34" fill="none" xmlns="http://www.w3.org/2000/svg">
<path d="M23.6592 28V29H24.4428L24.6302 28.2391L23.6592 28ZM18.6426 28L17.6659 28.2147L17.8385 29H18.6426V28ZM17.1387 21.1572L18.1154 20.9426L18.1123 20.9286L18.1088 20.9147L17.1387 21.1572ZM16.7949 19.4492L15.8101 19.623L15.8116 19.631L16.7949 19.4492ZM16.4619 17.3115L17.4542 17.1875L15.4694 17.1894L16.4619 17.3115ZM16.1826 19.0518L17.1655 19.236L17.1658 19.2342L16.1826 19.0518ZM15.7959 20.9531L14.8196 20.7362L14.8172 20.7477L15.7959 20.9531ZM14.2383 28V29H15.0402L15.2144 28.2173L14.2383 28ZM9.22168 28L8.25099 28.2403L8.43909 29H9.22168V28ZM5.33301 12.2949V11.2949H4.0552L4.36232 12.5353L5.33301 12.2949ZM9.42578 12.2949L10.4031 12.0829L10.2321 11.2949H9.42578V12.2949ZM11.1338 20.1689L10.1565 20.3809L10.1576 20.3859L11.1338 20.1689ZM11.9287 24.3262L10.9382 24.4637L12.9207 24.4526L11.9287 24.3262ZM12.4229 21.3506L11.4412 21.1599L11.4402 21.1653L12.4229 21.3506ZM13.0996 18.2354L14.0693 18.4799L14.0714 18.4712L14.0735 18.4625L13.0996 18.2354ZM14.4854 12.2949V11.2949H13.6918L13.5115 12.0677L14.4854 12.2949ZM18.417 12.2949L19.3924 12.0744L19.2162 11.2949H18.417V12.2949ZM19.7598 18.2354L18.7843 18.4558L18.7875 18.4693L19.7598 18.2354ZM20.9307 24.3262L19.9387 24.453L21.9239 24.4425L20.9307 24.3262ZM21.6934 20.1904L20.7168 19.9752L20.715 19.9833L21.6934 20.1904ZM23.4336 12.2949V11.2949H22.63L22.457 12.0797L23.4336 12.2949ZM27.5264 12.2949L28.4974 12.534L28.8025 11.2949H27.5264V12.2949ZM23.6592 27H18.6426V29H23.6592V27ZM19.6193 27.7853L18.1154 20.9426L16.162 21.3719L17.6659 28.2147L19.6193 27.7853ZM18.1088 20.9147C18.046 20.6633 17.9367 20.1242 17.7783 19.2674L15.8116 19.631C15.9683 20.4786 16.0882 21.0783 16.1685 21.3998L18.1088 20.9147ZM17.7797 19.2754C17.6309 18.4325 17.523 17.7378 17.4542 17.1875L15.4696 17.4356C15.5441 18.0311 15.6581 18.7615 15.8101 19.623L17.7797 19.2754ZM15.4694 17.1894C15.4155 17.6273 15.3263 18.1857 15.1994 18.8693L17.1658 19.2342C17.2968 18.5285 17.3937 17.9267 17.4544 17.4337L15.4694 17.1894ZM15.1997 18.8675C15.0725 19.5459 14.9458 20.1687 14.8197 20.7362L16.7721 21.1701C16.9038 20.5774 17.0349 19.9326 17.1655 19.236L15.1997 18.8675ZM14.8172 20.7477C14.6971 21.3201 14.1798 23.6606 13.2622 27.7827L15.2144 28.2173C16.1301 24.1037 16.6512 21.7463 16.7746 21.1585L14.8172 20.7477ZM14.2383 27H9.22168V29H14.2383V27ZM10.1924 27.7597L6.30369 12.0546L4.36232 12.5353L8.25099 28.2403L10.1924 27.7597ZM5.33301 13.2949H9.42578V11.2949H5.33301V13.2949ZM8.44851 12.5069L10.1565 20.3809L12.1111 19.957L10.4031 12.0829L8.44851 12.5069ZM10.1576 20.3859C10.542 22.1155 10.8004 23.4713 10.9382 24.4637L12.9192 24.1886C12.7706 23.1186 12.4991 21.7029 12.11 19.952L10.1576 20.3859ZM12.9207 24.4526C13.0101 23.751 13.1706 22.7815 13.4055 21.5359L11.4402 21.1653C11.2024 22.4262 11.0335 23.4404 10.9367 24.1997L12.9207 24.4526ZM13.4045 21.5413C13.646 20.2981 13.8677 19.2792 14.0693 18.4799L12.13 17.9908C11.9162 18.8387 11.6866 19.8966 11.4412 21.1599L13.4045 21.5413ZM14.0735 18.4625L15.4592 12.5221L13.5115 12.0677L12.1258 18.0082L14.0735 18.4625ZM14.4854 13.2949H18.417V11.2949H14.4854V13.2949ZM17.4416 12.5154L18.7844 18.4558L20.7352 18.0149L19.3924 12.0744L17.4416 12.5154ZM18.7875 18.4693C19.012 19.4022 19.2414 20.485 19.4755 21.7195L21.4405 21.3469C21.202 20.0892 20.9659 18.9735 20.732 18.0014L18.7875 18.4693ZM19.4755 21.7195C19.7111 22.9618 19.864 23.8684 19.9387 24.453L21.9226 24.1993C21.8398 23.5522 21.6776 22.5968 21.4405 21.3469L19.4755 21.7195ZM21.9239 24.4425C22.011 23.6986 22.256 22.3611 22.6717 20.3975L20.715 19.9833C20.3 21.9442 20.0365 23.3639 19.9375 24.2099L21.9239 24.4425ZM22.6699 20.4057L24.4102 12.5102L22.457 12.0797L20.7168 19.9752L22.6699 20.4057ZM23.4336 13.2949H27.5264V11.2949H23.4336V13.2949ZM26.5554 12.0558L22.6882 27.7609L24.6302 28.2391L28.4974 12.534L26.5554 12.0558ZM29.5566 28H28.5566V29H29.5566V28ZM29.5566 12.2949V11.2949H28.5566V12.2949H29.5566ZM33.8213 12.2949H34.8213V11.2949H33.8213V12.2949ZM33.8213 28V29H34.8213V28H33.8213ZM30.5566 28V12.2949H28.5566V28H30.5566ZM29.5566 13.2949H33.8213V11.2949H29.5566V13.2949ZM32.8213 12.2949V28H34.8213V12.2949H32.8213ZM33.8213 27H29.5566V29H33.8213V27ZM37.2266 28H36.2266V29H37.2266V28ZM37.2266 12.2949V11.2949H36.2266V12.2949H37.2266ZM41.4697 12.2949H42.4697V11.2949H41.4697V12.2949ZM41.4697 24.5732H40.4697V25.5732H41.4697V24.5732ZM47.5176 24.5732H48.5176V23.5732H47.5176V24.5732ZM47.5176 28V29H48.5176V28H47.5176ZM38.2266 28V12.2949H36.2266V28H38.2266ZM37.2266 13.2949H41.4697V11.2949H37.2266V13.2949ZM40.4697 12.2949V24.5732H42.4697V12.2949H40.4697ZM41.4697 25.5732H47.5176V23.5732H41.4697V25.5732ZM46.5176 24.5732V28H48.5176V24.5732H46.5176ZM47.5176 27H37.2266V29H47.5176V27ZM61.1924 25.873L60.4924 25.1589L60.4906 25.1606L61.1924 25.873ZM50.0312 28H49.0312V29H50.0312V28ZM50.0312 12.2949V11.2949H49.0312V12.2949H50.0312ZM61.2998 14.2285L60.614 14.9563L60.6159 14.9581L61.2998 14.2285ZM58.0986 16.7637L57.3232 17.3952L57.3272 17.3999L58.0986 16.7637ZM54.2744 15.7217V14.7217H53.2744V15.7217H54.2744ZM54.2744 24.5195H53.2744V25.5195H54.2744V24.5195ZM58.0557 23.4023L58.8336 24.0307L58.8365 24.027L58.0557 23.4023ZM62.3623 19.8145C62.3623 22.2496 61.6952 23.9799 60.4924 25.1589L61.8924 26.5872C63.5828 24.9302 64.3623 22.6215 64.3623 19.8145H62.3623ZM60.4906 25.1606C59.2886 26.3447 57.544 27 55.1123 27V29C57.9085 29 60.2173 28.2373 61.8942 26.5854L60.4906 25.1606ZM55.1123 27H50.0312V29H55.1123V27ZM51.0312 28V12.2949H49.0312V28H51.0312ZM50.0312 13.2949H55.4668V11.2949H50.0312V13.2949ZM55.4668 13.2949C57.8216 13.2949 59.4876 13.8948 60.614 14.9563L61.9856 13.5008C60.3764 11.9842 58.1537 11.2949 55.4668 11.2949V13.2949ZM60.6159 14.9581C61.7345 16.0068 62.3623 17.5708 62.3623 19.8145H64.3623C64.3623 17.1883 63.6151 15.0284 61.9837 13.499L60.6159 14.9581ZM59.958 19.9648C59.958 18.4235 59.6565 17.081 58.8701 16.1274L57.3272 17.3999C57.6866 17.8357 57.958 18.6273 57.958 19.9648H59.958ZM58.874 16.1322C58.0652 15.139 56.8749 14.7217 55.5098 14.7217V16.7217C56.465 16.7217 57.0006 16.999 57.3233 17.3952L58.874 16.1322ZM55.5098 14.7217H54.2744V16.7217H55.5098V14.7217ZM53.2744 15.7217V24.5195H55.2744V15.7217H53.2744ZM54.2744 25.5195H55.2197V23.5195H54.2744V25.5195ZM55.2197 25.5195C56.6993 25.5195 57.9817 25.0854 58.8336 24.0307L57.2777 22.774C56.9265 23.2088 56.3183 23.5195 55.2197 23.5195V25.5195ZM58.8365 24.027C59.6429 23.0191 59.958 21.6047 59.958 19.9648H57.958C57.958 21.4044 57.6716 22.2817 57.2748 22.7776L58.8365 24.027ZM71.9023 12.2949V11.2949H70.9023V12.2949H71.9023ZM82.1289 13.251L81.6031 14.1016L81.6101 14.1059L82.1289 13.251ZM81.2266 19.6641L80.9907 18.6923L80.2266 18.8777V19.6641H81.2266ZM81.2266 19.7715H80.2266V20.5412L80.9707 20.7382L81.2266 19.7715ZM82.3867 26.7754L82.9944 27.5696L82.9951 27.569L82.3867 26.7754ZM71.9023 28H70.9023V29H71.9023V28ZM76.1455 18.3213H75.1455V19.3213H76.1455V18.3213ZM78.8311 17.9453L78.2338 17.1432L78.2255 17.1495L78.8311 17.9453ZM76.1455 15.5068V14.5068H75.1455V15.5068H76.1455ZM76.1455 21.4258V20.4258H75.1455V21.4258H76.1455ZM76.1455 24.7236H75.1455V25.7236H76.1455V24.7236ZM79.0889 21.8447L78.4661 22.6272L78.4738 22.6332L79.0889 21.8447ZM71.9023 13.2949H77.3809V11.2949H71.9023V13.2949ZM77.3809 13.2949C79.4523 13.2949 80.8092 13.6109 81.6032 14.1016L82.6546 12.4003C81.3861 11.6163 79.5777 11.2949 77.3809 11.2949V13.2949ZM81.6101 14.1059C82.3147 14.5335 82.6865 15.1724 82.6865 16.2051H84.6865C84.6865 14.5594 84.0199 13.2289 82.6477 12.3961L81.6101 14.1059ZM82.6865 16.2051C82.6865 16.907 82.51 17.446 82.1998 17.8744L83.8197 19.0474C84.4118 18.2298 84.6865 17.2648 84.6865 16.2051H82.6865ZM82.1998 17.8744C81.8861 18.3077 81.4939 18.5701 80.9907 18.6923L81.4624 20.6358C82.4345 20.3999 83.2311 19.8602 83.8197 19.0474L82.1998 17.8744ZM80.2266 19.6641V19.7715H82.2266V19.6641H80.2266ZM80.9707 20.7382C81.8009 20.958 82.2733 21.2896 82.5336 21.6481L84.1519 20.4729C83.5386 19.6283 82.6001 19.1006 81.4825 18.8048L80.9707 20.7382ZM82.5336 21.6481C82.8146 22.0351 82.998 22.5924 82.998 23.4023H84.998C84.998 22.293 84.7446 21.2891 84.1519 20.4729L82.5336 21.6481ZM82.998 23.4023C82.998 24.5356 82.5909 25.3588 81.7783 25.9818L82.9951 27.569C84.331 26.5448 84.998 25.1194 84.998 23.4023H82.998ZM81.7791 25.9812C80.9415 26.622 79.7238 27 78.0146 27V29C80.0008 29 81.6978 28.5616 82.9944 27.5696L81.7791 25.9812ZM78.0146 27H71.9023V29H78.0146V27ZM72.9023 28V12.2949H70.9023V28H72.9023ZM76.1455 19.3213H77.4238V17.3213H76.1455V19.3213ZM77.4238 19.3213C78.1525 19.3213 78.8681 19.1737 79.4366 18.7411L78.2255 17.1495C78.1351 17.2183 77.9126 17.3213 77.4238 17.3213V19.3213ZM79.4283 18.7474C80.0653 18.273 80.3359 17.5747 80.3359 16.8281H78.3359C78.3359 17.0698 78.27 17.1163 78.2338 17.1433L79.4283 18.7474ZM80.3359 16.8281C80.3359 16.0929 80.0335 15.4299 79.388 15.003C78.8151 14.6242 78.0824 14.5068 77.3379 14.5068V16.5068C77.9254 16.5068 78.1918 16.6097 78.2848 16.6713C78.3037 16.6837 78.3119 16.6922 78.3144 16.6949C78.3165 16.6973 78.3172 16.6985 78.3181 16.7002C78.3188 16.7015 78.3359 16.7347 78.3359 16.8281H80.3359ZM77.3379 14.5068H76.1455V16.5068H77.3379V14.5068ZM75.1455 15.5068V18.3213H77.1455V15.5068H75.1455ZM75.1455 21.4258V24.7236H77.1455V21.4258H75.1455ZM76.1455 25.7236H77.6387V23.7236H76.1455V25.7236ZM77.6387 25.7236C78.4176 25.7236 79.1882 25.563 79.7738 25.0692C80.3921 24.5478 80.626 23.8095 80.626 23.0479H78.626C78.626 23.4034 78.5286 23.503 78.4845 23.5402C78.4077 23.605 78.1846 23.7236 77.6387 23.7236V25.7236ZM80.626 23.0479C80.626 22.2696 80.3436 21.5552 79.7039 21.0562L78.4738 22.6332C78.5502 22.6928 78.626 22.7805 78.626 23.0479H80.626ZM79.7116 21.0623C79.1143 20.5869 78.3437 20.4258 77.5527 20.4258V22.4258C78.1082 22.4258 78.3616 22.544 78.4661 22.6272L79.7116 21.0623ZM77.5527 20.4258H76.1455V22.4258H77.5527V20.4258ZM96.0508 28V29H97.0508V28H96.0508ZM86.7266 28H85.7266V29H86.7266V28ZM86.7266 12.2949V11.2949H85.7266V12.2949H86.7266ZM96.0508 12.2949H97.0508V11.2949H96.0508V12.2949ZM96.0508 15.7002V16.7002H97.0508V15.7002H96.0508ZM90.9697 15.7002V14.7002H89.9697V15.7002H90.9697ZM90.9697 18.1709H89.9697V19.1709H90.9697V18.1709ZM95.6748 18.1709H96.6748V17.1709H95.6748V18.1709ZM95.6748 21.5762V22.5762H96.6748V21.5762H95.6748ZM90.9697 21.5762V20.5762H89.9697V21.5762H90.9697ZM90.9697 24.541H89.9697V25.541H90.9697V24.541ZM96.0508 24.541H97.0508V23.541H96.0508V24.541ZM96.0508 27H86.7266V29H96.0508V27ZM87.7266 28V12.2949H85.7266V28H87.7266ZM86.7266 13.2949H96.0508V11.2949H86.7266V13.2949ZM95.0508 12.2949V15.7002H97.0508V12.2949H95.0508ZM96.0508 14.7002H90.9697V16.7002H96.0508V14.7002ZM89.9697 15.7002V18.1709H91.9697V15.7002H89.9697ZM90.9697 19.1709H95.6748V17.1709H90.9697V19.1709ZM94.6748 18.1709V21.5762H96.6748V18.1709H94.6748ZM95.6748 20.5762H90.9697V22.5762H95.6748V20.5762ZM89.9697 21.5762V24.541H91.9697V21.5762H89.9697ZM90.9697 25.541H96.0508V23.541H90.9697V25.541ZM95.0508 24.541V28H97.0508V24.541H95.0508ZM108.329 25.8301L109.165 26.3793L109.167 26.3756L108.329 25.8301ZM106.191 27.5918L106.599 28.505L106.605 28.5024L106.191 27.5918ZM100.283 28L100.076 28.9783L100.085 28.9802L100.283 28ZM98.0703 27.2266H97.0703V27.8577L97.6401 28.1293L98.0703 27.2266ZM98.0703 23.4453L98.5269 22.5557L97.0703 21.808V23.4453H98.0703ZM100.595 24.4229L100.334 25.3882L100.341 25.3901L100.595 24.4229ZM104.387 24.4443L104.977 25.2514L104.984 25.2467L104.99 25.242L104.387 24.4443ZM104.645 23.0371L103.824 23.6082L103.838 23.6287L103.853 23.6486L104.645 23.0371ZM104.075 22.543L103.537 23.3857L103.547 23.3923L104.075 22.543ZM101.991 21.5332L101.577 22.4436L101.581 22.4453L101.991 21.5332ZM99.6816 20.1797L99.03 20.9382L99.0352 20.9427L99.6816 20.1797ZM98.543 18.6758L97.6244 19.0711L97.6287 19.0808L98.543 18.6758ZM109.07 13.1973L110 13.566L110.354 12.6738L109.477 12.2836L109.07 13.1973ZM107.771 16.4736L107.354 17.3826L108.311 17.8218L108.7 16.8424L107.771 16.4736ZM102.765 15.7539L102.154 14.9621L102.765 15.7539ZM102.861 17.3008L102.25 18.0921L102.258 18.0986L102.861 17.3008ZM105.461 18.6328L105.045 19.5424L105.051 19.5448L105.461 18.6328ZM108.275 20.5986L107.473 21.1961L107.48 21.2052L108.275 20.5986ZM108.07 23.2305C108.07 24.026 107.871 24.7001 107.491 25.2845L109.167 26.3756C109.775 25.4419 110.07 24.3829 110.07 23.2305H108.07ZM107.493 25.2809C107.117 25.8541 106.561 26.3259 105.778 26.6812L106.605 28.5024C107.684 28.0127 108.553 27.3099 109.165 26.3793L107.493 25.2809ZM105.784 26.6786C105.007 27.0252 104.059 27.2148 102.915 27.2148V29.2148C104.277 29.2148 105.514 28.9891 106.599 28.505L105.784 26.6786ZM102.915 27.2148C101.909 27.2148 101.103 27.1455 100.481 27.0198L100.085 28.9802C100.881 29.141 101.83 29.2148 102.915 29.2148V27.2148ZM100.491 27.0218C99.8705 26.8902 99.2076 26.6608 98.5006 26.3239L97.6401 28.1293C98.4656 28.5227 99.278 28.809 100.076 28.9782L100.491 27.0218ZM99.0703 27.2266V23.4453H97.0703V27.2266H99.0703ZM97.6137 24.335C98.485 24.7822 99.3919 25.1334 100.334 25.3882L100.856 23.4575C100.05 23.2396 99.2742 22.9392 98.5269 22.5557L97.6137 24.335ZM100.341 25.3901C101.279 25.6361 102.168 25.7666 103.001 25.7666V23.7666C102.373 23.7666 101.658 23.6679 100.848 23.4556L100.341 25.3901ZM103.001 25.7666C103.705 25.7666 104.427 25.6542 104.977 25.2514L103.796 23.6373C103.759 23.6642 103.558 23.7666 103.001 23.7666V25.7666ZM104.99 25.242C105.513 24.8465 105.827 24.2778 105.827 23.5957H103.827C103.827 23.61 103.826 23.6153 103.826 23.614C103.826 23.6123 103.828 23.6087 103.829 23.605C103.831 23.6016 103.831 23.6029 103.826 23.609C103.82 23.6155 103.808 23.6286 103.784 23.6467L104.99 25.242ZM105.827 23.5957C105.827 23.1782 105.704 22.7725 105.436 22.4257L103.853 23.6486C103.85 23.6442 103.846 23.6379 103.841 23.6298C103.837 23.6217 103.834 23.6134 103.831 23.6057C103.826 23.5892 103.827 23.5837 103.827 23.5957H105.827ZM105.465 22.466C105.242 22.145 104.926 21.8946 104.603 21.6937L103.547 23.3923C103.645 23.4531 103.714 23.5047 103.761 23.5453C103.808 23.5863 103.824 23.6084 103.824 23.6082L105.465 22.466ZM104.614 21.7003C104.28 21.4871 103.507 21.118 102.401 20.6211L101.581 22.4453C102.739 22.9654 103.355 23.2694 103.537 23.3857L104.614 21.7003ZM102.405 20.6228C101.417 20.1738 100.742 19.7675 100.328 19.4167L99.0352 20.9427C99.6524 21.4655 100.517 21.9616 101.577 22.4436L102.405 20.6228ZM100.333 19.4212C99.928 19.073 99.6428 18.6896 99.4573 18.2707L97.6287 19.0808C97.9444 19.7935 98.4183 20.4127 99.03 20.9382L100.333 19.4212ZM99.4615 18.2805C99.2836 17.8671 99.1777 17.3381 99.1777 16.667H97.1777C97.1777 17.5428 97.3153 18.3529 97.6244 19.0711L99.4615 18.2805ZM99.1777 16.667C99.1777 15.499 99.5841 14.6773 100.366 14.076L99.1474 12.4904C97.8241 13.5076 97.1777 14.9418 97.1777 16.667H99.1777ZM100.366 14.076C101.188 13.4445 102.393 13.0693 104.097 13.0693V11.0693C102.119 11.0693 100.431 11.5035 99.1474 12.4904L100.366 14.076ZM104.097 13.0693C105.564 13.0693 107.084 13.4081 108.664 14.1109L109.477 12.2836C107.676 11.4826 105.88 11.0693 104.097 11.0693V13.0693ZM108.141 12.8285L106.841 16.1049L108.7 16.8424L110 13.566L108.141 12.8285ZM108.187 15.5646C106.649 14.8594 105.233 14.4639 103.968 14.4639V16.4639C104.836 16.4639 105.955 16.7415 107.354 17.3826L108.187 15.5646ZM103.968 14.4639C103.342 14.4639 102.668 14.5654 102.154 14.9621L103.375 16.5457C103.361 16.5568 103.384 16.5335 103.488 16.5085C103.591 16.4837 103.746 16.4639 103.968 16.4639V14.4639ZM102.154 14.9621C101.687 15.322 101.389 15.8417 101.389 16.4736H103.389C103.389 16.4755 103.388 16.4847 103.385 16.4991C103.381 16.5138 103.376 16.5286 103.369 16.5419C103.354 16.5701 103.345 16.5689 103.375 16.5457L102.154 14.9621ZM101.389 16.4736C101.389 17.1784 101.768 17.7197 102.25 18.0921L103.473 16.5095C103.394 16.4485 103.374 16.4137 103.375 16.4152C103.376 16.4166 103.38 16.4245 103.384 16.4379C103.387 16.4515 103.389 16.4643 103.389 16.4736H101.389ZM102.258 18.0986C102.496 18.2783 102.864 18.4845 103.297 18.7064C103.749 18.938 104.333 19.2171 105.045 19.5424L105.876 17.7232C105.178 17.404 104.623 17.1388 104.209 16.9264C103.776 16.7043 103.549 16.5668 103.464 16.5029L102.258 18.0986ZM105.051 19.5448C106.344 20.1264 107.1 20.695 107.473 21.196L109.077 20.0013C108.405 19.0986 107.285 18.3567 105.871 17.7208L105.051 19.5448ZM107.48 21.2052C107.851 21.6909 108.07 22.3418 108.07 23.2305H110.07C110.07 21.9994 109.76 20.8956 109.07 19.9921L107.48 21.2052ZM118.427 28V29H119.427V28H118.427ZM114.184 28H113.184V29H114.184V28ZM114.184 15.7646H115.184V14.7646H114.184V15.7646ZM110.349 15.7646H109.349V16.7646H110.349V15.7646ZM110.349 12.2949V11.2949H109.349V12.2949H110.349ZM122.251 12.2949H123.251V11.2949H122.251V12.2949ZM122.251 15.7646V16.7646H123.251V15.7646H122.251ZM118.427 15.7646V14.7646H117.427V15.7646H118.427ZM118.427 27H114.184V29H118.427V27ZM115.184 28V15.7646H113.184V28H115.184ZM114.184 14.7646H110.349V16.7646H114.184V14.7646ZM111.349 15.7646V12.2949H109.349V15.7646H111.349ZM110.349 13.2949H122.251V11.2949H110.349V13.2949ZM121.251 12.2949V15.7646H123.251V12.2949H121.251ZM122.251 14.7646H118.427V16.7646H122.251V14.7646ZM117.427 15.7646V28H119.427V15.7646H117.427Z" fill="#757A9E"/>
<path d="M19.6592 24H14.6426L13.1387 17.1572C13.0671 16.8708 12.9525 16.3014 12.7949 15.4492C12.6445 14.597 12.5335 13.8844 12.4619 13.3115C12.4046 13.777 12.3115 14.3571 12.1826 15.0518C12.0537 15.7393 11.9248 16.373 11.7959 16.9531C11.6742 17.5332 11.1549 19.8822 10.2383 24H5.22168L1.33301 8.29492H5.42578L7.13379 16.1689C7.52051 17.9092 7.78548 19.2949 7.92871 20.3262C8.02181 19.5957 8.18652 18.6038 8.42285 17.3506C8.66634 16.0973 8.89193 15.0589 9.09961 14.2354L10.4854 8.29492H14.417L15.7598 14.2354C15.9889 15.1878 16.2217 16.2871 16.458 17.5332C16.6943 18.7793 16.8519 19.7103 16.9307 20.3262C17.0238 19.5312 17.278 18.1527 17.6934 16.1904L19.4336 8.29492H23.5264L19.6592 24ZM25.5566 24V8.29492H29.8213V24H25.5566ZM33.2266 24V8.29492H37.4697V20.5732H43.5176V24H33.2266ZM59.3623 15.8145C59.3623 18.4355 58.639 20.4551 57.1924 21.873C55.7529 23.291 53.7262 24 51.1123 24H46.0312V8.29492H51.4668C53.9876 8.29492 55.932 8.93945 57.2998 10.2285C58.6748 11.5176 59.3623 13.3796 59.3623 15.8145ZM54.958 15.9648C54.958 14.5254 54.6715 13.4583 54.0986 12.7637C53.5329 12.069 52.6699 11.7217 51.5098 11.7217H50.2744V20.5195H51.2197C52.5088 20.5195 53.4541 20.1471 54.0557 19.4023C54.6572 18.6504 54.958 17.5046 54.958 15.9648ZM67.9023 8.29492H73.3809C75.515 8.29492 77.0977 8.61361 78.1289 9.25098C79.1673 9.88118 79.6865 10.8659 79.6865 12.2051C79.6865 13.0859 79.4609 13.8379 79.0098 14.4609C78.5586 15.084 77.9642 15.485 77.2266 15.6641V15.7715C78.2005 16.0293 78.9059 16.459 79.3428 17.0605C79.7796 17.6621 79.998 18.4427 79.998 19.4023C79.998 20.8275 79.4609 21.9518 78.3867 22.7754C77.3197 23.5918 75.8623 24 74.0146 24H67.9023V8.29492ZM72.1455 14.3213H73.4238C74.0326 14.3213 74.5016 14.196 74.8311 13.9453C75.1676 13.6947 75.3359 13.3223 75.3359 12.8281C75.3359 11.9473 74.6699 11.5068 73.3379 11.5068H72.1455V14.3213ZM72.1455 17.4258V20.7236H73.6387C74.9635 20.7236 75.626 20.165 75.626 19.0479C75.626 18.5251 75.4469 18.124 75.0889 17.8447C74.738 17.5654 74.2259 17.4258 73.5527 17.4258H72.1455ZM92.0508 24H82.7266V8.29492H92.0508V11.7002H86.9697V14.1709H91.6748V17.5762H86.9697V20.541H92.0508V24ZM105.07 19.2305C105.07 20.2044 104.823 21.071 104.329 21.8301C103.835 22.582 103.122 23.1693 102.191 23.5918C101.26 24.0072 100.168 24.2148 98.915 24.2148C97.8695 24.2148 96.9922 24.1432 96.2832 24C95.5742 23.8496 94.8366 23.5918 94.0703 23.2266V19.4453C94.8796 19.8607 95.721 20.1865 96.5947 20.4229C97.4684 20.652 98.2705 20.7666 99.001 20.7666C99.6312 20.7666 100.093 20.6592 100.387 20.4443C100.68 20.2223 100.827 19.9395 100.827 19.5957C100.827 19.3809 100.766 19.1947 100.645 19.0371C100.53 18.8724 100.34 18.7077 100.075 18.543C99.8174 18.3783 99.1227 18.0417 97.9912 17.5332C96.9671 17.0677 96.1973 16.6165 95.6816 16.1797C95.1732 15.7428 94.7936 15.2415 94.543 14.6758C94.2995 14.11 94.1777 13.4404 94.1777 12.667C94.1777 11.2204 94.7041 10.0924 95.7568 9.2832C96.8096 8.47396 98.2562 8.06934 100.097 8.06934C101.722 8.06934 103.38 8.44531 105.07 9.19727L103.771 12.4736C102.302 11.8005 101.035 11.4639 99.9678 11.4639C99.4163 11.4639 99.0153 11.5605 98.7646 11.7539C98.514 11.9473 98.3887 12.1872 98.3887 12.4736C98.3887 12.7816 98.5462 13.0573 98.8613 13.3008C99.1836 13.5443 100.05 13.9883 101.461 14.6328C102.814 15.2415 103.753 15.8968 104.275 16.5986C104.805 17.2933 105.07 18.1706 105.07 19.2305ZM114.427 24H110.184V11.7646H106.349V8.29492H118.251V11.7646H114.427V24Z" fill="#1343EA"/>
<path d="M19.6592 24V25H20.4428L20.6302 24.2391L19.6592 24ZM14.6426 24L13.6659 24.2147L13.8385 25H14.6426V24ZM13.1387 17.1572L14.1154 16.9426L14.1123 16.9286L14.1088 16.9147L13.1387 17.1572ZM12.7949 15.4492L11.8101 15.623L11.8116 15.631L12.7949 15.4492ZM12.4619 13.3115L13.4542 13.1875L11.4694 13.1894L12.4619 13.3115ZM12.1826 15.0518L13.1655 15.236L13.1658 15.2342L12.1826 15.0518ZM11.7959 16.9531L10.8196 16.7362L10.8172 16.7477L11.7959 16.9531ZM10.2383 24V25H11.0402L11.2144 24.2173L10.2383 24ZM5.22168 24L4.25099 24.2403L4.43909 25H5.22168V24ZM1.33301 8.29492V7.29492H0.0552034L0.362321 8.53527L1.33301 8.29492ZM5.42578 8.29492L6.40305 8.08294L6.23212 7.29492H5.42578V8.29492ZM7.13379 16.1689L6.1565 16.3809L6.1576 16.3859L7.13379 16.1689ZM7.92871 20.3262L6.93822 20.4637L8.92069 20.4526L7.92871 20.3262ZM8.42285 17.3506L7.44119 17.1599L7.44017 17.1653L8.42285 17.3506ZM9.09961 14.2354L10.0693 14.4799L10.0714 14.4712L10.0735 14.4625L9.09961 14.2354ZM10.4854 8.29492V7.29492H9.69178L9.5115 8.06775L10.4854 8.29492ZM14.417 8.29492L15.3924 8.07444L15.2162 7.29492H14.417V8.29492ZM15.7598 14.2354L14.7843 14.4558L14.7875 14.4693L15.7598 14.2354ZM16.9307 20.3262L15.9387 20.453L17.9239 20.4425L16.9307 20.3262ZM17.6934 16.1904L16.7168 15.9752L16.715 15.9833L17.6934 16.1904ZM19.4336 8.29492V7.29492H18.63L18.457 8.07968L19.4336 8.29492ZM23.5264 8.29492L24.4974 8.53402L24.8025 7.29492H23.5264V8.29492ZM19.6592 23H14.6426V25H19.6592V23ZM15.6193 23.7853L14.1154 16.9426L12.162 17.3719L13.6659 24.2147L15.6193 23.7853ZM14.1088 16.9147C14.046 16.6633 13.9367 16.1242 13.7783 15.2674L11.8116 15.631C11.9683 16.4786 12.0882 17.0783 12.1685 17.3998L14.1088 16.9147ZM13.7797 15.2754C13.6309 14.4325 13.523 13.7378 13.4542 13.1875L11.4696 13.4356C11.5441 14.0311 11.6581 14.7615 11.8101 15.623L13.7797 15.2754ZM11.4694 13.1894C11.4155 13.6273 11.3263 14.1857 11.1994 14.8693L13.1658 15.2342C13.2968 14.5285 13.3937 13.9267 13.4544 13.4337L11.4694 13.1894ZM11.1997 14.8675C11.0725 15.5459 10.9458 16.1687 10.8197 16.7362L12.7721 17.1701C12.9038 16.5774 13.0349 15.9326 13.1655 15.236L11.1997 14.8675ZM10.8172 16.7477C10.6971 17.3201 10.1798 19.6606 9.26217 23.7827L11.2144 24.2173C12.1301 20.1037 12.6512 17.7463 12.7746 17.1585L10.8172 16.7477ZM10.2383 23H5.22168V25H10.2383V23ZM6.19237 23.7597L2.30369 8.05457L0.362321 8.53527L4.25099 24.2403L6.19237 23.7597ZM1.33301 9.29492H5.42578V7.29492H1.33301V9.29492ZM4.44851 8.50691L6.15652 16.3809L8.11106 15.957L6.40305 8.08294L4.44851 8.50691ZM6.1576 16.3859C6.54196 18.1155 6.80038 19.4713 6.93822 20.4637L8.9192 20.1886C8.77059 19.1186 8.49906 17.7029 8.10998 15.952L6.1576 16.3859ZM8.92069 20.4526C9.01011 19.751 9.17065 18.7815 9.40553 17.5359L7.44017 17.1653C7.2024 18.4262 7.03351 19.4404 6.93674 20.1997L8.92069 20.4526ZM9.4045 17.5413C9.64603 16.2981 9.86769 15.2792 10.0693 14.4799L8.12996 13.9908C7.91616 14.8387 7.68665 15.8966 7.44121 17.1599L9.4045 17.5413ZM10.0735 14.4625L11.4592 8.5221L9.5115 8.06775L8.12576 14.0082L10.0735 14.4625ZM10.4854 9.29492H14.417V7.29492H10.4854V9.29492ZM13.4416 8.5154L14.7844 14.4558L16.7352 14.0149L15.3924 8.07444L13.4416 8.5154ZM14.7875 14.4693C15.012 15.4022 15.2414 16.485 15.4755 17.7195L17.4405 17.3469C17.202 16.0892 16.9659 14.9735 16.732 14.0014L14.7875 14.4693ZM15.4755 17.7195C15.7111 18.9618 15.864 19.8684 15.9387 20.453L17.9226 20.1993C17.8398 19.5522 17.6776 18.5968 17.4405 17.3469L15.4755 17.7195ZM17.9239 20.4425C18.011 19.6986 18.256 18.3611 18.6717 16.3975L16.715 15.9833C16.3 17.9442 16.0365 19.3639 15.9375 20.2099L17.9239 20.4425ZM18.6699 16.4057L20.4102 8.51016L18.457 8.07968L16.7168 15.9752L18.6699 16.4057ZM19.4336 9.29492H23.5264V7.29492H19.4336V9.29492ZM22.5554 8.05583L18.6882 23.7609L20.6302 24.2391L24.4974 8.53402L22.5554 8.05583ZM25.5566 24H24.5566V25H25.5566V24ZM25.5566 8.29492V7.29492H24.5566V8.29492H25.5566ZM29.8213 8.29492H30.8213V7.29492H29.8213V8.29492ZM29.8213 24V25H30.8213V24H29.8213ZM26.5566 24V8.29492H24.5566V24H26.5566ZM25.5566 9.29492H29.8213V7.29492H25.5566V9.29492ZM28.8213 8.29492V24H30.8213V8.29492H28.8213ZM29.8213 23H25.5566V25H29.8213V23ZM33.2266 24H32.2266V25H33.2266V24ZM33.2266 8.29492V7.29492H32.2266V8.29492H33.2266ZM37.4697 8.29492H38.4697V7.29492H37.4697V8.29492ZM37.4697 20.5732H36.4697V21.5732H37.4697V20.5732ZM43.5176 20.5732H44.5176V19.5732H43.5176V20.5732ZM43.5176 24V25H44.5176V24H43.5176ZM34.2266 24V8.29492H32.2266V24H34.2266ZM33.2266 9.29492H37.4697V7.29492H33.2266V9.29492ZM36.4697 8.29492V20.5732H38.4697V8.29492H36.4697ZM37.4697 21.5732H43.5176V19.5732H37.4697V21.5732ZM42.5176 20.5732V24H44.5176V20.5732H42.5176ZM43.5176 23H33.2266V25H43.5176V23ZM57.1924 21.873L56.4924 21.1589L56.4906 21.1606L57.1924 21.873ZM46.0312 24H45.0312V25H46.0312V24ZM46.0312 8.29492V7.29492H45.0312V8.29492H46.0312ZM57.2998 10.2285L56.614 10.9563L56.6159 10.9581L57.2998 10.2285ZM54.0986 12.7637L53.3232 13.3952L53.3272 13.3999L54.0986 12.7637ZM50.2744 11.7217V10.7217H49.2744V11.7217H50.2744ZM50.2744 20.5195H49.2744V21.5195H50.2744V20.5195ZM54.0557 19.4023L54.8336 20.0307L54.8365 20.027L54.0557 19.4023ZM58.3623 15.8145C58.3623 18.2496 57.6952 19.9799 56.4924 21.1589L57.8924 22.5872C59.5828 20.9302 60.3623 18.6215 60.3623 15.8145H58.3623ZM56.4906 21.1606C55.2886 22.3447 53.544 23 51.1123 23V25C53.9085 25 56.2173 24.2373 57.8942 22.5854L56.4906 21.1606ZM51.1123 23H46.0312V25H51.1123V23ZM47.0312 24V8.29492H45.0312V24H47.0312ZM46.0312 9.29492H51.4668V7.29492H46.0312V9.29492ZM51.4668 9.29492C53.8216 9.29492 55.4876 9.89475 56.614 10.9563L57.9856 9.50076C56.3764 7.98415 54.1537 7.29492 51.4668 7.29492V9.29492ZM56.6159 10.9581C57.7345 12.0068 58.3623 13.5708 58.3623 15.8145H60.3623C60.3623 13.1883 59.6151 11.0284 57.9837 9.49898L56.6159 10.9581ZM55.958 15.9648C55.958 14.4235 55.6565 13.081 54.8701 12.1274L53.3272 13.3999C53.6866 13.8357 53.958 14.6273 53.958 15.9648H55.958ZM54.874 12.1322C54.0652 11.139 52.8749 10.7217 51.5098 10.7217V12.7217C52.465 12.7217 53.0006 12.999 53.3233 13.3952L54.874 12.1322ZM51.5098 10.7217H50.2744V12.7217H51.5098V10.7217ZM49.2744 11.7217V20.5195H51.2744V11.7217H49.2744ZM50.2744 21.5195H51.2197V19.5195H50.2744V21.5195ZM51.2197 21.5195C52.6993 21.5195 53.9817 21.0854 54.8336 20.0307L53.2777 18.774C52.9265 19.2088 52.3183 19.5195 51.2197 19.5195V21.5195ZM54.8365 20.027C55.6429 19.0191 55.958 17.6047 55.958 15.9648H53.958C53.958 17.4044 53.6716 18.2817 53.2748 18.7776L54.8365 20.027ZM67.9023 8.29492V7.29492H66.9023V8.29492H67.9023ZM78.1289 9.25098L77.6031 10.1016L77.6101 10.1059L78.1289 9.25098ZM77.2266 15.6641L76.9907 14.6923L76.2266 14.8777V15.6641H77.2266ZM77.2266 15.7715H76.2266V16.5412L76.9707 16.7382L77.2266 15.7715ZM78.3867 22.7754L78.9944 23.5696L78.9951 23.569L78.3867 22.7754ZM67.9023 24H66.9023V25H67.9023V24ZM72.1455 14.3213H71.1455V15.3213H72.1455V14.3213ZM74.8311 13.9453L74.2338 13.1432L74.2255 13.1495L74.8311 13.9453ZM72.1455 11.5068V10.5068H71.1455V11.5068H72.1455ZM72.1455 17.4258V16.4258H71.1455V17.4258H72.1455ZM72.1455 20.7236H71.1455V21.7236H72.1455V20.7236ZM75.0889 17.8447L74.4661 18.6272L74.4738 18.6332L75.0889 17.8447ZM67.9023 9.29492H73.3809V7.29492H67.9023V9.29492ZM73.3809 9.29492C75.4523 9.29492 76.8092 9.61092 77.6032 10.1016L78.6546 8.40033C77.3861 7.61629 75.5777 7.29492 73.3809 7.29492V9.29492ZM77.6101 10.1059C78.3147 10.5335 78.6865 11.1724 78.6865 12.2051H80.6865C80.6865 10.5594 80.0199 9.22886 78.6477 8.3961L77.6101 10.1059ZM78.6865 12.2051C78.6865 12.907 78.51 13.446 78.1998 13.8744L79.8197 15.0474C80.4118 14.2298 80.6865 13.2648 80.6865 12.2051H78.6865ZM78.1998 13.8744C77.8861 14.3077 77.4939 14.5701 76.9907 14.6923L77.4624 16.6358C78.4345 16.3999 79.2311 15.8602 79.8197 15.0474L78.1998 13.8744ZM76.2266 15.6641V15.7715H78.2266V15.6641H76.2266ZM76.9707 16.7382C77.8009 16.958 78.2733 17.2896 78.5336 17.6481L80.1519 16.4729C79.5386 15.6283 78.6001 15.1006 77.4825 14.8048L76.9707 16.7382ZM78.5336 17.6481C78.8146 18.0351 78.998 18.5924 78.998 19.4023H80.998C80.998 18.293 80.7446 17.2891 80.1519 16.4729L78.5336 17.6481ZM78.998 19.4023C78.998 20.5356 78.5909 21.3588 77.7783 21.9818L78.9951 23.569C80.331 22.5448 80.998 21.1194 80.998 19.4023H78.998ZM77.7791 21.9812C76.9415 22.622 75.7238 23 74.0146 23V25C76.0008 25 77.6978 24.5616 78.9944 23.5696L77.7791 21.9812ZM74.0146 23H67.9023V25H74.0146V23ZM68.9023 24V8.29492H66.9023V24H68.9023ZM72.1455 15.3213H73.4238V13.3213H72.1455V15.3213ZM73.4238 15.3213C74.1525 15.3213 74.8681 15.1737 75.4366 14.7411L74.2255 13.1495C74.1351 13.2183 73.9126 13.3213 73.4238 13.3213V15.3213ZM75.4283 14.7474C76.0653 14.273 76.3359 13.5747 76.3359 12.8281H74.3359C74.3359 13.0698 74.27 13.1163 74.2338 13.1433L75.4283 14.7474ZM76.3359 12.8281C76.3359 12.0929 76.0335 11.4299 75.388 11.003C74.8151 10.6242 74.0824 10.5068 73.3379 10.5068V12.5068C73.9254 12.5068 74.1918 12.6097 74.2848 12.6713C74.3037 12.6837 74.3119 12.6922 74.3144 12.6949C74.3165 12.6973 74.3172 12.6985 74.3181 12.7002C74.3188 12.7015 74.3359 12.7347 74.3359 12.8281H76.3359ZM73.3379 10.5068H72.1455V12.5068H73.3379V10.5068ZM71.1455 11.5068V14.3213H73.1455V11.5068H71.1455ZM71.1455 17.4258V20.7236H73.1455V17.4258H71.1455ZM72.1455 21.7236H73.6387V19.7236H72.1455V21.7236ZM73.6387 21.7236C74.4176 21.7236 75.1882 21.563 75.7738 21.0692C76.3921 20.5478 76.626 19.8095 76.626 19.0479H74.626C74.626 19.4034 74.5286 19.503 74.4845 19.5402C74.4077 19.605 74.1846 19.7236 73.6387 19.7236V21.7236ZM76.626 19.0479C76.626 18.2696 76.3436 17.5552 75.7039 17.0562L74.4738 18.6332C74.5502 18.6928 74.626 18.7805 74.626 19.0479H76.626ZM75.7116 17.0623C75.1143 16.5869 74.3437 16.4258 73.5527 16.4258V18.4258C74.1082 18.4258 74.3616 18.544 74.4661 18.6272L75.7116 17.0623ZM73.5527 16.4258H72.1455V18.4258H73.5527V16.4258ZM92.0508 24V25H93.0508V24H92.0508ZM82.7266 24H81.7266V25H82.7266V24ZM82.7266 8.29492V7.29492H81.7266V8.29492H82.7266ZM92.0508 8.29492H93.0508V7.29492H92.0508V8.29492ZM92.0508 11.7002V12.7002H93.0508V11.7002H92.0508ZM86.9697 11.7002V10.7002H85.9697V11.7002H86.9697ZM86.9697 14.1709H85.9697V15.1709H86.9697V14.1709ZM91.6748 14.1709H92.6748V13.1709H91.6748V14.1709ZM91.6748 17.5762V18.5762H92.6748V17.5762H91.6748ZM86.9697 17.5762V16.5762H85.9697V17.5762H86.9697ZM86.9697 20.541H85.9697V21.541H86.9697V20.541ZM92.0508 20.541H93.0508V19.541H92.0508V20.541ZM92.0508 23H82.7266V25H92.0508V23ZM83.7266 24V8.29492H81.7266V24H83.7266ZM82.7266 9.29492H92.0508V7.29492H82.7266V9.29492ZM91.0508 8.29492V11.7002H93.0508V8.29492H91.0508ZM92.0508 10.7002H86.9697V12.7002H92.0508V10.7002ZM85.9697 11.7002V14.1709H87.9697V11.7002H85.9697ZM86.9697 15.1709H91.6748V13.1709H86.9697V15.1709ZM90.6748 14.1709V17.5762H92.6748V14.1709H90.6748ZM91.6748 16.5762H86.9697V18.5762H91.6748V16.5762ZM85.9697 17.5762V20.541H87.9697V17.5762H85.9697ZM86.9697 21.541H92.0508V19.541H86.9697V21.541ZM91.0508 20.541V24H93.0508V20.541H91.0508ZM104.329 21.8301L105.165 22.3793L105.167 22.3756L104.329 21.8301ZM102.191 23.5918L102.599 24.505L102.605 24.5024L102.191 23.5918ZM96.2832 24L96.0757 24.9783L96.0852 24.9802L96.2832 24ZM94.0703 23.2266H93.0703V23.8577L93.6401 24.1293L94.0703 23.2266ZM94.0703 19.4453L94.5269 18.5557L93.0703 17.808V19.4453H94.0703ZM96.5947 20.4229L96.3336 21.3882L96.341 21.3901L96.5947 20.4229ZM100.387 20.4443L100.977 21.2514L100.984 21.2467L100.99 21.242L100.387 20.4443ZM100.645 19.0371L99.8236 19.6082L99.8379 19.6287L99.8532 19.6486L100.645 19.0371ZM100.075 18.543L99.5368 19.3857L99.5473 19.3923L100.075 18.543ZM97.9912 17.5332L97.5774 18.4436L97.5813 18.4453L97.9912 17.5332ZM95.6816 16.1797L95.03 16.9382L95.0352 16.9427L95.6816 16.1797ZM94.543 14.6758L93.6244 15.0711L93.6287 15.0808L94.543 14.6758ZM105.07 9.19727L106 9.56603L106.354 8.6738L105.477 8.28361L105.07 9.19727ZM103.771 12.4736L103.354 13.3826L104.311 13.8218L104.7 12.8424L103.771 12.4736ZM98.7646 11.7539L98.1538 10.9621L98.7646 11.7539ZM98.8613 13.3008L98.2498 14.0921L98.2585 14.0986L98.8613 13.3008ZM101.461 14.6328L101.045 15.5424L101.051 15.5448L101.461 14.6328ZM104.275 16.5986L103.473 17.1961L103.48 17.2052L104.275 16.5986ZM104.07 19.2305C104.07 20.026 103.871 20.7001 103.491 21.2845L105.167 22.3756C105.775 21.4419 106.07 20.3829 106.07 19.2305H104.07ZM103.493 21.2809C103.117 21.8541 102.561 22.3259 101.778 22.6812L102.605 24.5024C103.684 24.0127 104.553 23.3099 105.165 22.3793L103.493 21.2809ZM101.784 22.6786C101.007 23.0252 100.059 23.2148 98.915 23.2148V25.2148C100.277 25.2148 101.514 24.9891 102.599 24.505L101.784 22.6786ZM98.915 23.2148C97.9093 23.2148 97.1033 23.1455 96.4812 23.0198L96.0852 24.9802C96.8811 25.141 97.8296 25.2148 98.915 25.2148V23.2148ZM96.4907 23.0218C95.8705 22.8902 95.2076 22.6608 94.5006 22.3239L93.6401 24.1293C94.4656 24.5227 95.278 24.809 96.0757 24.9782L96.4907 23.0218ZM95.0703 23.2266V19.4453H93.0703V23.2266H95.0703ZM93.6137 20.335C94.485 20.7822 95.3919 21.1334 96.3336 21.3882L96.8558 19.4575C96.0501 19.2396 95.2742 18.9392 94.5269 18.5557L93.6137 20.335ZM96.341 21.3901C97.2789 21.6361 98.1675 21.7666 99.001 21.7666V19.7666C98.3735 19.7666 97.658 19.6679 96.8484 19.4556L96.341 21.3901ZM99.001 21.7666C99.7048 21.7666 100.427 21.6542 100.977 21.2514L99.7962 19.6373C99.7595 19.6642 99.5576 19.7666 99.001 19.7666V21.7666ZM100.99 21.242C101.513 20.8465 101.827 20.2778 101.827 19.5957H99.8271C99.8271 19.61 99.8257 19.6153 99.826 19.614C99.8264 19.6123 99.8276 19.6087 99.8295 19.605C99.8313 19.6016 99.8312 19.6029 99.8258 19.609C99.8202 19.6155 99.8075 19.6286 99.7836 19.6467L100.99 21.242ZM101.827 19.5957C101.827 19.1782 101.704 18.7725 101.436 18.4257L99.8532 19.6486C99.8499 19.6442 99.8456 19.6379 99.8413 19.6298C99.837 19.6217 99.8335 19.6134 99.831 19.6057C99.8256 19.5892 99.8271 19.5837 99.8271 19.5957H101.827ZM101.465 18.466C101.242 18.145 100.926 17.8946 100.603 17.6937L99.5473 19.3923C99.6451 19.4531 99.714 19.5047 99.7608 19.5453C99.8081 19.5863 99.8238 19.6084 99.8236 19.6082L101.465 18.466ZM100.614 17.7003C100.28 17.4871 99.5069 17.118 98.4011 16.6211L97.5813 18.4453C98.7386 18.9654 99.3548 19.2694 99.5368 19.3857L100.614 17.7003ZM98.405 16.6228C97.4171 16.1738 96.7422 15.7675 96.3281 15.4167L95.0352 16.9427C95.6524 17.4655 96.5171 17.9616 97.5774 18.4436L98.405 16.6228ZM96.3333 15.4212C95.928 15.073 95.6428 14.6896 95.4573 14.2707L93.6287 15.0808C93.9444 15.7935 94.4183 16.4127 95.03 16.9382L96.3333 15.4212ZM95.4615 14.2805C95.2836 13.8671 95.1777 13.3381 95.1777 12.667H93.1777C93.1777 13.5428 93.3153 14.3529 93.6244 15.0711L95.4615 14.2805ZM95.1777 12.667C95.1777 11.499 95.5841 10.6773 96.3663 10.076L95.1474 8.49038C93.8241 9.5076 93.1777 10.9418 93.1777 12.667H95.1777ZM96.3663 10.076C97.1879 9.44445 98.393 9.06934 100.097 9.06934V7.06934C98.1194 7.06934 96.4312 7.50346 95.1474 8.49038L96.3663 10.076ZM100.097 9.06934C101.564 9.06934 103.084 9.40806 104.664 10.1109L105.477 8.28361C103.676 7.48257 101.88 7.06934 100.097 7.06934V9.06934ZM104.141 8.8285L102.841 12.1049L104.7 12.8424L106 9.56603L104.141 8.8285ZM104.187 11.5646C102.649 10.8594 101.233 10.4639 99.9678 10.4639V12.4639C100.836 12.4639 101.955 12.7415 103.354 13.3826L104.187 11.5646ZM99.9678 10.4639C99.3422 10.4639 98.6681 10.5654 98.1538 10.9621L99.3755 12.5457C99.3611 12.5568 99.3844 12.5335 99.4878 12.5085C99.5908 12.4837 99.7464 12.4639 99.9678 12.4639V10.4639ZM98.1538 10.9621C97.6873 11.322 97.3887 11.8417 97.3887 12.4736H99.3887C99.3887 12.4755 99.3884 12.4847 99.385 12.4991C99.3815 12.5138 99.3759 12.5286 99.369 12.5419C99.3543 12.5701 99.3454 12.5689 99.3755 12.5457L98.1538 10.9621ZM97.3887 12.4736C97.3887 13.1784 97.7681 13.7197 98.2499 14.0921L99.4728 12.5095C99.3939 12.4485 99.3742 12.4137 99.3751 12.4152C99.3759 12.4166 99.38 12.4245 99.3837 12.4379C99.3873 12.4515 99.3887 12.4643 99.3887 12.4736H97.3887ZM98.2585 14.0986C98.4963 14.2783 98.8638 14.4845 99.2969 14.7064C99.7489 14.938 100.333 15.2171 101.045 15.5424L101.876 13.7232C101.178 13.404 100.623 13.1388 100.209 12.9264C99.7755 12.7043 99.5487 12.5668 99.4642 12.5029L98.2585 14.0986ZM101.051 15.5448C102.344 16.1264 103.1 16.695 103.473 17.196L105.077 16.0013C104.405 15.0986 103.285 14.3567 101.871 13.7208L101.051 15.5448ZM103.48 17.2052C103.851 17.6909 104.07 18.3418 104.07 19.2305H106.07C106.07 17.9994 105.76 16.8956 105.07 15.9921L103.48 17.2052ZM114.427 24V25H115.427V24H114.427ZM110.184 24H109.184V25H110.184V24ZM110.184 11.7646H111.184V10.7646H110.184V11.7646ZM106.349 11.7646H105.349V12.7646H106.349V11.7646ZM106.349 8.29492V7.29492H105.349V8.29492H106.349ZM118.251 8.29492H119.251V7.29492H118.251V8.29492ZM118.251 11.7646V12.7646H119.251V11.7646H118.251ZM114.427 11.7646V10.7646H113.427V11.7646H114.427ZM114.427 23H110.184V25H114.427V23ZM111.184 24V11.7646H109.184V24H111.184ZM110.184 10.7646H106.349V12.7646H110.184V10.7646ZM107.349 11.7646V8.29492H105.349V11.7646H107.349ZM106.349 9.29492H118.251V7.29492H106.349V9.29492ZM117.251 8.29492V11.7646H119.251V8.29492H117.251ZM118.251 10.7646H114.427V12.7646H118.251V10.7646ZM113.427 11.7646V24H115.427V11.7646H113.427Z" fill="white"/>
</svg>
