<?xml version="1.0" standalone="no"?>
<!DOCTYPE svg PUBLIC "-//W3C//DTD SVG 20010904//EN"
 "http://www.w3.org/TR/2001/REC-SVG-20010904/DTD/svg10.dtd">
<svg version="1.0" xmlns="http://www.w3.org/2000/svg"
     width="124" height="44" viewBox="0 0 1280.000000 1280.000000"
 preserveAspectRatio="xMidYMid meet">

<g transform="translate(0.000000,1280.000000) scale(0.100000,-0.100000)"
fill="#000000" stroke="none">
<path fill="#1343EA" d="M4630 10043 c-207 -35 -417 -159 -539 -320 -66 -87 -153 -263 -185
-376 -85 -295 -51 -611 97 -889 94 -179 232 -358 401 -520 l101 -98 -114 -112
c-167 -166 -295 -333 -391 -511 -176 -326 -185 -730 -25 -1065 86 -180 175
-287 315 -381 95 -63 159 -91 284 -123 66 -17 101 -19 220 -16 187 7 294 41
454 144 76 50 897 865 973 967 111 148 156 274 165 457 12 243 -55 449 -193
592 l-46 46 38 39 c142 145 213 357 202 603 -9 198 -76 356 -223 524 -39 44
-248 256 -465 470 -272 268 -416 404 -466 436 -147 97 -299 141 -475 139 -57
-1 -114 -4 -128 -6z m265 -338 c133 -35 149 -48 626 -525 475 -475 490 -492
525 -624 28 -103 11 -264 -36 -360 -32 -63 -112 -137 -196 -179 -134 -68 -174
-150 -124 -253 23 -46 45 -64 132 -106 116 -55 192 -151 223 -280 38 -163 9
-303 -90 -438 -50 -67 -852 -862 -908 -900 -78 -52 -149 -73 -265 -78 -87 -4
-113 -1 -173 18 -90 29 -172 82 -232 151 -58 64 -139 227 -162 322 -38 157
-29 330 24 484 78 225 313 522 565 712 74 55 103 84 117 115 45 99 15 167
-114 263 -224 166 -469 463 -553 671 -48 120 -59 178 -58 327 1 122 4 151 28
230 89 294 283 464 531 465 45 0 107 -7 140 -15z"/>
<path fill="#1343EA" d="M4715 9373 c-60 -15 -120 -90 -156 -195 -26 -78 -30 -218 -7 -294 54
-175 251 -424 465 -585 108 -82 173 -151 207 -222 75 -154 75 -319 0 -472 -43
-87 -77 -124 -212 -229 -164 -127 -294 -273 -395 -438 -106 -176 -108 -395 -4
-551 53 -79 151 -110 224 -69 30 16 809 783 854 840 15 19 19 41 19 98 l0 74
-77 38 c-141 68 -245 188 -287 331 -21 71 -21 211 0 282 41 140 142 258 282
328 l82 41 0 77 0 77 -417 419 c-279 280 -431 425 -458 438 -39 18 -78 22
-120 12z"/>
<path fill="#1343EA" d="M7836 10019 c-97 -24 -223 -82 -296 -138 -77 -58 -901 -882 -962
-961 -111 -145 -158 -291 -158 -492 0 -240 58 -409 191 -553 l40 -44 -61 -73
c-104 -123 -154 -252 -169 -435 -19 -220 24 -391 138 -556 52 -74 882 -913
971 -980 148 -112 314 -166 508 -167 394 0 704 238 844 650 41 121 59 236 59
380 -1 266 -65 466 -229 711 -91 135 -206 272 -320 381 l-91 86 127 129 c251
252 407 498 478 753 35 127 45 379 20 510 -79 419 -333 715 -688 800 -111 27
-291 26 -402 -1z m345 -325 c200 -59 350 -238 410 -489 18 -76 20 -111 16
-225 -4 -116 -9 -148 -36 -231 -69 -212 -296 -512 -521 -689 -174 -137 -186
-152 -178 -245 6 -70 23 -94 124 -170 43 -32 135 -116 204 -185 185 -186 315
-378 372 -549 31 -92 32 -103 33 -256 0 -184 -10 -233 -81 -381 -50 -106 -121
-189 -208 -246 -164 -106 -394 -105 -553 2 -69 46 -894 869 -937 934 -58 88
-76 153 -76 269 0 220 69 338 247 423 88 41 124 84 131 154 9 96 -23 143 -132
195 -102 48 -158 101 -203 192 -36 72 -37 80 -41 198 -4 107 -1 131 18 189 12
36 41 92 64 124 45 60 865 881 913 914 50 34 102 58 156 73 72 19 211 19 278
-1z"/>
<path fill="#1343EA" d="M7970 9354 c-36 -15 -796 -764 -851 -838 -25 -33 -29 -48 -29 -101 0
-72 3 -76 102 -124 141 -67 251 -216 279 -375 38 -220 -78 -448 -277 -545
-100 -49 -104 -53 -104 -126 0 -53 4 -68 29 -101 16 -21 206 -215 422 -431
266 -265 406 -397 431 -408 87 -36 173 -3 226 85 94 158 94 354 -1 521 -99
173 -248 339 -425 473 -158 119 -220 217 -244 386 -26 178 58 371 209 481 208
152 388 353 482 536 49 97 63 237 35 346 -18 70 -63 164 -91 189 -50 46 -131
59 -193 32z"/>
<path fill="#1343EA" d="M790 4323 c0 -27 502 -1509 517 -1525 31 -35 77 -48 172 -48 101 0
161 18 185 55 13 20 60 170 252 805 25 85 50 158 53 163 4 4 72 -207 151 -469
81 -267 153 -488 164 -502 11 -13 34 -31 52 -38 35 -15 176 -19 233 -8 49 10
83 52 113 140 76 227 468 1420 468 1427 0 11 -339 8 -381 -3 -69 -19 -80 -41
-172 -355 -77 -261 -109 -391 -151 -595 l-13 -65 -12 60 c-50 243 -202 828
-229 884 -33 68 -57 76 -210 76 -90 0 -148 -4 -168 -13 -56 -24 -63 -44 -174
-477 -38 -148 -80 -326 -95 -395 -14 -68 -27 -125 -29 -127 -1 -1 -11 41 -21
95 -29 159 -61 282 -147 571 -88 295 -101 323 -166 341 -42 11 -392 14 -392 3z"/>
<path fill="#1343EA" d="M3390 3541 l0 -791 195 0 195 0 0 738 c0 713 -1 738 -20 769 -37 61
-58 68 -222 71 l-148 4 0 -791z"/>
<path fill="#1343EA" d="M4017 4323 c-4 -3 -7 -359 -7 -790 l0 -783 510 0 510 0 0 185 0 185
-310 0 -309 0 -3 558 -3 557 -22 31 c-36 51 -85 64 -232 64 -70 0 -131 -3
-134 -7z"/>
<path fill="#1343EA" d="M5267 4323 c-4 -3 -7 -359 -7 -790 l0 -783 293 0 c437 1 557 18 721
103 112 57 236 181 293 293 70 135 88 213 88 394 0 175 -12 236 -70 357 -45
96 -87 155 -156 223 -110 107 -264 179 -429 199 -91 12 -722 15 -733 4z m633
-353 c249 -47 389 -287 325 -559 -29 -122 -98 -212 -202 -264 -80 -40 -161
-53 -315 -48 l-48 1 0 440 0 440 94 0 c51 0 117 -4 146 -10z"/>
<path fill="#1343EA" d="M6898 4324 c-5 -4 -8 -360 -8 -791 l0 -784 398 4 c340 3 406 6 457
21 204 60 310 167 337 342 21 132 -14 235 -112 328 -64 61 -115 90 -196 111
-31 8 -59 16 -61 18 -2 2 16 9 39 16 97 28 199 117 241 209 33 70 31 217 -3
287 -48 100 -157 180 -296 221 -49 14 -118 17 -424 21 -201 3 -368 1 -372 -3z
m611 -342 c52 -27 81 -74 81 -132 0 -101 -82 -162 -222 -164 l-80 -1 2 154 c0
85 4 159 7 164 10 16 171 0 212 -21z m-11 -597 c98 -29 150 -100 139 -190 -10
-92 -82 -143 -216 -152 -43 -3 -91 -3 -105 1 l-26 6 0 175 0 175 78 0 c43 0
102 -7 130 -15z"/>
<path fill="#1343EA" d="M8320 3540 l0 -790 465 0 465 0 0 185 0 185 -267 2 -268 3 0 125 0
125 278 3 277 2 0 170 0 170 -280 0 -281 0 3 118 3 117 268 3 267 2 0 121 c0
132 -8 159 -60 202 -17 15 -47 31 -68 37 -22 6 -187 10 -419 10 l-383 0 0
-790z"/>
<path fill="#1343EA" d="M9950 4320 c-163 -23 -290 -90 -372 -198 -63 -83 -88 -165 -88 -286
0 -239 112 -359 429 -463 125 -41 147 -52 185 -91 40 -43 39 -96 -3 -134 l-31
-28 -280 0 -280 0 0 -185 0 -185 278 0 c152 0 310 5 351 10 86 11 166 45 230
98 124 101 171 202 171 367 0 162 -50 274 -161 357 -76 57 -114 74 -289 135
-172 58 -200 78 -200 139 0 46 14 70 50 89 23 12 75 15 270 15 l240 0 0 144
c0 136 -1 146 -22 169 -13 14 -39 30 -58 37 -44 15 -333 22 -420 10z"/>
<path fill="#1343EA" d="M10690 4145 l0 -185 233 -2 232 -3 3 -602 2 -603 195 0 195 0 0 605
0 605 236 0 236 0 -4 123 c-3 114 -5 127 -30 164 -53 81 -26 78 -700 81 l-598
3 0 -186z"/>
</g>
</svg>
