<svg width="80" height="80" viewBox="0 0 80 80" fill="none" xmlns="http://www.w3.org/2000/svg">
<g clip-path="url(#clip0)">
<path d="M68.3315 11.6565C53.4175 -3.88519 26.5857 -3.88598 11.6724 11.657C-3.40361 26.1375 -3.92319 51.9418 10.4784 67.0668C10.9168 67.5444 11.6592 67.576 12.1368 67.138C12.6145 66.6996 12.6463 65.9572 12.2081 65.4795C-9.89163 41.4832 7.36783 2.18513 40.0023 2.2698C60.2742 1.85179 78.1382 19.7125 77.718 39.9865C77.8684 71.2727 41.0894 89.0937 16.6356 69.5935C16.1271 69.1916 15.3889 69.2778 14.9869 69.7866C14.585 70.2952 14.6714 71.0333 15.18 71.4353C30.5028 83.9847 54.5725 82.5747 68.3313 68.3155C83.8732 53.4037 83.874 26.5685 68.3315 11.6565Z" fill="#0A0D27"/>
<path d="M40.0018 69.8776C33.3101 69.8776 27.2757 67.4747 25.044 65.9599C24.5079 65.5961 23.7778 65.7356 23.4138 66.272C23.0498 66.8083 23.1894 67.5382 23.7258 67.9022C44.294 80.2249 72.4312 65.0539 72.2407 39.9858C72.241 22.2096 57.7785 7.74707 40.002 7.74707C39.3538 7.74707 38.8283 8.2726 38.8283 8.92082C38.8283 9.56904 39.3538 10.0946 40.002 10.0946C79.6059 11.5988 79.5887 68.3821 40.0018 69.8776Z" fill="#0A0D27"/>
<path d="M21.6876 39.9957C21.3375 41.3023 21.7115 42.6263 22.7136 43.6282L31.8113 52.7258C33.3168 54.2314 35.8723 54.2347 37.3813 52.7258L50.6154 39.4919C51.0738 39.0335 51.0738 38.2903 50.6154 37.8321C50.157 37.3737 49.4138 37.3737 48.9556 37.8321L35.7214 51.066C35.1075 51.6798 34.0852 51.6798 33.4713 51.066L24.3736 41.9684C23.0075 40.6023 25.2333 38.3278 26.6236 39.7182L33.7663 46.8609C34.2247 47.3192 34.9679 47.3192 35.4261 46.8609L53.3804 28.9065C54.0348 28.2524 54.9529 28.3599 55.5816 28.9887C55.7667 29.1738 56.6389 30.1482 55.6304 31.1567L53.3437 33.4435C52.8853 33.9019 52.8853 34.6451 53.3437 35.1033C53.802 35.5617 54.5453 35.5617 55.0035 35.1033L57.2903 32.8165C60.8372 29.1364 55.3933 23.7369 51.7204 27.2466L34.596 44.3708L28.2833 38.058C26.1198 35.8949 22.4546 37.1331 21.6876 39.9957Z" fill="#0A0D27"/>
<path d="M31.9917 8.71655C30.4812 8.71655 30.4787 11.0641 31.9917 11.0641C33.5023 11.0641 33.5048 8.71655 31.9917 8.71655Z" fill="#0A0D27"/>
<path d="M24.4753 11.8154C22.9648 11.8154 22.9623 14.1629 24.4753 14.1629C25.9859 14.1629 25.9884 11.8154 24.4753 11.8154Z" fill="#0A0D27"/>
<path d="M18.0171 19.1012C19.5276 19.1012 19.5301 16.7537 18.0171 16.7537C16.5065 16.7537 16.504 19.1012 18.0171 19.1012Z" fill="#0A0D27"/>
<path d="M13.0569 23.1953C11.5464 23.1953 11.5439 25.5428 13.0569 25.5428C14.5674 25.5428 14.5699 23.1953 13.0569 23.1953Z" fill="#0A0D27"/>
<path d="M9.93304 30.7014C8.4225 30.7014 8.42 33.0489 9.93304 33.0489C11.4436 33.0489 11.4461 30.7014 9.93304 30.7014Z" fill="#0A0D27"/>
<path d="M8.85833 38.7603C7.34779 38.7603 7.34529 41.1077 8.85833 41.1077C10.3689 41.1077 10.3714 38.7603 8.85833 38.7603Z" fill="#0A0D27"/>
<path d="M9.90609 49.17C11.4166 49.17 11.4191 46.8225 9.90609 46.8225C8.39555 46.8225 8.39305 49.17 9.90609 49.17Z" fill="#0A0D27"/>
<path d="M13.0048 54.3391C11.4943 54.3391 11.4918 56.6866 13.0048 56.6866C14.5152 56.6866 14.5177 54.3391 13.0048 54.3391Z" fill="#0A0D27"/>
<path d="M17.9432 63.1448C19.4537 63.1448 19.4562 60.7974 17.9432 60.7974C16.4328 60.7974 16.4303 63.1448 17.9432 63.1448Z" fill="#0A0D27"/>
</g>
<defs>
<clipPath id="clip0">
<rect width="80" height="80" fill="white"/>
</clipPath>
</defs>
</svg>
