<svg width="580" height="380" viewBox="0 0 580 380" fill="none" xmlns="http://www.w3.org/2000/svg">
<g clip-path="url(#clip0)">
<rect y="-4" width="580" height="386.667"/>
<path fill-rule="evenodd" clip-rule="evenodd" d="M499.767 342.067C495.845 342.067 491.999 342.114 488.254 342.205C447.292 336.298 376.825 332.4 296.767 332.4C178.779 332.4 81.6223 340.868 69.0444 351.751C67.7888 351.739 66.5237 351.733 65.25 351.733C29.2134 351.733 0 356.494 0 362.367C0 368.239 29.2134 373 65.25 373C88.4899 373 108.892 371.02 120.451 368.039C162.475 372.842 225.859 375.9 296.767 375.9C393.056 375.9 475.47 370.261 509.364 362.271C543.261 361.589 569.367 357.347 569.367 352.217C569.367 346.611 538.206 342.067 499.767 342.067Z" fill="#F2F2F2"/>
<path fill-rule="evenodd" clip-rule="evenodd" d="M542.439 294.244C542.439 293.176 527.724 292.31 509.572 292.31C491.421 292.31 476.706 293.176 476.706 294.244H542.439Z" fill="#FD7880"/>
<ellipse cx="509.573" cy="294.244" rx="25.1333" ry="0.966675" fill="#BB3939"/>
<path fill-rule="evenodd" clip-rule="evenodd" d="M555.252 226.169C554.682 225.606 553.764 225.612 553.201 226.182C530.215 249.452 521.743 283.09 520.36 297.05C520.281 297.847 520.863 298.557 521.66 298.636C522.457 298.715 523.167 298.133 523.246 297.336C524.59 283.76 532.909 250.851 555.264 228.22C555.827 227.65 555.821 226.732 555.252 226.169Z" fill="#416B71"/>
<ellipse rx="3.20308" ry="10.9496" transform="matrix(-0.998416 -0.0562651 -0.0501554 0.998741 531.276 255.632)" fill="#416B71"/>
<ellipse rx="3.67153" ry="12.0897" transform="matrix(-0.80705 -0.590483 -0.63846 0.769655 530.458 274.524)" fill="#416B71"/>
<ellipse rx="3.80692" ry="12.8169" transform="matrix(-0.697092 -0.716982 -0.762063 0.647503 549.277 240.145)" fill="#528087"/>
<ellipse rx="3.23196" ry="10.757" transform="matrix(-0.807051 -0.590482 -0.63846 0.769655 557.789 222.841)" fill="#416B71"/>
<ellipse rx="3.70213" ry="13.0312" transform="matrix(-0.719721 -0.694264 -0.740517 0.672038 538.612 257.572)" fill="#528087"/>
<ellipse rx="3.85918" ry="12.3794" transform="matrix(-0.982046 -0.188641 -0.201448 0.979499 541.902 235.3)" fill="#618C93"/>
<ellipse rx="3.31101" ry="11.0196" transform="matrix(-0.98084 -0.194812 -0.20847 0.978029 525.109 274.206)" fill="#618C93"/>
<path fill-rule="evenodd" clip-rule="evenodd" d="M518.857 145.017C519.59 145.34 519.922 146.195 519.599 146.928C517.529 151.627 514.409 159.689 511.81 168.538C509.203 177.411 507.156 186.96 507.156 194.677C507.156 204.263 511.024 214.641 515.028 224.712C515.305 225.408 515.582 226.102 515.859 226.794C517.564 231.066 519.239 235.261 520.541 239.219C522.052 243.813 523.106 248.216 523.106 252.194C523.106 258.424 520.949 267.429 518.33 276.022C515.697 284.663 512.539 293.069 510.43 298.18C510.124 298.92 509.276 299.273 508.536 298.967C507.796 298.662 507.443 297.814 507.749 297.074C509.828 292.035 512.954 283.717 515.556 275.176C518.174 266.587 520.206 257.95 520.206 252.194C520.206 248.679 519.266 244.624 517.786 240.125C516.515 236.26 514.878 232.161 513.17 227.882C512.893 227.187 512.613 226.487 512.333 225.783C508.362 215.796 504.256 204.907 504.256 194.677C504.256 186.541 506.397 176.675 509.027 167.721C511.664 158.744 514.828 150.565 516.946 145.759C517.269 145.026 518.124 144.694 518.857 145.017Z" fill="#416B71"/>
<ellipse rx="3.58621" ry="12.3211" transform="matrix(0.99459 0.103875 -0.103876 0.99459 523.119 237.271)" fill="#416B71"/>
<ellipse cx="503.022" cy="202.132" rx="5.17094" ry="16.3227" transform="rotate(-17.6742 503.022 202.132)" fill="#416B71"/>
<ellipse cx="521.723" cy="154.974" rx="4.73263" ry="16.3227" transform="rotate(41.2138 521.723 154.974)" fill="#416B71"/>
<ellipse rx="4.52076" ry="13.6106" transform="matrix(0.994299 -0.106626 0.0346806 0.999398 504.873 177.828)" fill="#416B71"/>
<ellipse cx="518.228" cy="256.574" rx="3.98896" ry="13.5214" transform="rotate(-2.33222 518.228 256.574)" fill="#416B71"/>
<ellipse cx="517.485" cy="234.724" rx="4.94426" ry="15.0996" transform="rotate(-19.9196 517.485 234.724)" fill="#528087"/>
<ellipse cx="510.841" cy="201.764" rx="4.78717" ry="15.0996" transform="rotate(12.8914 510.841 201.764)" fill="#528087"/>
<ellipse rx="5.044" ry="15.0996" transform="matrix(0.878853 0.477092 -0.477094 0.878852 523.983 134.443)" fill="#528087"/>
<ellipse cx="510.844" cy="150.035" rx="4.43323" ry="15.0995" transform="rotate(-2.69339 510.844 150.035)" fill="#618C93"/>
<ellipse rx="4.04521" ry="13.1475" transform="matrix(0.980554 0.196251 -0.337761 0.941232 511.17 180.065)" fill="#618C93"/>
<ellipse rx="3.53449" ry="12.5656" transform="matrix(0.913854 0.406044 -0.406045 0.913853 523.059 259.632)" fill="#618C93"/>
<path fill-rule="evenodd" clip-rule="evenodd" d="M546.427 246.884C546.956 247.485 546.899 248.401 546.299 248.931C526.9 266.047 520.823 287.747 520.202 296.282C520.144 297.081 519.449 297.681 518.651 297.623C517.852 297.565 517.252 296.87 517.31 296.072C517.978 286.884 524.339 264.44 544.38 246.756C544.98 246.226 545.897 246.284 546.427 246.884Z" fill="#416B71"/>
<ellipse cx="550.656" cy="246.412" rx="2.80302" ry="10.9823" transform="rotate(64.4325 550.656 246.412)" fill="#416B71"/>
<ellipse cx="522.632" cy="272.827" rx="2.92265" ry="11.164" transform="rotate(7.52297 522.632 272.827)" fill="#416B71"/>
<ellipse rx="3.69615" ry="13.0504" transform="matrix(0.680952 0.732328 -0.732331 0.680949 530.356 274.741)" fill="#528087"/>
<ellipse cx="539.934" cy="246.332" rx="4.0574" ry="14.4429" transform="rotate(21.6273 539.934 246.332)" fill="#528087"/>
<path fill-rule="evenodd" clip-rule="evenodd" d="M527.856 187.244C528.491 187.731 528.61 188.642 528.122 189.277C523.898 194.776 517.543 204.176 512.251 214.445C506.933 224.764 502.806 235.74 502.806 244.46C502.806 262.332 511.086 286.631 515.26 296.583C515.569 297.321 515.222 298.171 514.483 298.481C513.745 298.79 512.895 298.443 512.585 297.704C508.381 287.678 499.906 262.935 499.906 244.46C499.906 235.007 504.318 223.508 509.673 213.116C515.055 202.674 521.508 193.128 525.823 187.51C526.31 186.875 527.221 186.756 527.856 187.244Z" fill="#416B71"/>
<ellipse rx="4.6541" ry="16.3227" transform="matrix(0.825063 0.565041 -0.565042 0.825062 514.322 212.648)" fill="#416B71"/>
<ellipse cx="499.237" cy="241.314" rx="4.69071" ry="16.3228" transform="rotate(-5.00738 499.237 241.314)" fill="#416B71"/>
<ellipse cx="509.793" cy="211.52" rx="4.94427" ry="15.0995" transform="rotate(20.3505 509.793 211.52)" fill="#528087"/>
<ellipse cx="504.034" cy="275.003" rx="5.57067" ry="13.5155" transform="rotate(-25.7856 504.034 275.003)" fill="#528087"/>
<ellipse rx="4.34692" ry="15.0995" transform="matrix(0.967774 0.251819 -0.251818 0.967775 505.982 244.218)" fill="#618C93"/>
<ellipse rx="4.44448" ry="15.0995" transform="matrix(0.727038 0.686598 -0.686597 0.727038 531.069 185.608)" fill="#618C93"/>
<ellipse cx="511.632" cy="273.992" rx="4.64667" ry="12.5656" transform="rotate(9.42082 511.632 273.992)" fill="#618C93"/>
<path fill-rule="evenodd" clip-rule="evenodd" d="M470.031 212.854C470.669 212.371 471.579 212.497 472.062 213.135C493.977 242.094 499.423 281.18 499.423 297.144C499.423 297.944 498.773 298.594 497.973 298.594C497.172 298.594 496.523 297.944 496.523 297.144C496.523 281.529 491.142 243.153 469.75 214.885C469.266 214.247 469.392 213.337 470.031 212.854Z" fill="#416B71"/>
<ellipse cx="492.286" cy="248.879" rx="3.41738" ry="12.4936" transform="rotate(2.60109 492.286 248.879)" fill="#416B71"/>
<ellipse rx="3.98896" ry="13.5214" transform="matrix(0.845711 -0.533641 0.533639 0.845712 491.168 270.426)" fill="#416B71"/>
<ellipse rx="4.1812" ry="14.1744" transform="matrix(0.742415 -0.66994 0.669939 0.742416 474.806 229.268)" fill="#528087"/>
<ellipse rx="3.51139" ry="12.0308" transform="matrix(0.845711 -0.533641 0.533639 0.845712 467.59 208.659)" fill="#416B71"/>
<ellipse cx="484.294" cy="250.258" rx="4.0574" ry="14.4429" transform="rotate(-40.2042 484.294 250.258)" fill="#528087"/>
<ellipse cx="483.145" cy="224.595" rx="4.11927" ry="14.1175" transform="rotate(-5.57802 483.145 224.595)" fill="#618C93"/>
<ellipse cx="496.88" cy="270.667" rx="3.5345" ry="12.5656" transform="rotate(-5.96293 496.88 270.667)" fill="#618C93"/>
<path fill-rule="evenodd" clip-rule="evenodd" d="M509.573 296.177C491.648 296.177 477.075 295.333 476.713 294.284L486.373 350.31C486.373 351.378 496.76 352.244 509.573 352.244C522.386 352.244 532.773 351.378 532.773 350.31L542.432 294.284C542.07 295.333 527.497 296.177 509.573 296.177Z" fill="#F85454"/>
<path opacity="0.6" fill-rule="evenodd" clip-rule="evenodd" d="M479.183 308.557L478.746 306.024C483.228 304.778 487.75 304.374 492.318 304.258C493.758 304.221 495.202 304.178 496.647 304.134H496.647C501.689 303.983 506.757 303.831 511.829 303.957C517.795 304.106 524.014 305.286 529.763 306.637C532.364 307.248 533.845 307.815 536.245 309.517C537.339 310.293 538.178 311.103 538.712 312.193C538.901 312.58 539.042 312.981 539.145 313.4L538.241 318.642C538.176 318.702 538.108 318.759 538.039 318.814C537.313 319.385 536.4 319.676 535.549 319.839C534.143 320.108 532.554 320.08 531.542 320.062C531.329 320.058 531.141 320.055 530.986 320.055C525.1 320.055 519.256 320.282 513.362 320.588C511.257 320.697 509.133 320.757 507.005 320.817L507.005 320.817C499.011 321.041 490.957 321.268 483.648 324.133C483.061 324.363 482.515 324.661 482.02 325.014L481.565 322.374C482.017 322.1 482.488 321.866 482.97 321.677C490.617 318.68 499.097 318.446 507.129 318.224H507.129C509.213 318.166 511.266 318.11 513.267 318.006C519.175 317.699 525.055 317.47 530.986 317.47C531.186 317.47 531.41 317.474 531.652 317.478C532.674 317.494 534.01 317.516 535.204 317.287C535.943 317.146 536.498 316.929 536.844 316.657C537.138 316.425 537.23 316.209 537.23 315.906C537.23 314.711 537.097 314.023 536.839 313.496C536.576 312.96 536.103 312.424 535.136 311.739C532.99 310.217 531.753 309.739 529.344 309.173C523.634 307.831 517.561 306.685 511.784 306.541C506.767 306.416 501.765 306.567 496.732 306.718C495.279 306.761 493.824 306.805 492.364 306.842C487.845 306.957 483.472 307.357 479.183 308.557ZM534.097 342.679C533.57 342.726 533.041 342.774 532.51 342.822L532.51 342.822L532.51 342.822C531.331 342.928 530.146 343.035 528.951 343.136C515.447 344.269 502.192 342.896 488.926 340.789C487.68 340.591 486.131 340.296 484.569 339.796L484.074 336.925C485.811 337.608 487.685 337.984 489.212 338.227C502.423 340.325 515.51 341.673 528.799 340.557C529.968 340.459 531.137 340.353 532.306 340.247L532.307 340.247C533.055 340.179 533.803 340.112 534.551 340.046L534.097 342.679Z" fill="#BB3939"/>
<path fill-rule="evenodd" clip-rule="evenodd" d="M509.573 296.177C491.421 296.177 476.706 295.311 476.706 294.244L484.439 294.244C484.439 294.777 495.692 295.21 509.572 295.21C523.453 295.21 534.706 294.777 534.706 294.244L542.439 294.244C542.439 295.311 527.724 296.177 509.573 296.177Z" fill="#FD7880"/>
<rect x="162.4" y="260.867" width="87" height="96.6667" fill="#868AE0"/>
<rect x="143.067" y="260.867" width="19.3333" height="96.6667" fill="#4E53BA"/>
<rect x="278.4" y="173.867" width="87" height="183.667" fill="#868AE0"/>
<rect x="259.067" y="173.867" width="19.3333" height="183.667" fill="#4E53BA"/>
<rect x="394.4" y="86.8667" width="87" height="270.667" fill="#868AE0"/>
<rect x="375.067" y="86.8667" width="19.3333" height="270.667" fill="#4E53BA"/>
<path d="M427.175 69.983C426.425 63.8828 425.607 57.7905 424.664 51.7049C421.538 57.6952 418.275 63.665 414.798 69.3319C405.07 84.9606 394.185 99.8382 382.235 113.84C359.573 140.76 333.625 164.731 304.998 185.193C276.4 205.649 245.292 222.345 212.436 234.872C181.557 249.97 146.474 254.184 112.883 246.828C111.6 246.297 110.524 245.362 109.818 244.166C109.112 242.97 108.814 241.578 108.969 240.198C109.123 238.818 109.722 237.527 110.675 236.518C111.627 235.508 112.883 234.837 114.251 234.604C179.862 229.955 242.659 206.18 294.882 166.216C321.73 146.598 346.018 123.697 367.179 98.0464C377.147 85.8245 386.435 73.0641 395.003 59.8228C400.7 51.0641 406.13 41.914 411.921 33.0884C400.48 39.3402 388.35 44.2395 375.775 47.6873C373.824 47.9224 371.849 47.5209 370.143 46.5426C368.438 45.5644 367.093 44.0616 366.31 42.2581C365.527 40.4545 365.347 38.4467 365.797 36.5335C366.247 34.6203 367.303 32.904 368.807 31.6403C387.208 22.3146 406.085 13.9611 425.361 6.61417C427.625 5.66313 430.174 5.64187 432.455 6.5551C434.736 7.46833 436.566 9.2426 437.55 11.4942C443.983 30.1797 446.468 49.9949 444.847 69.6849C444.551 71.7954 443.512 73.7306 441.917 75.1422C440.321 76.5539 438.274 77.3493 436.144 77.3853C434.013 77.4213 431.939 76.6953 430.295 75.3383C428.651 73.9813 427.544 72.0823 427.175 69.983Z" fill="#F85454"/>
<path fill-rule="evenodd" clip-rule="evenodd" d="M40.9112 329.827L51.1552 321.245L48.1732 311.939L26.4223 326.623L42.0457 357.262C42.0457 357.262 42.9406 349.872 42.4362 341.616C42.0874 335.912 40.9112 329.827 40.9112 329.827ZM144.913 356.404L142.668 349.137L133.162 349.641L141.073 369.6L171.462 351.921C162.444 349.18 144.913 356.404 144.913 356.404Z" fill="#0D0B6D"/>
<path fill-rule="evenodd" clip-rule="evenodd" d="M48.5717 323.433L48.0301 311.924L35.5027 320.548L40.9113 329.827L48.5717 323.433ZM142.094 347.136L133.019 349.601L137.134 359.662L144.913 356.404L142.094 347.136Z" fill="#F6BA96"/>
<path d="M87.3888 236.248C84.8834 227.957 83.1138 221.783 82.5322 219.086C79.9464 207.098 79.9519 201.369 79.9519 200.934H88.9165L122.689 200.933C122.506 204.14 123.038 212.644 121.835 224.418L148.058 341.889L150.705 341.425L153.007 350.556L124.324 356.305L120.829 346.657L122.543 346.357C118.714 334.785 110.353 309.096 102.241 283.684C101.229 285.377 100.167 287.076 99.0516 288.778C83.9353 311.863 68.8477 325.219 60.5826 331.493L61.8042 333.248L53.5131 338.545L35.2797 312.494L43.3241 306.706L44.6806 308.654C54.4927 299.591 74.0936 278.279 85.6491 244.039C86.4235 241.745 86.9824 239.105 87.3888 236.248Z" fill="#19141E"/>
<path fill-rule="evenodd" clip-rule="evenodd" d="M122.543 346.357C114.332 321.537 85.2699 231.778 82.5321 219.086C79.9517 207.123 79.9518 201.393 79.9518 200.936C79.9518 200.935 79.9518 200.934 79.9518 200.934H116.592L148.058 341.889L150.705 341.425L153.007 350.556L124.324 356.305L120.829 346.657L122.543 346.357Z" fill="white" fill-opacity="0.1"/>
<path d="M130.62 171.68L124.411 174.996L122.874 201.003H80.0221L79.3032 174.764L65.7538 164.572C65.7538 164.572 72.1438 151.683 83.0765 146.554C85.9249 145.22 89.508 144.511 93.0882 144.172C100.267 143.492 107.424 144.282 108.587 144.424L108.751 144.443C108.954 144.504 109.157 144.565 109.354 144.627C109.357 144.627 109.36 144.63 109.363 144.63C109.943 144.81 110.491 144.984 111.013 145.155C118.266 147.543 120.561 149.476 124.624 155.199C128.487 160.638 130.62 171.68 130.62 171.68Z" fill="#868AE0"/>
<path opacity="0.200219" fill-rule="evenodd" clip-rule="evenodd" d="M91.6145 167.976L82.883 178.174L78.85 175.429L79.7567 174.097L82.5973 176.031L90.3907 166.929L91.6145 167.976Z" fill="black"/>
<path fill-rule="evenodd" clip-rule="evenodd" d="M113.114 193.408C113.114 193.408 114.467 193.753 114.493 194.603C114.493 194.845 106.247 196.405 106.247 196.405L108.043 196.511L109.908 196.421C109.908 196.421 110.878 196.601 110.933 197.407C110.952 197.726 109.234 198.067 107.237 198.328C104.13 198.737 101.897 198.377 99.7127 197.78C99.5291 197.729 99.3519 197.684 99.1814 197.639L100.957 186.222C101.553 186.767 102.68 187.734 107.533 188.945C108.506 189.187 111.774 189.232 111.774 189.232C112.734 189.37 114.751 189.557 114.89 190.688C114.925 190.969 114.574 191.272 114.574 191.272C114.574 191.272 115.84 191.359 115.917 192.506C115.95 192.957 113.114 193.408 113.114 193.408Z" fill="#18181C"/>
<path fill-rule="evenodd" clip-rule="evenodd" d="M127.168 209.306H97.191L103.914 167.93H133.891L127.168 209.306Z" fill="#18181C"/>
<path fill-rule="evenodd" clip-rule="evenodd" d="M128.779 209.306H98.8022L105.525 167.93H135.502L128.779 209.306Z" fill="#B0B3E1"/>
<path fill-rule="evenodd" clip-rule="evenodd" d="M93.0882 144.172C94.1448 145.838 97.4733 149.992 104.617 150.414C113.149 150.913 111.213 145.655 111.013 145.155C111.001 145.129 110.994 145.116 110.994 145.116C110.994 145.116 110.359 144.904 109.363 144.63L109.359 144.628L109.354 144.627C109.119 144.562 108.861 144.495 108.587 144.424C107.424 144.282 100.267 143.492 93.0882 144.172ZM91.9515 184.591L94.032 183.88C94.032 183.88 95.366 183.358 97.6183 182.942C98.451 182.789 99.1484 182.761 99.8789 182.732C100.39 182.712 100.917 182.691 101.518 182.626L101.021 185.813C100.928 185.881 100.844 185.961 100.763 186.048C100.809 186.087 100.854 186.129 100.904 186.174C100.921 186.19 100.939 186.206 100.957 186.222C101.553 186.767 102.68 187.734 107.533 188.945C108.506 189.187 111.774 189.232 111.774 189.232C111.845 189.242 111.921 189.253 112.003 189.264C113.022 189.403 114.761 189.641 114.89 190.688C114.925 190.969 114.574 191.272 114.574 191.272C114.574 191.272 115.84 191.359 115.917 192.506C115.95 192.957 113.114 193.408 113.114 193.408C113.114 193.408 114.467 193.753 114.493 194.603C114.493 194.845 106.247 196.405 106.247 196.405L108.043 196.511L109.908 196.421C109.908 196.421 110.878 196.601 110.933 197.407C110.952 197.726 109.234 198.067 107.237 198.328C104.13 198.737 101.897 198.377 99.7128 197.78C99.579 197.743 99.4485 197.709 99.3217 197.676L99.3175 197.674C99.2717 197.662 99.2263 197.651 99.1814 197.639C98.8579 197.554 98.5601 197.479 98.2788 197.408C96.6046 196.987 95.5137 196.713 93.0363 195.364C92.7686 195.218 92.4743 195.042 92.169 194.849C84.7428 195.554 62.2342 197.287 59.9781 192.65C55.5169 183.479 67.2584 165.731 67.2584 165.731L80.2552 174.82L76.125 181.836L91.9515 184.591ZM121.665 209.15H128.567L130.5 198.517L133.424 211.914C135.383 214.161 137.644 216.814 137.986 217.467C138.606 218.651 139.752 224.512 139.698 225.671C139.643 226.829 136.071 232.033 136.071 232.033C133.855 231.504 135.302 228.817 135.302 228.817C135.302 228.817 133.317 230.449 132.492 230.422C124.719 230.164 125.136 226.337 125.32 225.858C125.733 224.782 127.807 226.013 127.807 226.013C127.807 226.013 124.204 218.904 124.671 213.472C124.671 213.472 121.8 209.15 121.665 209.15Z" fill="#F6BA96"/>
<path opacity="0.199382" fill-rule="evenodd" clip-rule="evenodd" d="M129.005 217.059C129.005 217.059 129.005 217.058 129.471 216.931C129.938 216.804 129.938 216.804 129.937 216.804L129.937 216.804L129.938 216.804L129.939 216.81C129.941 216.816 129.943 216.825 129.947 216.838C129.955 216.863 129.967 216.902 129.984 216.954C130.018 217.057 130.072 217.208 130.148 217.395C130.3 217.769 130.54 218.281 130.892 218.83C131.596 219.931 132.726 221.15 134.458 221.728C134.763 221.829 134.977 222.054 135.13 222.28C135.283 222.508 135.406 222.783 135.512 223.062C135.614 223.329 135.71 223.625 135.804 223.918C135.809 223.934 135.815 223.949 135.82 223.965C135.921 224.279 136.023 224.592 136.139 224.895C136.375 225.512 136.643 226.023 136.997 226.347C137.322 226.644 137.747 226.811 138.404 226.685L138.586 227.634C137.639 227.816 136.902 227.57 136.345 227.06C135.817 226.578 135.483 225.889 135.236 225.24C135.11 224.91 135.001 224.574 134.9 224.263L134.888 224.225C134.79 223.923 134.701 223.649 134.609 223.406C134.512 223.15 134.42 222.956 134.329 222.821C134.236 222.684 134.174 222.652 134.152 222.645L134.152 222.645C132.141 221.974 130.854 220.566 130.077 219.351C129.688 218.742 129.422 218.175 129.252 217.759C129.168 217.551 129.107 217.379 129.067 217.258C129.047 217.198 129.032 217.15 129.021 217.116C129.016 217.099 129.012 217.085 129.01 217.076L129.006 217.064L129.005 217.061L129.005 217.059L129.005 217.059Z" fill="black"/>
<path fill-rule="evenodd" clip-rule="evenodd" d="M108.324 171.268C108.19 171.953 107.793 172.452 107.437 172.382C107.081 172.312 106.901 171.7 107.035 171.015C107.169 170.33 107.566 169.831 107.922 169.901C108.278 169.971 108.458 170.583 108.324 171.268Z" fill="#020101"/>
<path fill-rule="evenodd" clip-rule="evenodd" d="M123.755 107.901C123.755 107.901 131.927 118.582 120.831 121.417L123.755 107.901Z" fill="#19141E"/>
<path d="M108.527 144.617L108.255 135.2C108.255 135.2 119.952 136.111 122.393 134.839C122.393 134.839 124.248 123.396 122.484 115.282L112.88 106.585L97.3808 107.729L95.6216 121.798C94.8105 119.399 87.4275 116.391 85.6552 121.774C83.3698 128.714 96.5425 132.362 96.5425 132.362L95.166 144.73" fill="#F6BA96"/>
<path d="M90.2506 107.193L86.4553 103.316L88.5278 101.287L91.9937 104.828L92.3312 104.666L91.437 99.6776L94.2915 99.166L95.0081 103.164C101.921 98.9322 107.38 102.231 107.38 102.231C107.38 102.231 109.584 92.9625 115.683 92.9892C124.372 93.0267 125.713 106.49 125.713 106.49C125.713 106.49 130.092 99.1683 132.582 100.215C135.072 101.262 135.141 125.581 100.57 113.729C100.57 113.729 103.542 120.436 95.6217 121.798C95.6217 121.798 94.2403 118.936 89.5589 118.774C89.5589 118.774 82.3588 115.836 90.2506 107.193Z" fill="#19141E"/>
<path opacity="0.4" fill-rule="evenodd" clip-rule="evenodd" d="M108.255 135.2L100.561 133.545L108.218 138.733L108.255 135.2Z" fill="black"/>
<path fill-rule="evenodd" clip-rule="evenodd" d="M114.749 121.029L117.407 127.548L114.221 127.589L114.749 121.029Z" fill="#125475"/>
<path fill-rule="evenodd" clip-rule="evenodd" d="M111.571 121.662C111.729 122.54 111.148 123.381 110.273 123.539C109.397 123.698 108.559 123.115 108.401 122.237C108.243 121.36 108.824 120.519 109.699 120.361C110.575 120.202 111.412 120.784 111.571 121.662Z" fill="#0D0B6D"/>
<path fill-rule="evenodd" clip-rule="evenodd" d="M119.933 121.662C120.091 122.54 119.51 123.381 118.634 123.539C117.759 123.698 116.921 123.115 116.763 122.237C116.605 121.36 117.186 120.519 118.061 120.361C118.937 120.202 119.774 120.784 119.933 121.662Z" fill="#0D0B6D"/>
<path fill-rule="evenodd" clip-rule="evenodd" d="M110.631 128.618C110.631 128.618 111.654 130.483 113.865 130.438L110.631 128.618Z" fill="white"/>
<path fill-rule="evenodd" clip-rule="evenodd" d="M110.066 128.929C110.066 128.929 110.066 128.928 110.631 128.618C111.196 128.308 111.195 128.308 111.195 128.308L111.195 128.307L111.195 128.307L111.194 128.306C111.194 128.305 111.194 128.305 111.194 128.305L111.198 128.312C111.203 128.32 111.211 128.334 111.223 128.353C111.247 128.391 111.286 128.45 111.341 128.522C111.45 128.668 111.616 128.864 111.84 129.058C112.286 129.443 112.945 129.812 113.852 129.794L113.877 131.083C112.573 131.109 111.615 130.568 110.997 130.032C110.689 129.766 110.461 129.498 110.309 129.295C110.233 129.194 110.175 129.107 110.135 129.044C110.115 129.012 110.099 128.986 110.087 128.966C110.081 128.956 110.077 128.948 110.073 128.942L110.069 128.934L110.067 128.931L110.066 128.929L110.066 128.929Z" fill="#252535"/>
<path d="M256.167 352.7H329.633V363.333H256.167V352.7Z" fill="#FBB737"/>
<path d="M329.633 363.333C329.633 366.003 313.187 368.167 292.9 368.167C272.613 368.167 256.167 366.003 256.167 363.333C256.167 360.664 272.613 358.5 292.9 358.5C313.187 358.5 329.633 360.664 329.633 363.333Z" fill="#FBB737"/>
<path fill-rule="evenodd" clip-rule="evenodd" d="M297.733 368.125V352.7H301.6V368.03C300.335 368.071 299.045 368.103 297.733 368.125ZM310.3 367.591C309.053 367.68 307.762 367.759 306.433 367.828V352.7H310.3V367.591ZM319.967 366.601C318.22 366.851 316.276 367.077 314.167 367.275V352.7H319.967V366.601Z" fill="#E9A82E"/>
<ellipse cx="292.9" cy="352.7" rx="36.7333" ry="4.83333" fill="#FAC562"/>
<ellipse cx="292.9" cy="352.7" rx="27.0667" ry="2.90001" fill="#E9A82E"/>
<path d="M242.633 340.133H316.1V350.767H242.633V340.133Z" fill="#FBB737"/>
<path d="M316.1 350.767C316.1 353.436 299.654 355.6 279.367 355.6C259.079 355.6 242.633 353.436 242.633 350.767C242.633 348.097 259.079 345.933 279.367 345.933C299.654 345.933 316.1 348.097 316.1 350.767Z" fill="#FBB737"/>
<path fill-rule="evenodd" clip-rule="evenodd" d="M284.2 355.559V340.133H288.067V355.464C286.802 355.504 285.512 355.536 284.2 355.559ZM296.767 355.024C295.519 355.113 294.229 355.192 292.9 355.261V340.133H296.767V355.024ZM306.433 354.034C304.687 354.285 302.743 354.511 300.633 354.708V340.133H306.433V354.034Z" fill="#E9A82E"/>
<ellipse cx="279.367" cy="340.133" rx="36.7333" ry="4.83333" fill="#FAC562"/>
<ellipse cx="279.367" cy="340.133" rx="27.0667" ry="2.90001" fill="#E9A82E"/>
<path d="M331.567 352.7H405.033V363.333H331.567V352.7Z" fill="#FBB737"/>
<path d="M405.033 363.333C405.033 366.003 388.587 368.167 368.3 368.167C348.013 368.167 331.567 366.003 331.567 363.333C331.567 360.664 348.013 358.5 368.3 358.5C388.587 358.5 405.033 360.664 405.033 363.333Z" fill="#FBB737"/>
<path fill-rule="evenodd" clip-rule="evenodd" d="M373.133 368.125V352.7H377V368.03C375.735 368.071 374.445 368.103 373.133 368.125ZM385.7 367.591C384.453 367.68 383.162 367.759 381.833 367.828V352.7H385.7V367.591ZM395.367 366.601C393.62 366.851 391.676 367.077 389.567 367.275V352.7H395.367V366.601Z" fill="#E9A82E"/>
<ellipse cx="368.3" cy="352.7" rx="36.7333" ry="4.83333" fill="#FAC562"/>
<ellipse cx="368.3" cy="352.7" rx="27.0667" ry="2.90001" fill="#E9A82E"/>
<path d="M321.9 340.133H395.367V350.767H321.9V340.133Z" fill="#FBB737"/>
<path d="M395.367 350.767C395.367 353.436 378.921 355.6 358.633 355.6C338.346 355.6 321.9 353.436 321.9 350.767C321.9 348.097 338.346 345.933 358.633 345.933C378.921 345.933 395.367 348.097 395.367 350.767Z" fill="#FBB737"/>
<path fill-rule="evenodd" clip-rule="evenodd" d="M363.467 355.559V340.133H367.333V355.464C366.069 355.504 364.779 355.536 363.467 355.559ZM376.033 355.024C374.786 355.113 373.495 355.192 372.167 355.261V340.133H376.033V355.024ZM385.7 354.034C383.954 354.285 382.01 354.511 379.9 354.708V340.133H385.7V354.034Z" fill="#E9A82E"/>
<ellipse cx="358.633" cy="340.133" rx="36.7333" ry="4.83333" fill="#FAC562"/>
<ellipse cx="358.633" cy="340.133" rx="27.0667" ry="2.90001" fill="#E9A82E"/>
<path d="M333.5 327.567H406.967V338.2H333.5V327.567Z" fill="#FBB737"/>
<path d="M406.967 338.2C406.967 340.869 390.521 343.033 370.233 343.033C349.946 343.033 333.5 340.869 333.5 338.2C333.5 335.531 349.946 333.367 370.233 333.367C390.521 333.367 406.967 335.531 406.967 338.2Z" fill="#FBB737"/>
<path fill-rule="evenodd" clip-rule="evenodd" d="M375.067 342.992V327.567H378.933V342.897C377.669 342.937 376.379 342.969 375.067 342.992ZM387.633 342.458C386.386 342.546 385.095 342.625 383.767 342.695V327.567H387.633V342.458ZM397.3 341.468C395.554 341.718 393.609 341.944 391.5 342.141V327.567H397.3V341.468Z" fill="#E9A82E"/>
<ellipse cx="370.233" cy="327.567" rx="36.7333" ry="4.83333" fill="#FAC562"/>
<ellipse cx="370.233" cy="327.567" rx="27.0667" ry="2.90001" fill="#E9A82E"/>
<path d="M327.7 315H401.167V325.633H327.7V315Z" fill="#FBB737"/>
<path d="M401.167 325.633C401.167 328.303 384.721 330.467 364.433 330.467C344.146 330.467 327.7 328.303 327.7 325.633C327.7 322.964 344.146 320.8 364.433 320.8C384.721 320.8 401.167 322.964 401.167 325.633Z" fill="#FBB737"/>
<path fill-rule="evenodd" clip-rule="evenodd" d="M369.267 330.425V315H373.133V330.33C371.869 330.371 370.579 330.403 369.267 330.425ZM381.833 329.891C380.586 329.98 379.295 330.059 377.967 330.128V315H381.833V329.891ZM391.5 328.901C389.754 329.151 387.81 329.377 385.7 329.575V315H391.5V328.901Z" fill="#E9A82E"/>
<ellipse cx="364.433" cy="315" rx="36.7333" ry="4.83333" fill="#FAC562"/>
<ellipse cx="364.433" cy="315" rx="27.0667" ry="2.90001" fill="#E9A82E"/>
<path d="M333.5 302.433H406.967V313.067H333.5V302.433Z" fill="#FBB737"/>
<path d="M406.967 313.067C406.967 315.736 390.521 317.9 370.233 317.9C349.946 317.9 333.5 315.736 333.5 313.067C333.5 310.397 349.946 308.233 370.233 308.233C390.521 308.233 406.967 310.397 406.967 313.067Z" fill="#FBB737"/>
<path fill-rule="evenodd" clip-rule="evenodd" d="M375.067 317.859V302.433H378.933V317.764C377.669 317.804 376.379 317.836 375.067 317.859ZM387.633 317.324C386.386 317.413 385.095 317.492 383.767 317.561V302.433H387.633V317.324ZM397.3 316.334C395.554 316.585 393.609 316.811 391.5 317.008V302.433H397.3V316.334Z" fill="#E9A82E"/>
<ellipse cx="370.233" cy="302.433" rx="36.7333" ry="4.83334" fill="#FAC562"/>
<ellipse cx="370.233" cy="302.433" rx="27.0667" ry="2.90001" fill="#E9A82E"/>
<path d="M319.967 289.867H393.433V300.5H319.967V289.867Z" fill="#FBB737"/>
<path d="M393.433 300.5C393.433 303.169 376.987 305.333 356.7 305.333C336.413 305.333 319.967 303.169 319.967 300.5C319.967 297.831 336.413 295.667 356.7 295.667C376.987 295.667 393.433 297.831 393.433 300.5Z" fill="#FBB737"/>
<path fill-rule="evenodd" clip-rule="evenodd" d="M361.533 305.292V289.867H365.4V305.197C364.135 305.237 362.845 305.269 361.533 305.292ZM374.1 304.758C372.853 304.846 371.562 304.925 370.233 304.995V289.867H374.1V304.758ZM383.767 303.768C382.02 304.018 380.076 304.244 377.967 304.441V289.867H383.767V303.768Z" fill="#E9A82E"/>
<ellipse cx="356.7" cy="289.867" rx="36.7333" ry="4.83333" fill="#FAC562"/>
<ellipse cx="356.7" cy="289.867" rx="27.0667" ry="2.90001" fill="#E9A82E"/>
</g>
<defs>
<clipPath id="clip0">
<rect width="580" height="380" fill="white"/>
</clipPath>
</defs>
</svg>
