<svg width="580" height="297" viewBox="0 0 580 297" fill="none" xmlns="http://www.w3.org/2000/svg">
<g clip-path="url(#clip0)">
<path d="M0 -69H580V317.667H0V-69Z" fill="none"/>
<path d="M478.5 272.717C478.5 284.729 392.375 294.467 286.133 294.467C179.892 294.467 93.7667 284.729 93.7667 272.717C93.7667 260.704 179.892 250.967 286.133 250.967C392.375 250.967 478.5 260.704 478.5 272.717Z" fill="#F2F2F2"/>
<path d="M580 277.55C580 286.893 524.17 294.467 455.3 294.467C386.43 294.467 330.6 286.893 330.6 277.55C330.6 268.207 386.43 260.633 455.3 260.633C524.17 260.633 580 268.207 580 277.55Z" fill="#F2F2F2"/>
<path d="M230.067 279.483C230.067 288.826 178.564 296.4 115.033 296.4C51.5022 296.4 0 288.826 0 279.483C0 270.141 51.5022 262.567 115.033 262.567C178.564 262.567 230.067 270.141 230.067 279.483Z" fill="#F2F2F2"/>
<path fill-rule="evenodd" clip-rule="evenodd" d="M420.5 264.39H427.34V242.169H420.5V264.39Z" fill="#DCEEFF"/>
<path fill-rule="evenodd" clip-rule="evenodd" d="M477.473 264.39H484.313V242.169H477.473V264.39Z" fill="#DCEEFF"/>
<path fill-rule="evenodd" clip-rule="evenodd" d="M444.76 264.39H451.6V242.169H444.76V264.39Z" fill="#B6D4FF"/>
<path fill-rule="evenodd" clip-rule="evenodd" d="M501.733 264.39H508.573V242.169H501.733V264.39Z" fill="#B6D4FF"/>
<path fill-rule="evenodd" clip-rule="evenodd" d="M444.721 246.112H508.533V57.3526H444.721V246.112Z" fill="#B6D4FF"/>
<path fill-rule="evenodd" clip-rule="evenodd" d="M420.629 246.112H484.442V57.3526H420.629V246.112Z" fill="#DCEEFF"/>
<path fill-rule="evenodd" clip-rule="evenodd" d="M464.055 44.517C464.055 49.9406 461.19 54.6992 456.893 57.3525H441.116C436.818 54.6992 433.953 49.9406 433.953 44.517C433.953 41.9931 434.574 39.6169 435.668 37.5302H462.34C463.434 39.6169 464.055 41.9931 464.055 44.517Z" fill="#DCEEFF"/>
<path fill-rule="evenodd" clip-rule="evenodd" d="M468.057 57.3492H474.562V32.5H468.057V57.3492Z" fill="#DCEEFF"/>
<path fill-rule="evenodd" clip-rule="evenodd" d="M461.552 57.3492H468.057V32.5H461.552V57.3492Z" fill="#CCE3FF"/>
<path fill-rule="evenodd" clip-rule="evenodd" d="M474.562 57.3492H481.067V32.5H474.562V57.3492Z" fill="#CCE3FF"/>
<path fill-rule="evenodd" clip-rule="evenodd" d="M498.542 57.3492H481.067V32.5H498.542C499.272 32.5 499.863 33.0916 499.863 33.8219V56.0273C499.863 56.7574 499.272 57.3492 498.542 57.3492Z" fill="#B6D4FF"/>
<path fill-rule="evenodd" clip-rule="evenodd" d="M486.8 42.3765H494.131V39.916H486.8V42.3765Z" fill="#CCE3FF"/>
<path fill-rule="evenodd" clip-rule="evenodd" d="M426.341 239.892H478.754V185.563H426.341V239.892Z" fill="#CCE3FF"/>
<path fill-rule="evenodd" clip-rule="evenodd" d="M426.341 239.892H444.423V185.563H426.341V239.892Z" fill="#B6D4FF"/>
<path fill-rule="evenodd" clip-rule="evenodd" d="M426.341 178.821H478.754V124.492H426.341V178.821Z" fill="#CCE3FF"/>
<path fill-rule="evenodd" clip-rule="evenodd" d="M426.341 178.821H444.423V124.492H426.341V178.821Z" fill="#B6D4FF"/>
<path fill-rule="evenodd" clip-rule="evenodd" d="M426.341 117.749H478.754V63.4199H426.341V117.749Z" fill="#CCE3FF"/>
<path fill-rule="evenodd" clip-rule="evenodd" d="M426.341 117.749H444.423V63.4199H426.341V117.749Z" fill="#B6D4FF"/>
<path fill-rule="evenodd" clip-rule="evenodd" d="M438.891 239.892H444.078V220.076H438.891V239.892Z" fill="#DCEEFF"/>
<path fill-rule="evenodd" clip-rule="evenodd" d="M433.703 239.892H438.891V220.076H433.703V239.892Z" fill="#CCE3FF"/>
<path fill-rule="evenodd" clip-rule="evenodd" d="M444.078 239.892H449.266V220.076H444.078V239.892Z" fill="#CCE3FF"/>
<path fill-rule="evenodd" clip-rule="evenodd" d="M462.933 239.892H449.266V220.076H462.933C463.663 220.076 464.255 220.668 464.255 221.398V238.57C464.255 239.3 463.663 239.892 462.933 239.892Z" fill="#B6D4FF"/>
<path fill-rule="evenodd" clip-rule="evenodd" d="M451.487 224.925H462.034V222.963H451.487V224.925Z" fill="#CCE3FF"/>
<path fill-rule="evenodd" clip-rule="evenodd" d="M453.837 227.952H459.684V225.99H453.837V227.952Z" fill="#CCE3FF"/>
<path fill-rule="evenodd" clip-rule="evenodd" d="M457.048 109.335C456.646 112.715 454.934 115.695 452.434 117.749H436.083C433.583 115.695 431.871 112.715 431.466 109.335H457.048Z" fill="#DCEEFF"/>
<path fill-rule="evenodd" clip-rule="evenodd" d="M457.048 102.311C456.287 108.698 450.85 113.653 444.258 113.653C437.664 113.653 432.228 108.698 431.467 102.311H457.048Z" fill="#DCEEFF"/>
<path fill-rule="evenodd" clip-rule="evenodd" d="M457.048 95.2977C456.646 98.6772 454.934 101.657 452.434 103.712H436.083C433.583 101.657 431.871 98.6772 431.466 95.2977H457.048Z" fill="#DCEEFF"/>
<path fill-rule="evenodd" clip-rule="evenodd" d="M457.048 88.2735C456.287 94.6607 450.85 99.6159 444.258 99.6159C437.664 99.6159 432.228 94.6607 431.467 88.2735H457.048Z" fill="#DCEEFF"/>
<path fill-rule="evenodd" clip-rule="evenodd" d="M448.625 165.769C448.625 170.743 448.095 175.292 447.211 178.821H437.945C437.063 175.292 436.53 170.743 436.53 165.769" fill="#ECF6FF"/>
<path fill-rule="evenodd" clip-rule="evenodd" d="M449.797 172.229C450.057 170.914 449.201 169.637 447.886 169.377L448.447 166.532C451.334 167.102 453.212 169.904 452.642 172.791L452.642 172.791C452.072 175.677 449.27 177.556 446.384 176.986L446.945 174.141C448.26 174.4 449.537 173.545 449.797 172.229" fill="#ECF6FF"/>
<path fill-rule="evenodd" clip-rule="evenodd" d="M467.185 165.769C467.185 170.743 466.655 175.292 465.771 178.821H456.505C455.623 175.292 455.09 170.743 455.09 165.769" fill="#ECF6FF"/>
<path fill-rule="evenodd" clip-rule="evenodd" d="M466.349 172.229C466.608 170.914 465.752 169.637 464.437 169.377L464.999 166.532C467.885 167.102 469.763 169.904 469.194 172.791L469.194 172.791C468.623 175.677 465.822 177.556 462.935 176.986L463.497 174.141C464.812 174.4 466.089 173.545 466.349 172.229" fill="#ECF6FF"/>
<path fill-rule="evenodd" clip-rule="evenodd" d="M273.857 263.974H269.123V169.158H273.857V263.974Z" fill="#DCEEFF"/>
<path fill-rule="evenodd" clip-rule="evenodd" d="M278.592 263.974H273.858V169.158H278.592V263.974Z" fill="#B6D4FF"/>
<path fill-rule="evenodd" clip-rule="evenodd" d="M236.674 263.974H231.94V169.158H236.674V263.974Z" fill="#DCEEFF"/>
<path fill-rule="evenodd" clip-rule="evenodd" d="M241.409 263.974H236.675V169.158H241.409V263.974Z" fill="#B6D4FF"/>
<path fill-rule="evenodd" clip-rule="evenodd" d="M273.857 208.994H236.674V169.158H273.857V208.994Z" fill="#DCEEFF"/>
<path fill-rule="evenodd" clip-rule="evenodd" d="M291.272 169.158H167.009V162.851H291.272V169.158Z" fill="#B6D4FF"/>
<path fill-rule="evenodd" clip-rule="evenodd" d="M176.285 169.158H126.247V162.851H176.285V169.158Z" fill="#DCEEFF"/>
<path fill-rule="evenodd" clip-rule="evenodd" d="M143.762 263.974H138.699V169.158H143.762V263.974Z" fill="#DCEEFF"/>
<path fill-rule="evenodd" clip-rule="evenodd" d="M148.824 263.974H143.762V169.158H148.824V263.974Z" fill="#B6D4FF"/>
<path fill-rule="evenodd" clip-rule="evenodd" d="M183.675 263.974H178.613V169.158H183.675V263.974Z" fill="#DCEEFF"/>
<path fill-rule="evenodd" clip-rule="evenodd" d="M183.675 217.299H143.762V169.185H183.675V217.299Z" fill="#DCEEFF"/>
<path fill-rule="evenodd" clip-rule="evenodd" d="M221.814 217.276H188.737V169.162H221.814V217.276Z" fill="#B6D4FF"/>
<path fill-rule="evenodd" clip-rule="evenodd" d="M188.737 263.974H183.675V169.158H188.737V263.974Z" fill="#B6D4FF"/>
<path fill-rule="evenodd" clip-rule="evenodd" d="M188.737 177.588H138.699V169.158H188.737V177.588Z" fill="#B6D4FF"/>
<path fill-rule="evenodd" clip-rule="evenodd" d="M278.592 177.588H231.94V169.158H278.592V177.588Z" fill="#B6D4FF"/>
<path fill-rule="evenodd" clip-rule="evenodd" d="M216.47 190.419H194.08V173.744H216.47V190.419Z" fill="#DCEEFF"/>
<path fill-rule="evenodd" clip-rule="evenodd" d="M216.47 211.556H194.08V194.881H216.47V211.556Z" fill="#DCEEFF"/>
<path fill-rule="evenodd" clip-rule="evenodd" d="M201.769 182.082C201.769 184.057 203.339 185.658 205.275 185.658C207.212 185.658 208.782 184.057 208.782 182.082C208.782 180.107 207.212 178.506 205.275 178.506C203.339 178.506 201.769 180.107 201.769 182.082Z" fill="#B6D4FF"/>
<path fill-rule="evenodd" clip-rule="evenodd" d="M201.768 203.218C201.768 205.193 203.339 206.795 205.275 206.795C207.212 206.795 208.782 205.193 208.782 203.218C208.782 201.243 207.212 199.642 205.275 199.642C203.339 199.642 201.768 201.243 201.768 203.218Z" fill="#B6D4FF"/>
<path fill-rule="evenodd" clip-rule="evenodd" d="M63.5411 230.565C63.5411 229.836 53.4888 229.245 41.0888 229.245C28.6887 229.245 18.6365 229.836 18.6365 230.565H63.5411Z" fill="#FD7880"/>
<path d="M58.2582 230.566C58.2582 230.93 50.5712 231.226 41.0888 231.226C31.6064 231.226 23.9194 230.93 23.9194 230.566C23.9194 230.201 31.6064 229.905 41.0888 229.905C50.5712 229.905 58.2582 230.201 58.2582 230.566Z" fill="#BB3939"/>
<path d="M64.7471 208.864C65.1129 200.425 60.263 190.886 56.449 185.134C55.8108 184.171 54.4633 184.761 54.5666 185.928C55.6829 198.534 53.3544 202.865 45.478 213.256C40.7019 219.557 41.1408 230.399 42.8198 239.211C43.0808 240.58 46.2429 240.317 46.7283 239.016C51.1311 227.219 64.3057 219.047 64.7471 208.864Z" fill="#618C93"/>
<path d="M21.1967 214.94C20.9667 208.967 23.6236 202.31 26.1214 197.647C26.7655 196.445 28.4147 197.017 28.3455 198.38C27.9019 207.104 29.6968 210.655 34.9604 218.471C37.5508 222.317 37.9935 228.268 37.5315 234.012C37.4033 235.606 32.6564 235.73 31.8642 234.341C27.8448 227.292 21.4556 221.661 21.1967 214.94Z" fill="#416B71"/>
<path d="M51.0276 179.018C47.76 166.242 38.1996 153.515 31.397 146.081C30.4463 145.043 28.9032 146.062 29.3875 147.385C36.3208 166.314 35.6181 173.572 31.274 191.932C28.6576 202.991 33.9028 219.189 39.6517 231.918C40.3194 233.396 43.9798 232.116 43.9565 230.494C43.6788 211.213 54.9994 194.547 51.0276 179.018Z" fill="#528087"/>
<path fill-rule="evenodd" clip-rule="evenodd" d="M41.0887 231.886C28.8439 231.886 18.8885 231.31 18.6411 230.593L25.24 268.866C25.24 269.596 32.3357 270.187 41.0887 270.187C49.8417 270.187 56.9374 269.596 56.9374 268.866L63.5363 230.593C63.2889 231.31 53.3335 231.886 41.0887 231.886Z" fill="#F85454"/>
<path opacity="0.6" fill-rule="evenodd" clip-rule="evenodd" d="M23.85 260.769L22.3787 252.236C23.0002 252.01 23.6626 251.712 24.2531 251.386C24.3129 251.302 24.4008 251.164 24.5146 250.951C24.6634 250.674 24.8143 250.352 24.9916 249.955C25.0284 249.873 25.0694 249.78 25.1133 249.681L25.1133 249.681C25.2508 249.37 25.4165 248.995 25.5684 248.677C25.8091 248.174 26.0146 247.763 26.1931 247.407L26.1931 247.407C26.5663 246.662 26.8215 246.152 27.0334 245.52L27.0457 245.48L27.0466 245.476L27.0466 245.476C27.062 245.425 27.0922 245.325 27.129 245.213C27.1935 245.017 27.3427 244.579 27.6099 244.108C27.831 243.717 28.4658 242.693 29.7783 242.097C31.4238 241.351 33.0215 241.739 34.0629 242.364C35.3088 243.112 36.0276 244.203 36.352 244.73C36.6238 245.172 36.981 245.864 37.0634 246.024L37.0805 246.057C37.2234 246.319 37.3576 246.567 37.4854 246.804L37.486 246.805L37.486 246.805C38.1173 247.974 38.5924 248.853 39.1945 249.686C40.1397 250.993 41.2287 251.909 42.7408 252.739C42.8415 252.794 42.9269 252.84 43.0002 252.877C43.0522 252.817 43.1091 252.748 43.1707 252.671C43.4375 252.334 43.7138 251.931 44.0086 251.471C44.1544 251.244 44.2945 251.019 44.4402 250.784L44.4603 250.752C44.5938 250.537 44.741 250.301 44.8808 250.084C45.7042 248.807 46.3382 247.485 47.1167 245.862C47.2395 245.606 47.366 245.343 47.4973 245.071L47.5078 245.039C47.5389 244.945 47.6064 244.744 47.7024 244.518C47.7526 244.4 47.8249 244.241 47.9222 244.063C48.0161 243.891 48.1648 243.643 48.3811 243.373C48.8493 242.789 49.6087 242.161 50.6871 241.885C51.7372 241.617 52.6455 241.797 53.236 242.011C54.1999 242.361 54.7823 242.971 54.8998 243.093L54.9096 243.104C55.0389 243.238 55.1445 243.365 55.2031 243.438C55.3679 243.627 55.4424 243.715 55.4826 243.763L55.5061 243.791L55.5064 243.791L55.5064 243.791C55.5116 243.797 55.5453 243.837 55.8577 244.179C57.4585 245.935 58.4424 246.622 59.2893 246.788C59.5637 246.841 59.7116 246.847 59.7737 246.846C59.7987 246.845 59.8119 246.844 59.816 246.843L59.8218 246.841C59.8268 246.84 59.8353 246.836 59.8476 246.831C59.8722 246.82 59.9147 246.799 59.9779 246.762C60.11 246.684 60.3096 246.549 60.6052 246.308C60.6938 246.236 60.7822 246.163 60.8706 246.089L59.2623 255.418C58.7157 255.389 58.1767 255.317 57.6453 255.213C55.8499 254.863 54.3177 254.089 53.0281 253.181C52.7357 253.703 52.426 254.224 52.0961 254.735C52.0316 254.835 51.945 254.975 51.84 255.144L51.84 255.144C51.41 255.838 50.6731 257.026 49.8974 258.004C49.0675 259.051 47.2005 261.211 44.3418 261.551C41.8055 261.852 39.9947 261.025 38.6091 260.264C36.1458 258.912 34.0307 257.195 32.2384 254.717L32.2345 254.711C32.1812 254.817 32.129 254.917 32.0788 255.011C31.5493 255.998 30.5413 257.667 28.7603 258.699C27.4199 259.476 25.6413 260.282 23.85 260.769ZM55.2832 243.54C55.2838 243.541 55.2786 243.535 55.2657 243.518C55.2762 243.531 55.2827 243.54 55.2832 243.54ZM42.6243 253.254C42.6243 253.254 42.6275 253.252 42.6339 253.248C42.6274 253.252 42.6242 253.255 42.6243 253.254ZM24.1855 251.474C24.1855 251.474 24.1872 251.472 24.1908 251.468C24.1873 251.472 24.1855 251.474 24.1855 251.474Z" fill="#BB3939"/>
<path fill-rule="evenodd" clip-rule="evenodd" d="M41.0888 231.886C28.6887 231.886 18.6365 231.295 18.6365 230.565L23.9194 230.565C23.9194 230.93 31.6064 231.226 41.0888 231.226C50.5712 231.226 58.2582 230.93 58.2582 230.565L63.5411 230.565C63.5411 231.295 53.4888 231.886 41.0888 231.886Z" fill="#FD7880"/>
<path d="M122.767 232.6L184.633 230.667V273.2L122.767 275.133V232.6Z" fill="#FEBB94"/>
<path d="M102.467 230.667L122.767 232.6V275.133L102.467 273.2V230.667Z" fill="#E7AA87"/>
<path d="M102.467 230.667L164.333 228.733L184.633 230.667L122.767 232.6L102.467 230.667Z" fill="#E7AA87"/>
<path fill-rule="evenodd" clip-rule="evenodd" d="M151.767 265.798C151.767 264.707 150.864 263.832 149.774 263.867L132.372 264.41C131.329 264.443 130.5 265.298 130.5 266.342C130.5 267.433 131.402 268.307 132.493 268.273L149.895 267.729C150.938 267.697 151.767 266.842 151.767 265.798Z" fill="#E3A37D"/>
<path d="M405.033 265.467H478.5V276.1H405.033V265.467Z" fill="#FBB737"/>
<path d="M478.5 276.1C478.5 278.769 462.054 280.933 441.767 280.933C421.479 280.933 405.033 278.769 405.033 276.1C405.033 273.431 421.479 271.267 441.767 271.267C462.054 271.267 478.5 273.431 478.5 276.1Z" fill="#FBB737"/>
<path fill-rule="evenodd" clip-rule="evenodd" d="M446.6 280.892V265.467H450.467V280.797C449.202 280.837 447.912 280.869 446.6 280.892ZM459.167 280.358C457.919 280.446 456.629 280.525 455.3 280.595V265.467H459.167V280.358ZM468.833 279.368C467.087 279.618 465.143 279.844 463.033 280.041V265.467H468.833V279.368Z" fill="#E9A82E"/>
<path d="M478.5 265.467C478.5 268.136 462.054 270.3 441.767 270.3C421.479 270.3 405.033 268.136 405.033 265.467C405.033 262.797 421.479 260.633 441.767 260.633C462.054 260.633 478.5 262.797 478.5 265.467Z" fill="#FAC562"/>
<path d="M468.833 265.467C468.833 267.068 456.715 268.367 441.767 268.367C426.818 268.367 414.7 267.068 414.7 265.467C414.7 263.865 426.818 262.567 441.767 262.567C456.715 262.567 468.833 263.865 468.833 265.467Z" fill="#E9A82E"/>
<path d="M395.367 252.9H468.833V263.533H395.367V252.9Z" fill="#FBB737"/>
<path d="M468.833 263.533C468.833 266.203 452.387 268.367 432.1 268.367C411.813 268.367 395.367 266.203 395.367 263.533C395.367 260.864 411.813 258.7 432.1 258.7C452.387 258.7 468.833 260.864 468.833 263.533Z" fill="#FBB737"/>
<path fill-rule="evenodd" clip-rule="evenodd" d="M436.933 268.325V252.9H440.8V268.23C439.535 268.271 438.245 268.303 436.933 268.325ZM449.5 267.791C448.253 267.88 446.962 267.959 445.633 268.028V252.9H449.5V267.791ZM459.167 266.801C457.42 267.051 455.476 267.277 453.367 267.475V252.9H459.167V266.801Z" fill="#E9A82E"/>
<path d="M468.833 252.9C468.833 255.569 452.387 257.733 432.1 257.733C411.813 257.733 395.367 255.569 395.367 252.9C395.367 250.231 411.813 248.067 432.1 248.067C452.387 248.067 468.833 250.231 468.833 252.9Z" fill="#FAC562"/>
<path d="M459.167 252.9C459.167 254.502 447.049 255.8 432.1 255.8C417.151 255.8 405.033 254.502 405.033 252.9C405.033 251.298 417.151 250 432.1 250C447.049 250 459.167 251.298 459.167 252.9Z" fill="#E9A82E"/>
<path d="M406.967 240.333H480.433V250.967H406.967V240.333Z" fill="#FBB737"/>
<path d="M480.433 250.967C480.433 253.636 463.987 255.8 443.7 255.8C423.413 255.8 406.967 253.636 406.967 250.967C406.967 248.297 423.413 246.133 443.7 246.133C463.987 246.133 480.433 248.297 480.433 250.967Z" fill="#FBB737"/>
<path fill-rule="evenodd" clip-rule="evenodd" d="M448.533 255.759V240.333H452.4V255.664C451.135 255.704 449.845 255.736 448.533 255.759ZM461.1 255.224C459.853 255.313 458.562 255.392 457.233 255.461V240.333H461.1V255.224ZM470.767 254.234C469.02 254.485 467.076 254.711 464.967 254.908V240.333H470.767V254.234Z" fill="#E9A82E"/>
<path d="M480.433 240.333C480.433 243.003 463.987 245.167 443.7 245.167C423.413 245.167 406.967 243.003 406.967 240.333C406.967 237.664 423.413 235.5 443.7 235.5C463.987 235.5 480.433 237.664 480.433 240.333Z" fill="#FAC562"/>
<path d="M470.767 240.333C470.767 241.935 458.649 243.233 443.7 243.233C428.752 243.233 416.633 241.935 416.633 240.333C416.633 238.732 428.752 237.433 443.7 237.433C458.649 237.433 470.767 238.732 470.767 240.333Z" fill="#E9A82E"/>
<path d="M401.167 227.767H474.633V238.4H401.167V227.767Z" fill="#FBB737"/>
<path d="M474.633 238.4C474.633 241.069 458.187 243.233 437.9 243.233C417.613 243.233 401.167 241.069 401.167 238.4C401.167 235.731 417.613 233.567 437.9 233.567C458.187 233.567 474.633 235.731 474.633 238.4Z" fill="#FBB737"/>
<path fill-rule="evenodd" clip-rule="evenodd" d="M442.733 243.192V227.767H446.6V243.097C445.336 243.137 444.045 243.169 442.733 243.192ZM455.3 242.658C454.053 242.746 452.762 242.825 451.433 242.895V227.767H455.3V242.658ZM464.967 241.668C463.22 241.918 461.276 242.144 459.167 242.341V227.767H464.967V241.668Z" fill="#E9A82E"/>
<path d="M474.633 227.767C474.633 230.436 458.187 232.6 437.9 232.6C417.613 232.6 401.167 230.436 401.167 227.767C401.167 225.097 417.613 222.933 437.9 222.933C458.187 222.933 474.633 225.097 474.633 227.767Z" fill="#FAC562"/>
<path d="M464.967 227.767C464.967 229.368 452.849 230.667 437.9 230.667C422.952 230.667 410.833 229.368 410.833 227.767C410.833 226.165 422.952 224.867 437.9 224.867C452.849 224.867 464.967 226.165 464.967 227.767Z" fill="#E9A82E"/>
<path d="M406.967 215.2H480.433V225.833H406.967V215.2Z" fill="#FBB737"/>
<path d="M480.433 225.833C480.433 228.503 463.987 230.667 443.7 230.667C423.413 230.667 406.967 228.503 406.967 225.833C406.967 223.164 423.413 221 443.7 221C463.987 221 480.433 223.164 480.433 225.833Z" fill="#FBB737"/>
<path fill-rule="evenodd" clip-rule="evenodd" d="M448.533 230.625V215.2H452.4V230.53C451.135 230.571 449.845 230.603 448.533 230.625ZM461.1 230.091C459.853 230.18 458.562 230.259 457.233 230.328V215.2H461.1V230.091ZM470.767 229.101C469.02 229.351 467.076 229.577 464.967 229.775V215.2H470.767V229.101Z" fill="#E9A82E"/>
<path d="M480.433 215.2C480.433 217.869 463.987 220.033 443.7 220.033C423.413 220.033 406.967 217.869 406.967 215.2C406.967 212.531 423.413 210.367 443.7 210.367C463.987 210.367 480.433 212.531 480.433 215.2Z" fill="#FAC562"/>
<path d="M470.767 215.2C470.767 216.802 458.649 218.1 443.7 218.1C428.752 218.1 416.633 216.802 416.633 215.2C416.633 213.598 428.752 212.3 443.7 212.3C458.649 212.3 470.767 213.598 470.767 215.2Z" fill="#E9A82E"/>
<path d="M393.433 202.633H466.9V213.267H393.433V202.633Z" fill="#FBB737"/>
<path d="M466.9 213.267C466.9 215.936 450.454 218.1 430.167 218.1C409.879 218.1 393.433 215.936 393.433 213.267C393.433 210.597 409.879 208.433 430.167 208.433C450.454 208.433 466.9 210.597 466.9 213.267Z" fill="#FBB737"/>
<path fill-rule="evenodd" clip-rule="evenodd" d="M435 218.059V202.633H438.867V217.964C437.602 218.004 436.312 218.036 435 218.059ZM447.567 217.524C446.319 217.613 445.029 217.692 443.7 217.761V202.633H447.567V217.524ZM457.233 216.534C455.487 216.785 453.543 217.011 451.433 217.208V202.633H457.233V216.534Z" fill="#E9A82E"/>
<path d="M466.9 202.633C466.9 205.303 450.454 207.467 430.167 207.467C409.879 207.467 393.433 205.303 393.433 202.633C393.433 199.964 409.879 197.8 430.167 197.8C450.454 197.8 466.9 199.964 466.9 202.633Z" fill="#FAC562"/>
<path d="M457.233 202.633C457.233 204.235 445.115 205.533 430.167 205.533C415.218 205.533 403.1 204.235 403.1 202.633C403.1 201.032 415.218 199.733 430.167 199.733C445.115 199.733 457.233 201.032 457.233 202.633Z" fill="#E9A82E"/>
<path d="M484.3 269.333H557.767V279.967H484.3V269.333Z" fill="#FBB737"/>
<path d="M557.767 279.967C557.767 282.636 541.321 284.8 521.033 284.8C500.746 284.8 484.3 282.636 484.3 279.967C484.3 277.297 500.746 275.133 521.033 275.133C541.321 275.133 557.767 277.297 557.767 279.967Z" fill="#FBB737"/>
<path fill-rule="evenodd" clip-rule="evenodd" d="M525.867 284.758V269.333H529.733V284.664C528.469 284.704 527.179 284.736 525.867 284.758ZM538.433 284.224C537.186 284.313 535.895 284.392 534.567 284.461V269.333H538.433V284.224ZM548.1 283.234C546.354 283.485 544.409 283.711 542.3 283.908V269.333H548.1V283.234Z" fill="#E9A82E"/>
<path d="M557.767 269.333C557.767 272.003 541.321 274.167 521.033 274.167C500.746 274.167 484.3 272.003 484.3 269.333C484.3 266.664 500.746 264.5 521.033 264.5C541.321 264.5 557.767 266.664 557.767 269.333Z" fill="#FAC562"/>
<path d="M548.1 269.333C548.1 270.935 535.982 272.233 521.033 272.233C506.085 272.233 493.967 270.935 493.967 269.333C493.967 267.732 506.085 266.433 521.033 266.433C535.982 266.433 548.1 267.732 548.1 269.333Z" fill="#E9A82E"/>
<path d="M470.767 256.767H544.233V267.4H470.767V256.767Z" fill="#FBB737"/>
<path d="M544.233 267.4C544.233 270.069 527.787 272.233 507.5 272.233C487.213 272.233 470.767 270.069 470.767 267.4C470.767 264.731 487.213 262.567 507.5 262.567C527.787 262.567 544.233 264.731 544.233 267.4Z" fill="#FBB737"/>
<path fill-rule="evenodd" clip-rule="evenodd" d="M512.333 272.192V256.767H516.2V272.097C514.935 272.137 513.645 272.169 512.333 272.192ZM524.9 271.658C523.653 271.746 522.362 271.825 521.033 271.895V256.767H524.9V271.658ZM534.567 270.668C532.82 270.918 530.876 271.144 528.767 271.341V256.767H534.567V270.668Z" fill="#E9A82E"/>
<path d="M544.233 256.767C544.233 259.436 527.787 261.6 507.5 261.6C487.213 261.6 470.767 259.436 470.767 256.767C470.767 254.097 487.213 251.933 507.5 251.933C527.787 251.933 544.233 254.097 544.233 256.767Z" fill="#FAC562"/>
<path d="M534.567 256.767C534.567 258.368 522.448 259.667 507.5 259.667C492.551 259.667 480.433 258.368 480.433 256.767C480.433 255.165 492.551 253.867 507.5 253.867C522.448 253.867 534.567 255.165 534.567 256.767Z" fill="#E9A82E"/>
<path d="M57.0333 241.3L118.9 239.367V281.9L57.0333 283.833V241.3Z" fill="#FEBB94"/>
<path d="M36.7333 239.367L57.0333 241.3V283.833L36.7333 281.9V239.367Z" fill="#EEB18D"/>
<path d="M36.7333 239.367L98.5999 237.433L118.9 239.367L57.0333 241.3L36.7333 239.367Z" fill="#FFCBAC"/>
<path fill-rule="evenodd" clip-rule="evenodd" d="M86.0333 274.498C86.0333 273.407 85.1309 272.533 84.0405 272.567L66.6386 273.11C65.5954 273.143 64.7666 273.998 64.7666 275.042C64.7666 276.133 65.669 277.007 66.7594 276.973L84.1612 276.43C85.2045 276.397 86.0333 275.542 86.0333 274.498Z" fill="#E3A37D"/>
<path d="M113.1 189.1L174.967 187.167V229.7L113.1 231.633V189.1Z" fill="#FEBB94"/>
<path d="M92.8 187.167L113.1 189.1V231.633L92.8 229.7V187.167Z" fill="#EEB18D"/>
<path d="M92.8 187.167L154.667 185.233L174.967 187.167L113.1 189.1L92.8 187.167Z" fill="#FFCBAC"/>
<path fill-rule="evenodd" clip-rule="evenodd" d="M142.1 222.298C142.1 221.207 141.198 220.333 140.107 220.367L122.705 220.91C121.662 220.943 120.833 221.798 120.833 222.842C120.833 223.933 121.736 224.807 122.826 224.773L140.228 224.23C141.271 224.197 142.1 223.342 142.1 222.298Z" fill="#E3A37D"/>
<path fill-rule="evenodd" clip-rule="evenodd" d="M334.714 24.1991C334.336 33.3122 329.515 38.7732 329.064 47.2782C328.485 58.2174 334.758 57.0612 334.283 66.038C334.036 70.6903 375.48 81.9207 387.16 67.2921C394.655 57.9051 387.221 56.7348 387.895 43.9993C388.563 31.3924 379.487 29.5 379.839 22.8535C380.307 14.0088 373.202 2.22417 361.602 1.60776C347.474 0.857307 335.286 10.4254 334.714 24.1991Z" fill="#19141E"/>
<path fill-rule="evenodd" clip-rule="evenodd" d="M355.835 45.5963C355.835 45.5963 359.989 45.9401 361.814 45.0653L355.91 48.3491L355.835 45.5963Z" fill="#CF3E83"/>
<path d="M365.351 37.8262C363.933 39.8443 364.323 42.6228 364.982 44.2693C365.204 44.8348 366.595 49.5515 366.822 49.7738C367.706 50.6361 356.093 54.9816 356.093 54.9816L355.835 45.5962C352.534 45.6117 348.681 45.2331 346.635 43.71C340.54 39.1727 340.939 24.5819 341.081 23.8585L346.694 18.2119C346.694 18.2119 354.881 14.9458 356.014 16.5782C358.086 19.5678 362.61 32.6935 366.456 31.4268C366.456 31.4268 366.193 27.4068 369.527 27.5885C372.011 27.7239 372.579 29.7526 372.516 30.9036C372.304 34.7892 367.255 35.1073 365.351 37.8262Z" fill="#F6BA96"/>
<path fill-rule="evenodd" clip-rule="evenodd" d="M347.538 30.9808L344.85 36.6271L347.616 36.7183L347.538 30.9808Z" fill="#125475"/>
<path fill-rule="evenodd" clip-rule="evenodd" d="M350.06 31.3657C350.058 32.5222 350.688 33.4566 351.468 33.4531C352.248 33.4495 352.881 32.5089 352.883 31.3528C352.885 30.1964 352.255 29.2619 351.475 29.2655C350.695 29.269 350.061 30.2096 350.06 31.3657Z" fill="#0D0B6D"/>
<path fill-rule="evenodd" clip-rule="evenodd" d="M342.769 30.7943C342.767 31.9507 343.398 32.8852 344.178 32.8816C344.958 32.8781 345.591 31.9375 345.593 30.7814C345.595 29.6249 344.964 28.6905 344.185 28.694C343.405 28.6976 342.771 29.6382 342.769 30.7943Z" fill="#0D0B6D"/>
<path fill-rule="evenodd" clip-rule="evenodd" d="M345.682 8.67299C345.408 8.36571 345.116 8.07271 344.81 7.79535C344.122 8.38534 343.471 9.01496 342.862 9.68454C339.585 13.2802 337.491 17.9534 337.208 23.146C337.201 23.2775 337.194 23.4057 337.19 23.5372H337.187L336.957 27.7445C337.12 27.747 337.281 27.7432 337.444 27.7364C340.634 27.5933 343.519 26.1884 345.554 23.9935C346.309 23.1782 346.948 22.2531 347.444 21.2446C347.523 21.0951 347.592 20.9388 347.661 20.789C348.007 19.991 348.264 19.1457 348.421 18.265C359.326 33.6658 366.456 31.4269 366.456 31.4269L365.423 23.3717L373.369 14.8247C373.369 14.8247 350.707 5.0336 345.682 8.67299Z" fill="#19141E"/>
<path fill-rule="evenodd" clip-rule="evenodd" d="M345.682 8.67299C345.408 8.36571 345.116 8.07271 344.81 7.79535C344.122 8.38534 343.471 9.01496 342.862 9.68454C339.585 13.2802 337.491 17.9534 337.208 23.146C337.201 23.2775 337.194 23.4057 337.19 23.5372H337.187L336.957 27.7445C337.12 27.747 337.281 27.7432 337.444 27.7364C340.634 27.5933 343.519 26.1884 345.554 23.9935C346.309 23.1782 346.948 22.2531 347.444 21.2446C347.523 21.0951 347.592 20.9388 347.661 20.789C348.007 19.991 348.264 19.1457 348.421 18.265C359.326 33.6658 366.456 31.4269 366.456 31.4269L365.423 23.3717L373.369 14.8247C373.369 14.8247 350.707 5.0336 345.682 8.67299Z" fill="#19141E"/>
<path fill-rule="evenodd" clip-rule="evenodd" d="M348.319 39.0676C348.319 39.0677 348.319 39.0678 348.147 39.5192C347.974 39.9707 347.975 39.9708 347.975 39.9709L347.975 39.9712L347.977 39.9717L347.98 39.9729L347.989 39.9761C347.995 39.9784 348.004 39.9814 348.014 39.9848C348.034 39.9915 348.061 40.0001 348.095 40.0096C348.162 40.0286 348.255 40.0515 348.371 40.0714C348.604 40.1113 348.929 40.1394 349.319 40.0995C350.109 40.0187 351.133 39.6623 352.168 38.6276L351.484 37.944C350.609 38.8191 349.793 39.0794 349.221 39.1379C348.93 39.1676 348.694 39.146 348.535 39.1187C348.455 39.1051 348.395 39.0901 348.358 39.0795C348.34 39.0743 348.327 39.0702 348.32 39.068L348.315 39.0662C348.315 39.0661 348.315 39.0662 348.316 39.0665L348.317 39.067L348.318 39.0674L348.319 39.0676Z" fill="#1C295E"/>
<path opacity="0.396996" fill-rule="evenodd" clip-rule="evenodd" d="M355.841 45.5966C355.841 45.5966 359.995 45.9401 361.821 45.0656L355.917 48.3494L355.841 45.5966Z" fill="black"/>
<path fill-rule="evenodd" clip-rule="evenodd" d="M354.546 51.1462C355.086 50.6687 355.438 50.4203 355.438 50.4203L367.298 49.8078C367.298 49.8078 366.288 52.4516 365.219 55.7995C363.105 62.418 358.09 63.9053 353.72 63.8979C349.638 63.8915 348.251 60.0206 350.904 55.534C352.129 53.4614 353.617 51.9661 354.546 51.1462ZM336.828 95.7916C340.704 92.1828 344.6 86.5946 344.6 86.5946L341.34 77.3169L331.68 85.5455L307.469 100.94C304.868 101.386 301.57 101.985 300.949 102.25C299.895 102.701 295.914 105.966 295.308 106.762C294.703 107.558 294.124 112.926 294.124 112.926C295.843 113.769 296.398 111.21 296.398 111.21C296.398 111.21 296.773 113.359 297.32 113.785C302.467 117.796 304.316 115.038 304.463 114.622C304.792 113.687 302.775 113.386 302.775 113.386C302.775 113.386 309.828 110.263 312.193 106.04C317.213 104.356 333.732 98.6724 336.828 95.7916ZM391.775 119.43L390.042 126.652C390.042 126.652 389.909 128.296 389.995 130.201C389.999 130.287 390.002 130.372 390.006 130.455L390.006 130.455C390.088 132.215 390.142 133.395 389.314 136.269C388.709 138.366 391.597 137.332 392.265 136.11C392.512 135.659 392.631 134.768 392.755 133.843C392.976 132.182 393.213 130.409 394.23 130.858C395.814 131.557 397 136.146 397.391 140.59C397.452 141.288 398.055 141.775 398.452 141.918C399.097 142.151 399.522 139.3 399.522 139.3C399.522 139.3 399.987 140.209 400.867 139.668C401.178 139.476 401.874 137.476 401.874 137.476C401.874 137.476 402.497 136.447 402.738 135.368C403.162 133.462 403.206 130.037 402.909 129.077C402.234 126.894 400.94 123.285 399.67 121.225C399.721 115.491 399.815 92.9528 398.211 88.7939C396.369 84.0205 393.036 77.6209 393.036 77.6209L383.152 84.23L388.453 92.8156L391.775 119.43Z" fill="#F6BA96"/>
<path opacity="0.146833" fill-rule="evenodd" clip-rule="evenodd" d="M307.843 105.972C307.843 105.972 307.843 105.972 307.564 105.577C307.284 105.183 307.285 105.182 307.285 105.182L307.285 105.182C307.285 105.182 307.285 105.182 307.285 105.182L307.281 105.185C307.277 105.188 307.27 105.192 307.261 105.199C307.242 105.211 307.213 105.23 307.174 105.255C307.096 105.304 306.979 105.375 306.828 105.457C306.526 105.621 306.091 105.83 305.565 106.003C304.51 106.35 303.128 106.545 301.717 106.005C301.44 105.899 301.158 105.937 300.929 106.007C300.697 106.077 300.461 106.196 300.237 106.324C300.023 106.447 299.796 106.592 299.574 106.735C299.561 106.743 299.549 106.751 299.537 106.758C299.298 106.911 299.06 107.063 298.819 107.201C298.327 107.482 297.883 107.67 297.493 107.693C297.144 107.713 296.805 107.606 296.47 107.192L295.718 107.799C296.246 108.452 296.884 108.697 297.549 108.658C298.173 108.621 298.78 108.337 299.299 108.04C299.564 107.889 299.821 107.724 300.059 107.572L300.087 107.554C300.317 107.407 300.525 107.274 300.718 107.163C300.921 107.047 301.082 106.97 301.209 106.932C301.328 106.896 301.371 106.908 301.372 106.908C303.062 107.555 304.688 107.31 305.868 106.921C306.46 106.726 306.948 106.492 307.29 106.306C307.461 106.213 307.596 106.131 307.69 106.072C307.737 106.043 307.774 106.019 307.799 106.001C307.812 105.993 307.822 105.986 307.83 105.981L307.838 105.975L307.841 105.973L307.842 105.972L307.843 105.972Z" fill="black"/>
<path fill-rule="evenodd" clip-rule="evenodd" d="M365.219 55.7995C366.211 52.6927 367.153 50.1921 367.283 49.8482C370.667 49.8334 374.233 50.3662 378.033 52.8118C383.187 56.1274 390.917 66.5475 396.459 76.653L379.531 86.6322L376.809 82.4949C376.809 82.4949 374.066 86.1714 373.305 91.0982C372.722 94.865 373.014 97.9261 373.014 97.9261H345.906L343.619 87.6955L333.315 83.9771C334.059 74.8518 338.339 59.5881 343.998 54.2811C346.97 51.4934 350.179 50.8462 355.333 50.4979C354.828 50.8782 352.612 52.6454 350.904 55.534C348.251 60.0207 349.638 63.8915 353.72 63.898C358.09 63.9054 363.105 62.418 365.219 55.7995ZM365.683 49.8913L365.127 49.9199C365.312 49.9095 365.497 49.8999 365.683 49.8913Z" fill="#72A065"/>
<path opacity="0.204148" fill-rule="evenodd" clip-rule="evenodd" d="M342.592 86.9569C343.644 90.1145 344.762 93.467 345.133 98.1823L346.418 98.0811C346.034 93.196 344.844 89.6291 343.78 86.4351C343.396 85.2833 343.028 84.1801 342.72 83.081C341.561 78.9477 341.141 74.6275 343.673 67.3949L342.457 66.9689C339.834 74.4596 340.251 79.0502 341.479 83.4289C341.812 84.6184 342.197 85.774 342.592 86.9569Z" fill="black"/>
<path opacity="0.195638" d="M354.213 50.5776C354.21 50.5803 354.206 50.5831 354.203 50.5859C353.401 51.3096 352.37 52.3653 351.622 53.3331C351.162 53.9291 350.735 54.5536 350.35 55.206C347.49 60.0425 349.033 64.535 353.718 64.5424C359.57 64.5523 363.903 62.037 365.833 55.9956C366.298 54.5385 366.786 53.108 367.266 51.7653C367.434 51.2955 367.59 50.8703 367.728 50.4974C367.776 50.3671 367.819 50.2527 367.856 50.1552C367.878 50.097 367.917 49.8676 367.925 49.8479H367.283C367.107 49.8479 366.64 49.7783 366.578 49.8999C366.392 50.2652 366.223 50.8564 366.053 51.3311C365.568 52.687 365.075 54.1311 364.605 55.6034C362.865 61.0513 359.055 63.2625 353.721 63.2535C350.186 63.2479 349.049 59.9374 351.459 55.8619C351.817 55.2567 352.213 54.6761 352.642 54.1213C353.34 53.2177 354.089 52.4248 354.837 51.7501C355.097 51.515 355.338 51.312 355.554 51.1418C355.666 51.0527 356.201 50.5562 356.345 50.4285L354.213 50.5776Z" fill="black"/>
<path opacity="0.204148" fill-rule="evenodd" clip-rule="evenodd" d="M376.676 83.1073L370.397 73.5937L369.321 74.3037L375.6 83.8173L376.676 83.1073Z" fill="black"/>
<path fill-rule="evenodd" clip-rule="evenodd" d="M344.446 265.232L343.672 258.479L350.469 255.323L351.174 274.665L324.639 274.619C330.05 269.006 344.446 265.232 344.446 265.232ZM383.952 256.634L391.473 256.797L391.397 265.394C391.397 265.394 398.653 266.652 401.167 274.665H382.302L383.12 265.01L383.952 256.634Z" fill="#0D0B6D"/>
<path fill-rule="evenodd" clip-rule="evenodd" d="M383.136 257.111L390.472 254.534L391.455 265.01L383.178 265.394L383.136 257.111ZM343.495 259.626L350.625 256.792L350.844 264.964L343.556 265.232L343.495 259.626Z" fill="#F6BA96"/>
<path d="M393.088 258.513C392.752 248.037 390.58 181.865 388.349 142.496C386.802 115.208 375.23 100.185 373.058 97.5889H345.485C345.434 97.9375 341.723 124.21 341.044 179.184C340.434 228.416 341.063 255.326 341.141 258.491L341.141 258.492L340.261 258.491L340.255 262.729L354.533 262.752L354.539 258.514L354.046 258.513L354.046 258.513L361.297 172.36L363.469 146.575L379.954 258.491L379.954 258.491L379.241 258.49L379.49 262.729L394.273 262.753L394.024 258.515L393.088 258.513L393.088 258.513Z" fill="#2F2F3D"/>
<path opacity="0.398065" fill-rule="evenodd" clip-rule="evenodd" d="M363.469 146.576L360.502 121.352L361.298 172.36L363.469 146.576Z" fill="#0A0A0F"/>
<path fill-rule="evenodd" clip-rule="evenodd" d="M247.072 263.645L247.163 255.767L237.051 250.651L235.583 273.171H270.619C264.658 266.427 247.072 263.645 247.072 263.645ZM206.399 263.952L206.49 255.104L196.794 261.911L195.239 263.463L192.841 273.171H216.821C213.806 264.923 206.399 263.952 206.399 263.952Z" fill="#0D0B6D"/>
<path fill-rule="evenodd" clip-rule="evenodd" d="M207.461 255.104L197.348 252.051L195.239 263.463L206.399 263.952L207.461 255.104ZM247.163 255.767L237.051 252.715L236.236 263.155L247.072 263.645L247.163 255.767Z" fill="#F6BA96"/>
<path d="M217.2 251.389H218.788L217.817 260.491H191.079L192.05 251.389H193.819L213.727 102.422L226.235 102.422L256.658 102.422L254.132 251.551H255.496V260.329H228.758V251.551H230.271L228.757 195.624L217.2 251.389Z" fill="#2F2F3D"/>
<path opacity="0.200358" fill-rule="evenodd" clip-rule="evenodd" d="M228.31 200.794L239.451 128.673L229.32 221.625L228.31 200.794Z" fill="black"/>
<path d="M264.343 73.1693L258.133 76.485L256.596 102.492H213.744L213.025 76.253L199.476 66.0611C199.476 66.0611 205.866 53.1722 216.799 48.0424C219.647 46.7084 223.23 45.9995 226.81 45.6612C233.989 44.9813 241.146 45.7707 242.309 45.9125L242.473 45.9319C242.676 45.9931 242.88 46.0543 243.076 46.1155C243.079 46.1155 243.083 46.1187 243.086 46.1187C243.666 46.2992 244.213 46.4732 244.735 46.644C251.989 49.0316 254.283 50.965 258.346 56.6876C262.209 62.1267 264.343 73.1693 264.343 73.1693Z" fill="#5E93D1"/>
<path opacity="0.200219" fill-rule="evenodd" clip-rule="evenodd" d="M225.337 69.4653L216.605 79.6634L212.572 76.9179L213.479 75.5861L216.32 77.5199L224.113 68.4175L225.337 69.4653Z" fill="black"/>
<path fill-rule="evenodd" clip-rule="evenodd" d="M238.339 51.9026C231.196 51.4805 227.867 47.3271 226.81 45.6612C233.989 44.9813 241.146 45.7707 242.309 45.9125C242.583 45.9834 242.841 46.0511 243.076 46.1155L243.081 46.1172L243.086 46.1187C244.081 46.3926 244.716 46.6053 244.716 46.6053C244.716 46.6053 244.723 46.6182 244.736 46.644C244.935 47.1434 246.872 52.4021 238.339 51.9026ZM256.489 106.45L258.1 76.4833L264.222 73.1L263.973 99.8445L267.146 113.403C269.105 115.65 271.366 118.303 271.708 118.956C272.328 120.14 273.475 126.001 273.42 127.159C273.365 128.318 269.793 133.521 269.793 133.521C267.577 132.993 269.024 130.306 269.024 130.306C269.024 130.306 267.04 131.938 266.214 131.911C258.441 131.653 258.858 127.826 259.042 127.347C259.455 126.271 261.529 127.502 261.529 127.502C261.529 127.502 257.926 120.393 258.393 114.961C258.016 114.248 257.809 112.811 257.587 111.263C257.333 109.5 257.059 107.594 256.489 106.45ZM229.251 98.0346C228.198 97.6544 226.731 96.9305 225.705 96.3551C218.095 97.0706 195.938 98.7376 193.7 94.1389C189.239 84.9678 200.981 67.2198 200.981 67.2198L213.977 76.309L209.847 83.3251L226.153 87.7577L228.491 86.5335C228.491 86.5335 229.73 85.8146 231.893 85.0619C232.692 84.7838 233.377 84.6513 234.094 84.5124C235.317 84.2756 236.635 84.0206 238.776 82.9942C242.633 81.1463 241.043 84.4519 239.359 85.6368C238.806 86.0263 238.171 86.2331 237.562 86.4317C236.724 86.7046 235.934 86.9618 235.474 87.6561C235.529 87.6908 235.587 87.7293 235.65 87.7711C236.312 88.2134 237.521 89.0205 242.605 89.4886C243.603 89.5804 246.84 89.1309 246.84 89.1309C246.912 89.1302 246.989 89.1288 247.071 89.1274C248.099 89.1094 249.855 89.0786 250.141 90.095C250.218 90.367 249.916 90.7211 249.916 90.7211C249.916 90.7211 251.181 90.6148 251.433 91.7367C251.532 92.1779 248.799 93.0537 248.799 93.0537C248.799 93.0537 250.187 93.1871 250.341 94.0248C250.385 94.2617 242.467 97.0579 242.467 97.0579L244.255 96.8897L246.087 96.5188C246.087 96.5188 247.073 96.5485 247.248 97.3357C247.317 97.6482 245.672 98.2482 243.738 98.8105C240.727 99.685 238.466 99.6673 236.216 99.4101C235.67 99.3477 235.196 99.3033 234.762 99.2626C233.033 99.1007 231.915 98.996 229.251 98.0346Z" fill="#F6BA96"/>
<path opacity="0.199382" fill-rule="evenodd" clip-rule="evenodd" d="M262.727 118.548C262.727 118.547 262.727 118.547 263.193 118.42C263.66 118.293 263.66 118.293 263.66 118.293L263.66 118.293L263.66 118.293L263.661 118.299C263.663 118.305 263.666 118.314 263.669 118.327C263.677 118.352 263.689 118.391 263.706 118.443C263.74 118.546 263.794 118.697 263.87 118.884C264.022 119.258 264.263 119.77 264.614 120.319C265.318 121.42 266.448 122.639 268.18 123.217C268.485 123.318 268.699 123.543 268.852 123.769C269.006 123.996 269.128 124.272 269.235 124.551C269.336 124.818 269.432 125.114 269.527 125.407C269.532 125.423 269.537 125.438 269.542 125.454C269.643 125.768 269.746 126.081 269.861 126.384C270.097 127.001 270.365 127.512 270.719 127.836C271.044 128.133 271.469 128.3 272.126 128.174L272.308 129.123C271.361 129.305 270.624 129.059 270.067 128.549C269.539 128.067 269.206 127.378 268.958 126.729C268.832 126.399 268.723 126.063 268.622 125.752L268.61 125.714C268.512 125.412 268.424 125.138 268.331 124.895C268.234 124.639 268.142 124.445 268.051 124.31C267.958 124.173 267.896 124.141 267.874 124.134L267.874 124.134C265.863 123.463 264.577 122.055 263.8 120.84C263.41 120.231 263.144 119.664 262.975 119.248C262.89 119.04 262.829 118.868 262.789 118.747C262.769 118.686 262.754 118.638 262.744 118.605C262.739 118.588 262.735 118.574 262.732 118.565L262.729 118.553L262.728 118.549L262.727 118.548L262.727 118.548Z" fill="black"/>
<path d="M241.454 46.5997L241.179 37.1579C241.179 37.1579 252.714 38.0714 255.181 36.7964C255.181 36.7964 258.197 21.3413 254.6 12.7826L254.527 12.4493L230.186 9.61694L229.08 23.874C228.26 21.4687 221.234 18.3772 219.466 21.8221C215.632 29.2867 229.339 34.3128 229.339 34.3128L227.947 46.7133" fill="#F6BA96"/>
<path opacity="0.403344" fill-rule="evenodd" clip-rule="evenodd" d="M241.179 37.1578L233.401 35.4989L241.142 40.7002L241.179 37.1578Z" fill="black"/>
<path fill-rule="evenodd" clip-rule="evenodd" d="M247.595 21.7285L250.283 28.2645L247.062 28.3054L247.595 21.7285Z" fill="#125475"/>
<path fill-rule="evenodd" clip-rule="evenodd" d="M244.53 23.5858C244.691 24.466 244.103 25.3085 243.218 25.4675C242.333 25.6268 241.486 25.0425 241.326 24.1623C241.166 23.2821 241.754 22.4399 242.638 22.2806C243.523 22.1213 244.371 22.7056 244.53 23.5858Z" fill="#0D0B6D"/>
<path fill-rule="evenodd" clip-rule="evenodd" d="M252.984 23.5858C253.144 24.466 252.557 25.3085 251.672 25.4675C250.787 25.6268 249.94 25.0425 249.78 24.1623C249.62 23.2821 250.208 22.4399 251.092 22.2806C251.977 22.1213 252.824 22.7056 252.984 23.5858Z" fill="#0D0B6D"/>
<path d="M231.392 27.3885C231.347 27.2789 231.298 27.1654 231.242 27.0481C229.384 23.0931 226.502 21.4311 224.608 20.7414C223.574 19.2191 222.758 17.5166 222.487 15.7234C221.629 10.05 223.13 4.86459 226.48 3.37852C229.87 1.87404 237.902 2.6283 246.92 2.6283C257.749 2.6283 258.345 1.56665 258.345 1.56665C258.345 1.56665 267.89 14.962 250.268 14.5727C241.033 14.3685 235.778 14.5988 235.778 14.5988L231.392 27.3885Z" fill="#19141E"/>
<path fill-rule="evenodd" clip-rule="evenodd" d="M245.518 32.4695C245.518 32.4695 247.176 33.8227 249.235 32.9554L245.518 32.4695Z" fill="white"/>
<path fill-rule="evenodd" clip-rule="evenodd" d="M245.213 32.8443C245.213 32.8441 245.212 32.844 245.518 32.4695C245.824 32.095 245.823 32.0949 245.823 32.0948L245.823 32.0945L245.823 32.0942L245.822 32.0938L245.822 32.0938C245.822 32.0938 245.822 32.094 245.823 32.0944C245.824 32.0954 245.827 32.0976 245.831 32.1009C245.84 32.1075 245.854 32.1184 245.874 32.1328C245.915 32.1616 245.977 32.2041 246.059 32.2536C246.224 32.3531 246.464 32.4788 246.761 32.5804C247.352 32.7827 248.155 32.8861 249.047 32.51L249.423 33.4009C248.257 33.892 247.201 33.7525 246.448 33.495C246.073 33.3667 245.77 33.2083 245.559 33.0811C245.454 33.0174 245.371 32.9609 245.312 32.9191C245.283 32.8981 245.26 32.8808 245.243 32.868C245.235 32.8616 245.228 32.8563 245.223 32.8523L245.216 32.8472L245.214 32.8453L245.213 32.8446L245.213 32.8443Z" fill="#252535"/>
</g>
<defs>
<clipPath id="clip0">
<rect width="580" height="297" fill="white"/>
</clipPath>
</defs>
</svg>
