<svg width="580" height="291" viewBox="0 0 580 291" fill="none" xmlns="http://www.w3.org/2000/svg">
<g clip-path="url(#clip0)">
<path d="M0 -67.6666H580V319H0V-67.6666Z" fill="none"/>
<path d="M420.5 254.717C420.5 266.729 331.129 276.467 220.883 276.467C110.638 276.467 21.2667 266.729 21.2667 254.717C21.2667 242.704 110.638 232.967 220.883 232.967C331.129 232.967 420.5 242.704 420.5 254.717Z" fill="#F2F2F2"/>
<path d="M524.9 269.217C524.9 281.229 469.286 290.967 400.683 290.967C332.08 290.967 276.467 281.229 276.467 269.217C276.467 257.204 332.08 247.467 400.683 247.467C469.286 247.467 524.9 257.204 524.9 269.217Z" fill="#F2F2F2"/>
<path d="M580 256.65C580 265.993 520.708 273.567 447.567 273.567C374.426 273.567 315.133 265.993 315.133 256.65C315.133 247.307 374.426 239.733 447.567 239.733C520.708 239.733 580 247.307 580 256.65Z" fill="#F2F2F2"/>
<path fill-rule="evenodd" clip-rule="evenodd" d="M458.577 110.81H507.636L514.261 44.6278H465.202L458.577 110.81Z" fill="#DCEEFF"/>
<path fill-rule="evenodd" clip-rule="evenodd" d="M464.473 43.8223H515.152L508.366 111.616H457.687L464.473 43.8223ZM465.931 45.4334L459.467 110.005H506.908L513.371 45.4334H465.931Z" fill="#DCEEFF"/>
<path fill-rule="evenodd" clip-rule="evenodd" d="M455.929 110.81H505.901L512.526 44.6278H462.554L455.929 110.81Z" fill="white"/>
<path fill-rule="evenodd" clip-rule="evenodd" d="M461.825 43.8223H513.416L506.63 111.616H455.039L461.825 43.8223ZM463.283 45.4334L456.819 110.005H505.172L511.636 45.4334H463.283Z" fill="#DCEEFF"/>
<path fill-rule="evenodd" clip-rule="evenodd" d="M465.5 102.072H498.08L502.955 53.3667H470.376L465.5 102.072Z" fill="#DCEEFF"/>
<path fill-rule="evenodd" clip-rule="evenodd" d="M427.084 98.0435H424.877C414.586 98.0435 406.243 89.7005 406.243 79.4091H445.718C445.718 89.7005 437.375 98.0435 427.084 98.0435Z" fill="#ECF6FF"/>
<path fill-rule="evenodd" clip-rule="evenodd" d="M406.86 98.0435C406.86 100.268 408.663 102.072 410.888 102.072H447.128V94.0157H410.888C408.663 94.0157 406.86 95.8192 406.86 98.0435Z" fill="#DCEEFF"/>
<path fill-rule="evenodd" clip-rule="evenodd" d="M431.234 98.0435C431.234 99.3314 432.278 100.375 433.566 100.375H447.031C447.084 100.375 447.128 100.332 447.128 100.278V95.8086C447.128 95.7551 447.084 95.7119 447.031 95.7119H433.566C432.278 95.7119 431.234 96.7556 431.234 98.0435Z" fill="#ECF6FF"/>
<path fill-rule="evenodd" clip-rule="evenodd" d="M401.802 102.072V110.127H441.358C443.582 110.127 445.385 108.324 445.385 106.099C445.385 103.875 443.582 102.072 441.358 102.072H401.802Z" fill="#DCEEFF"/>
<path fill-rule="evenodd" clip-rule="evenodd" d="M401.802 103.79V108.409H418.066C419.341 108.409 420.375 107.375 420.375 106.099C420.375 104.824 419.341 103.79 418.066 103.79H401.802Z" fill="#ECF6FF"/>
<path fill-rule="evenodd" clip-rule="evenodd" d="M401.802 255.105H510.056V143.69H401.802V255.105Z" fill="#CCE3FF"/>
<path fill-rule="evenodd" clip-rule="evenodd" d="M503.086 255.105H518.523V146.863H503.086V255.105Z" fill="#DCEEFF"/>
<path fill-rule="evenodd" clip-rule="evenodd" d="M388.431 148.582H518.523V119.731H388.431V148.582Z" fill="#DCEEFF"/>
<path fill-rule="evenodd" clip-rule="evenodd" d="M373.133 119.732H535.475V109.844H373.133V119.732Z" fill="#CCE3FF"/>
<path fill-rule="evenodd" clip-rule="evenodd" d="M518.524 255.105H526.055V119.732H518.524V255.105Z" fill="#B6D4FF"/>
<path fill-rule="evenodd" clip-rule="evenodd" d="M403.868 255.105H408.772V148.691H403.868V255.105Z" fill="#B6D4FF"/>
<path fill-rule="evenodd" clip-rule="evenodd" d="M524.528 119.732H540.127V109.844H524.528V119.732Z" fill="#B6D4FF"/>
<path fill-rule="evenodd" clip-rule="evenodd" d="M388.431 255.105H403.868V143.558H388.431V255.105Z" fill="#DCEEFF"/>
<path fill-rule="evenodd" clip-rule="evenodd" d="M384.112 255.105H403.869V227.826H384.112V255.105Z" fill="#DCEEFF"/>
<path fill-rule="evenodd" clip-rule="evenodd" d="M503.086 255.105H523.004V227.826H503.086V255.105Z" fill="#DCEEFF"/>
<path fill-rule="evenodd" clip-rule="evenodd" d="M436.188 250.899C436.188 250.899 418.417 240.48 439.832 210.167C439.832 210.167 450.856 223.04 455.1 207.788C455.1 207.788 467.115 226.835 459.315 238.339" fill="#ECF6FF"/>
<path fill-rule="evenodd" clip-rule="evenodd" d="M475.585 251.956C475.585 251.956 491.586 239.118 478.631 213.274C478.631 213.274 460.058 233.103 455.365 196.353C455.365 196.353 441.802 224.099 450.323 237.416" fill="#ECF6FF"/>
<path fill-rule="evenodd" clip-rule="evenodd" d="M431.983 255.105H480.39V245.07H431.983V255.105Z" fill="#DCEEFF"/>
<path fill-rule="evenodd" clip-rule="evenodd" d="M478.021 239.388L474.701 229.966L435.083 245.062L438.404 254.485L478.021 239.388Z" fill="#DCEEFF"/>
<path fill-rule="evenodd" clip-rule="evenodd" d="M475.609 254.917L479.085 244.412L440.338 230.55L436.863 241.054L475.609 254.917Z" fill="#DCEEFF"/>
<path fill-rule="evenodd" clip-rule="evenodd" d="M521.846 255.105H530.499V227.826H521.846V255.105Z" fill="#B6D4FF"/>
<path fill-rule="evenodd" clip-rule="evenodd" d="M419.061 169.866H432.9V253.688H419.061V169.866ZM420.672 171.477V252.076H431.289V171.477H420.672Z" fill="#B6D4FF"/>
<path fill-rule="evenodd" clip-rule="evenodd" d="M431.289 169.866H445.129V253.688H431.289V169.866ZM432.9 171.477V252.076H443.518V171.477H432.9Z" fill="#B6D4FF"/>
<path fill-rule="evenodd" clip-rule="evenodd" d="M443.518 169.866H457.358V253.688H443.518V169.866ZM445.129 171.477V252.076H455.747V171.477H445.129Z" fill="#B6D4FF"/>
<path fill-rule="evenodd" clip-rule="evenodd" d="M455.747 169.866H469.587V253.688H455.747V169.866ZM457.358 171.477V252.076H467.976V171.477H457.358Z" fill="#B6D4FF"/>
<path fill-rule="evenodd" clip-rule="evenodd" d="M467.976 169.866H481.815V253.688H467.976V169.866ZM469.587 171.477V252.076H480.204V171.477H469.587Z" fill="#B6D4FF"/>
<path fill-rule="evenodd" clip-rule="evenodd" d="M480.204 169.866H494.044V253.688H480.204V169.866ZM481.815 171.477V252.076H492.433V171.477H481.815Z" fill="#B6D4FF"/>
<path fill-rule="evenodd" clip-rule="evenodd" d="M314.049 208.233C314.049 207.601 305.157 207.09 294.188 207.09C283.218 207.09 274.326 207.601 274.326 208.233H314.049Z" fill="#FD7880"/>
<path d="M309.376 208.233C309.376 208.548 302.576 208.804 294.187 208.804C285.799 208.804 278.999 208.548 278.999 208.233C278.999 207.917 285.799 207.661 294.187 207.661C302.576 207.661 309.376 207.917 309.376 208.233Z" fill="#BB3939"/>
<path d="M315.116 189.452C315.44 182.149 311.149 173.895 307.775 168.917C307.211 168.084 306.019 168.594 306.11 169.604C307.098 180.514 305.038 184.261 298.07 193.254C293.845 198.706 294.233 208.088 295.719 215.714C295.95 216.899 298.747 216.671 299.176 215.546C303.071 205.336 314.725 198.265 315.116 189.452Z" fill="#618C93"/>
<path d="M276.591 194.71C276.387 189.542 278.737 183.781 280.947 179.746C281.517 178.705 282.976 179.201 282.914 180.38C282.522 187.93 284.11 191.003 288.766 197.766C291.058 201.095 291.449 206.245 291.04 211.215C290.927 212.594 286.728 212.702 286.027 211.5C282.471 205.4 276.82 200.527 276.591 194.71Z" fill="#416B71"/>
<path d="M302.98 163.624C300.089 152.568 291.632 141.554 285.614 135.121C284.773 134.222 283.408 135.105 283.836 136.249C289.97 152.631 289.348 158.911 285.505 174.8C283.191 184.37 287.831 198.388 292.916 209.403C293.507 210.682 296.745 209.575 296.724 208.171C296.479 191.486 306.493 177.063 302.98 163.624Z" fill="#528087"/>
<path fill-rule="evenodd" clip-rule="evenodd" d="M294.188 209.376C283.356 209.376 274.549 208.877 274.33 208.256L280.168 241.378C280.168 242.009 286.444 242.521 294.188 242.521C301.931 242.521 308.207 242.009 308.207 241.378L314.045 208.256C313.826 208.877 305.019 209.376 294.188 209.376Z" fill="#F85454"/>
<path opacity="0.6" fill-rule="evenodd" clip-rule="evenodd" d="M278.938 234.371L277.636 226.986C278.186 226.791 278.772 226.533 279.294 226.251C279.347 226.178 279.425 226.058 279.526 225.874C279.657 225.634 279.791 225.356 279.948 225.012C279.98 224.941 280.016 224.86 280.055 224.775L280.055 224.775C280.177 224.505 280.324 224.181 280.458 223.906C280.671 223.47 280.853 223.115 281.011 222.807L281.011 222.807C281.341 222.162 281.566 221.721 281.754 221.174L281.765 221.139L281.766 221.136L281.766 221.136C281.779 221.092 281.806 221.005 281.838 220.908C281.896 220.738 282.027 220.36 282.264 219.952C282.459 219.614 283.021 218.727 284.182 218.212C285.638 217.566 287.051 217.902 287.972 218.443C289.074 219.09 289.71 220.035 289.997 220.491C290.238 220.872 290.554 221.472 290.627 221.61L290.642 221.638C290.768 221.865 290.887 222.08 291 222.285L291 222.286L291 222.286C291.559 223.298 291.979 224.059 292.512 224.779C293.348 225.91 294.311 226.703 295.649 227.421C295.738 227.469 295.814 227.508 295.878 227.541C295.924 227.489 295.975 227.429 296.029 227.362C296.265 227.071 296.51 226.722 296.77 226.324C296.899 226.127 297.023 225.932 297.152 225.73L297.17 225.702C297.288 225.516 297.418 225.311 297.542 225.123C298.27 224.018 298.831 222.875 299.52 221.47C299.629 221.249 299.74 221.021 299.857 220.785L299.866 220.758C299.893 220.676 299.953 220.502 300.038 220.307C300.082 220.205 300.146 220.068 300.232 219.913C300.315 219.764 300.447 219.549 300.638 219.316C301.053 218.81 301.724 218.267 302.678 218.028C303.607 217.796 304.411 217.952 304.933 218.137C305.786 218.44 306.301 218.968 306.405 219.074L306.414 219.083C306.528 219.199 306.621 219.309 306.673 219.373C306.819 219.535 306.885 219.612 306.92 219.653L306.941 219.678L306.942 219.678L306.942 219.678C306.946 219.683 306.976 219.717 307.252 220.014C308.668 221.533 309.539 222.128 310.288 222.271C310.531 222.317 310.662 222.322 310.716 222.321C310.739 222.321 310.75 222.32 310.754 222.319L310.759 222.317C310.763 222.316 310.771 222.313 310.782 222.308C310.804 222.299 310.841 222.281 310.897 222.249C311.014 222.182 311.191 222.064 311.452 221.856C311.53 221.794 311.609 221.731 311.687 221.667L310.264 229.739C309.781 229.715 309.304 229.652 308.834 229.563C307.245 229.259 305.89 228.59 304.749 227.804C304.491 228.255 304.217 228.706 303.925 229.149C303.868 229.235 303.791 229.356 303.698 229.503L303.698 229.503C303.318 230.103 302.666 231.131 301.98 231.978C301.246 232.883 299.594 234.753 297.065 235.047C294.822 235.308 293.22 234.592 291.994 233.933C289.815 232.763 287.944 231.277 286.358 229.133L286.355 229.128C286.308 229.219 286.262 229.306 286.217 229.387C285.749 230.241 284.857 231.686 283.281 232.579C282.096 233.252 280.522 233.949 278.938 234.371ZM306.744 219.461C306.745 219.462 306.74 219.456 306.729 219.442C306.738 219.453 306.744 219.46 306.744 219.461ZM295.546 227.867C295.546 227.867 295.549 227.865 295.554 227.861C295.549 227.866 295.546 227.867 295.546 227.867ZM279.235 226.326C279.235 226.326 279.236 226.324 279.239 226.321C279.236 226.325 279.235 226.326 279.235 226.326Z" fill="#BB3939"/>
<path fill-rule="evenodd" clip-rule="evenodd" d="M294.188 209.376C283.218 209.376 274.326 208.864 274.326 208.233L278.999 208.233C278.999 208.548 285.799 208.804 294.188 208.804C302.576 208.804 309.376 208.548 309.376 208.233L314.049 208.233C314.049 208.864 305.157 209.376 294.188 209.376Z" fill="#FD7880"/>
<path fill-rule="evenodd" clip-rule="evenodd" d="M155.519 170.114V170.649C155.519 175.112 152.057 178.727 147.79 178.727H87.243C77.9037 178.727 70.7165 169.766 72.0054 159.726L78.841 103.781C79.4329 99.1477 83.0805 95.7 87.3909 95.7H105.336C109.643 95.7 113.29 99.1477 113.886 103.781L120.722 159.726C120.774 160.125 120.811 160.525 120.833 160.921L120.869 160.915C120.869 160.915 122.134 170.114 133.887 170.114H155.519Z" fill="#DCEEFF"/>
<path fill-rule="evenodd" clip-rule="evenodd" d="M91.0622 241.745C91.0622 244.598 88.7487 246.911 85.8954 246.911C83.0418 246.911 80.7289 244.598 80.7289 241.745C80.7289 238.891 83.0418 236.578 85.8954 236.578C88.7487 236.578 91.0622 238.891 91.0622 241.745Z" fill="#B6D4FF"/>
<path fill-rule="evenodd" clip-rule="evenodd" d="M138.209 242.78H87.149C85.1934 242.78 83.5933 241.18 83.5933 239.225C83.5933 237.269 85.1934 235.669 87.149 235.669H138.209C140.164 235.669 141.764 237.269 141.764 239.225C141.764 241.18 140.164 242.78 138.209 242.78Z" fill="#CCE3FF"/>
<path fill-rule="evenodd" clip-rule="evenodd" d="M110.059 241.089H115.299V178.511H110.059V241.089Z" fill="#CCE3FF"/>
<path fill-rule="evenodd" clip-rule="evenodd" d="M130.633 178.511L112.679 186.688L94.7245 178.511H130.633Z" fill="#CCE3FF"/>
<path fill-rule="evenodd" clip-rule="evenodd" d="M113.076 242.78H106.45C104.495 242.78 102.894 241.18 102.894 239.225C102.894 237.269 104.495 235.669 106.45 235.669H113.076C115.032 235.669 116.632 237.269 116.632 239.225C116.632 241.18 115.032 242.78 113.076 242.78Z" fill="#B6D4FF"/>
<path fill-rule="evenodd" clip-rule="evenodd" d="M108.73 241.745C108.73 244.598 106.416 246.911 103.563 246.911C100.709 246.911 98.3964 244.598 98.3964 241.745C98.3964 238.891 100.709 236.578 103.563 236.578C106.416 236.578 108.73 238.891 108.73 241.745Z" fill="#B6D4FF"/>
<path fill-rule="evenodd" clip-rule="evenodd" d="M144.971 241.745C144.971 244.598 142.658 246.911 139.804 246.911C136.951 246.911 134.638 244.598 134.638 241.745C134.638 238.891 136.951 236.578 139.804 236.578C142.658 236.578 144.971 238.891 144.971 241.745Z" fill="#B6D4FF"/>
<path d="M146.087 118.003L139.878 121.318L138.341 147.325H95.4889L94.77 121.086L81.2206 110.894C81.2206 110.894 87.6105 98.0055 98.5432 92.8757C101.392 91.5417 104.975 90.8328 108.555 90.4945C115.734 89.8146 122.89 90.6041 124.054 90.7458L124.218 90.7652C124.421 90.8264 124.624 90.8876 124.82 90.9488C124.824 90.9488 124.827 90.9521 124.83 90.9521C125.41 91.1325 125.958 91.3065 126.48 91.4773C133.733 93.8649 136.027 95.7983 140.091 101.521C143.954 106.96 146.087 118.003 146.087 118.003Z" fill="#CE3D29"/>
<path opacity="0.200219" fill-rule="evenodd" clip-rule="evenodd" d="M107.081 114.299L98.3498 124.497L94.3168 121.751L95.2234 120.419L98.0641 122.353L105.857 113.251L107.081 114.299Z" fill="black"/>
<path fill-rule="evenodd" clip-rule="evenodd" d="M108.555 90.4945C109.611 92.1604 112.94 96.3138 120.084 96.7359C128.616 97.2354 126.68 91.9767 126.48 91.4773C126.467 91.4515 126.46 91.4386 126.46 91.4386C126.46 91.4386 125.826 91.2259 124.83 90.9521C124.829 90.9521 124.827 90.9513 124.825 90.9505C124.824 90.9497 124.822 90.9488 124.82 90.9488C124.585 90.8844 124.328 90.8167 124.053 90.7458C122.89 90.6041 115.734 89.8146 108.555 90.4945ZM108.267 130.623L107.418 130.913L91.5917 128.158L95.7219 121.142L82.7251 112.053C82.7251 112.053 70.9837 129.801 75.4448 138.972C77.701 143.609 100.21 141.876 107.636 141.171C107.854 141.309 108.066 141.438 108.267 141.553V130.623ZM137.106 147.256H138.395L139.845 121.317L145.967 117.933L148.568 157.753C150.527 160 152.788 162.653 153.13 163.306C153.75 164.489 154.897 170.351 154.842 171.509C154.787 172.667 151.215 177.871 151.215 177.871C148.999 177.343 150.447 174.656 150.447 174.656C150.447 174.656 148.462 176.288 147.636 176.261C139.864 176.003 140.28 172.176 140.464 171.697C140.877 170.621 142.951 171.852 142.951 171.852C142.951 171.852 139.348 164.743 139.816 159.311C139.437 158.596 139.054 156.377 138.643 153.999L138.643 153.999L138.643 153.999C138.177 151.3 137.675 148.398 137.106 147.256Z" fill="#F6BA96"/>
<path d="M104.709 132.136L107.407 130.742C107.407 130.742 108.65 130.03 110.817 129.289C112.984 128.549 114.306 128.869 117.712 127.26C121.579 125.433 119.97 128.73 118.28 129.905C116.962 130.823 115.186 130.708 114.384 131.903C115.026 132.309 115.944 133.232 121.505 133.775C122.502 133.872 125.742 133.441 125.742 133.441C126.712 133.436 128.735 133.324 129.038 134.423C129.113 134.695 128.809 135.048 128.809 135.048C128.809 135.048 130.074 134.948 130.32 136.072C130.417 136.513 127.68 137.374 127.68 137.374C127.68 137.374 129.066 137.515 129.216 138.354C129.258 138.591 121.326 141.343 121.326 141.343L123.114 141.185L124.948 140.824C124.948 140.824 125.934 140.859 126.104 141.648C126.171 141.96 124.524 142.551 122.586 143.103C119.571 143.961 117.309 143.931 115.061 143.661C112.345 143.335 111.431 143.469 108.104 142.247C106.732 141.743 104.659 140.65 103.776 140.072L104.709 132.136Z" fill="#F6BA96"/>
<path opacity="0.199382" fill-rule="evenodd" clip-rule="evenodd" d="M144.472 163.381C144.472 163.381 144.472 163.381 144.938 163.254C145.404 163.127 145.404 163.126 145.404 163.126L145.404 163.126L145.404 163.127L145.406 163.132C145.408 163.138 145.41 163.147 145.414 163.16C145.422 163.185 145.434 163.225 145.451 163.276C145.485 163.379 145.539 163.53 145.615 163.717C145.767 164.091 146.007 164.603 146.358 165.152C147.062 166.253 148.193 167.472 149.925 168.05C150.23 168.152 150.444 168.376 150.596 168.602C150.75 168.83 150.873 169.105 150.979 169.384C151.081 169.651 151.176 169.947 151.271 170.24C151.276 170.256 151.281 170.272 151.286 170.287C151.388 170.601 151.49 170.914 151.606 171.218C151.841 171.835 152.11 172.345 152.464 172.669C152.788 172.966 153.213 173.133 153.87 173.007L154.053 173.956C153.106 174.138 152.369 173.892 151.811 173.383C151.284 172.9 150.95 172.211 150.703 171.562C150.577 171.233 150.468 170.897 150.367 170.585L150.354 170.547C150.257 170.246 150.168 169.972 150.076 169.728C149.978 169.473 149.887 169.279 149.795 169.143C149.703 169.006 149.641 168.974 149.619 168.967L149.619 168.967C147.608 168.296 146.321 166.888 145.544 165.673C145.155 165.065 144.888 164.497 144.719 164.081C144.634 163.873 144.574 163.701 144.533 163.58C144.513 163.52 144.498 163.472 144.488 163.438C144.483 163.421 144.479 163.408 144.476 163.398L144.473 163.386L144.472 163.383L144.472 163.381L144.472 163.381Z" fill="black"/>
<path fill-rule="evenodd" clip-rule="evenodd" d="M193.796 245.191L193.888 236.688L183.664 231.166L182.179 255.472H217.605C211.577 248.193 193.796 245.191 193.796 245.191ZM137.067 244.854L137.165 234.741L126.122 234.179L125.118 244.295L122.55 255.392H148.226C144.998 245.964 137.067 244.854 137.067 244.854Z" fill="#0D0B6D"/>
<path fill-rule="evenodd" clip-rule="evenodd" d="M137.165 234.741L126.337 231.252L125.118 244.295L137.067 244.854L137.165 234.741ZM193.888 236.688L183.664 233.394L182.839 244.663L193.796 245.19L193.888 236.688Z" fill="#F6BA96"/>
<path fill-rule="evenodd" clip-rule="evenodd" d="M125.338 147.256H95.3777V155.24C95.3777 165.162 103.488 173.205 113.492 173.205H122.378H126.7L123.548 240.278H142.173L149.099 173.205H181.452L180.58 240.278H199.523L208.47 171.48C210.072 158.615 200.051 147.256 187.101 147.256H136.038H125.338Z" fill="#19141E"/>
<path opacity="0.101632" fill-rule="evenodd" clip-rule="evenodd" d="M95.3777 147.256H136.038C144.437 147.256 151.005 154.442 150.181 162.732L142.173 240.278H123.548L126.7 173.205H113.492C103.488 173.205 95.3777 165.162 95.3777 155.24V147.256Z" fill="white"/>
<path fill-rule="evenodd" clip-rule="evenodd" d="M138.797 57.7022C138.797 62.3216 135.827 66.0662 132.163 66.0662C128.499 66.0662 125.529 62.3216 125.529 57.7022C125.529 53.0829 128.499 49.3383 132.163 49.3383C135.827 49.3383 138.797 53.0829 138.797 57.7022Z" fill="#19141E"/>
<path d="M123.098 90.8364L122.82 81.2298C122.82 81.2298 134.468 82.1593 136.96 80.8621C136.96 80.8621 140.005 65.137 136.373 56.429L136.299 56.0899L111.72 53.2084L110.342 67.3446C109.514 64.8969 102.68 62.1215 100.894 65.6265C97.0234 73.2213 110.864 78.3352 110.864 78.3352L109.459 90.9517" fill="#F6BA96"/>
<path opacity="0.398926" fill-rule="evenodd" clip-rule="evenodd" d="M122.82 81.2296L114.966 79.5417L122.783 84.8338L122.82 81.2296Z" fill="black"/>
<path fill-rule="evenodd" clip-rule="evenodd" d="M129.099 67.1649L131.813 73.815L128.56 73.8566L129.099 67.1649Z" fill="#125475"/>
<path fill-rule="evenodd" clip-rule="evenodd" d="M126.205 67.4209C126.366 68.3164 125.773 69.1736 124.88 69.3354C123.986 69.4975 123.131 68.9027 122.969 68.0075C122.807 67.1119 123.401 66.2547 124.294 66.0926C125.188 65.9308 126.043 66.5253 126.205 67.4209Z" fill="#0D0B6D"/>
<path fill-rule="evenodd" clip-rule="evenodd" d="M135.325 67.4209C135.487 68.3164 134.893 69.1736 134 69.3354C133.106 69.4975 132.251 68.9027 132.089 68.0075C131.927 67.1119 132.521 66.2547 133.414 66.0926C134.308 65.9308 135.163 66.5253 135.325 67.4209Z" fill="#0D0B6D"/>
<path d="M112.167 69.7573C109.836 65.7597 106.465 64.5406 104.951 64.1831C104.348 62.4345 103.887 60.4066 103.564 58.2498C102.697 52.4774 106.885 47.2108 110.267 45.6985C113.691 44.1681 119.595 42.0472 128.236 44.9261C134.046 46.8629 137.76 42.226 141.178 44.2064C147.02 47.5914 141.587 62.4113 126.773 58.6465C116.178 55.9534 115.905 56.6289 115.814 58.5865C115.521 64.9141 114.536 68.6366 112.167 69.7573Z" fill="#2F2F3D"/>
<path fill-rule="evenodd" clip-rule="evenodd" d="M124.58 74.1036C124.58 74.1036 125.625 76.0054 127.882 75.9603L124.58 74.1036Z" fill="white"/>
<path fill-rule="evenodd" clip-rule="evenodd" d="M124.016 74.4144C124.016 74.4142 124.016 74.4139 124.58 74.1037C125.145 73.7935 125.145 73.7933 125.145 73.793L125.145 73.7926L125.144 73.7918L125.144 73.7908C125.144 73.7905 125.144 73.7904 125.144 73.7904C125.144 73.7904 125.144 73.7905 125.144 73.7907L125.148 73.7979C125.153 73.806 125.161 73.8203 125.174 73.8399C125.199 73.8792 125.239 73.9394 125.295 74.0135C125.406 74.1625 125.577 74.3628 125.806 74.5615C126.263 74.9565 126.939 75.3346 127.869 75.316L127.895 76.6047C126.567 76.6312 125.593 76.081 124.963 75.5364C124.65 75.2652 124.418 74.993 124.263 74.7868C124.186 74.6833 124.127 74.5953 124.086 74.5308C124.065 74.4985 124.049 74.472 124.038 74.4522C124.032 74.4423 124.027 74.4341 124.023 74.4277L124.019 74.4194L124.017 74.4163L124.016 74.415L124.016 74.4144Z" fill="#252535"/>
<path fill-rule="evenodd" clip-rule="evenodd" d="M124.549 64.3751C122.829 64.3751 121.432 65.773 121.432 67.5004C121.432 69.2277 122.829 70.6254 124.549 70.6254C126.269 70.6254 127.666 69.2276 127.666 67.5004C127.666 65.7731 126.269 64.3751 124.549 64.3751ZM120.143 67.5004C120.143 65.0639 122.115 63.0862 124.549 63.0862C126.984 63.0862 128.955 65.0638 128.955 67.5004C128.955 69.937 126.984 71.9143 124.549 71.9143C122.115 71.9143 120.143 69.937 120.143 67.5004Z" fill="#252535"/>
<path fill-rule="evenodd" clip-rule="evenodd" d="M134.021 64.3751C132.301 64.3751 130.904 65.7731 130.904 67.5004C130.904 69.2276 132.3 70.6254 134.021 70.6254C135.741 70.6254 137.138 69.2277 137.138 67.5004C137.138 65.773 135.741 64.3751 134.021 64.3751ZM129.615 67.5004C129.615 65.0638 131.586 63.0862 134.021 63.0862C136.455 63.0862 138.427 65.0639 138.427 67.5004C138.427 69.937 136.455 71.9143 134.021 71.9143C131.586 71.9143 129.615 69.937 129.615 67.5004Z" fill="#252535"/>
<path fill-rule="evenodd" clip-rule="evenodd" d="M128.326 67.0308H129.953V68.3196H128.326V67.0308Z" fill="#252535"/>
<path fill-rule="evenodd" clip-rule="evenodd" d="M111.496 66.856H120.788V68.1448H111.496V66.856Z" fill="#252535"/>
<path fill-rule="evenodd" clip-rule="evenodd" d="M257.192 106.35L242.398 137.708L245.895 139.358L260.689 108L257.192 106.35Z" fill="#CCE3FF"/>
<path fill-rule="evenodd" clip-rule="evenodd" d="M259.901 105.497L228.685 87.6445L226.765 91.0011L257.981 108.853L259.901 105.497Z" fill="#CCE3FF"/>
<path fill-rule="evenodd" clip-rule="evenodd" d="M215.355 91.6416H228.088V87.7749H215.355V91.6416Z" fill="#CCE3FF"/>
<path fill-rule="evenodd" clip-rule="evenodd" d="M253.666 141.385H225.903C225.903 138.859 227.95 136.812 230.476 136.812H249.094C251.619 136.812 253.666 138.859 253.666 141.385Z" fill="#DCEEFF"/>
<path fill-rule="evenodd" clip-rule="evenodd" d="M203.657 100.164C203.657 93.7042 208.894 88.4672 215.355 88.4672C221.815 88.4672 227.052 93.7042 227.052 100.164" fill="#DCEEFF"/>
<path fill-rule="evenodd" clip-rule="evenodd" d="M285.848 256.456H283.226L267.115 149.12H276.181L285.848 256.456Z" fill="#B6D4FF"/>
<path fill-rule="evenodd" clip-rule="evenodd" d="M239.948 256.456H237.327L221.215 149.12H230.282L239.948 256.456Z" fill="#B6D4FF"/>
<path fill-rule="evenodd" clip-rule="evenodd" d="M296.444 149.12H148.383V141.338H296.444V149.12Z" fill="#B6D4FF"/>
<path fill-rule="evenodd" clip-rule="evenodd" d="M159.091 149.12H101.326V141.338H159.091V149.12Z" fill="#DCEEFF"/>
<path fill-rule="evenodd" clip-rule="evenodd" d="M108.657 256.456H106.035L115.702 149.12H124.768L108.657 256.456Z" fill="#DCEEFF"/>
<path fill-rule="evenodd" clip-rule="evenodd" d="M154.734 256.456H152.112L161.778 149.12H170.845L154.734 256.456Z" fill="#DCEEFF"/>
<path fill-rule="evenodd" clip-rule="evenodd" d="M171.921 108.524H211.117L201.92 138.844H162.725L171.921 108.524Z" fill="#DCEEFF"/>
<path fill-rule="evenodd" clip-rule="evenodd" d="M208.357 110.475L200.506 136.363H165.431L173.282 110.475H208.357Z" fill="white"/>
<path fill-rule="evenodd" clip-rule="evenodd" d="M201.956 118.443L201.581 119.68H172.79L173.164 118.443H201.956Z" fill="#B6D4FF"/>
<path fill-rule="evenodd" clip-rule="evenodd" d="M200.119 120.964L199.745 122.202H171.896L172.27 120.964H200.119Z" fill="#B6D4FF"/>
<path fill-rule="evenodd" clip-rule="evenodd" d="M191.394 123.486L191.02 124.724H171.026L171.4 123.486H191.394Z" fill="#B6D4FF"/>
<path fill-rule="evenodd" clip-rule="evenodd" d="M134.065 141.337H173.26V138.844H134.065V141.337Z" fill="#DCEEFF"/>
<path fill-rule="evenodd" clip-rule="evenodd" d="M173.26 141.337H201.906V138.844H173.26V141.337Z" fill="#ECF6FF"/>
<path fill-rule="evenodd" clip-rule="evenodd" d="M211.084 108.524H213.493L204.296 138.844H201.888L211.084 108.524Z" fill="#ECF6FF"/>
<path fill-rule="evenodd" clip-rule="evenodd" d="M203.393 113.552L203.019 114.789H174.228L174.602 113.552H203.393Z" fill="#B6D4FF"/>
<path fill-rule="evenodd" clip-rule="evenodd" d="M199.562 116.073L199.188 117.311H173.538L173.912 116.073H199.562Z" fill="#B6D4FF"/>
<path fill-rule="evenodd" clip-rule="evenodd" d="M193.57 110.15L188.671 110.743L188.279 110.127L188.537 109.565L188.165 109.118L192.741 108.524L193.432 108.937L192.854 109.515L193.57 110.15Z" fill="#B6D4FF"/>
<path d="M197.413 99.9206L178.388 125.246C177.112 126.945 178.324 129.372 180.449 129.372H210.222C212.069 129.372 213.317 127.487 212.595 125.787L201.847 100.462C201.071 98.6335 198.606 98.3326 197.413 99.9206Z" fill="#CE3D29"/>
<path fill-rule="evenodd" clip-rule="evenodd" d="M197.118 109.144C197.273 108.623 197.751 108.267 198.294 108.267C199.115 108.267 199.704 109.056 199.47 109.843L196.798 118.828C196.643 119.349 196.165 119.705 195.622 119.705C194.802 119.705 194.213 118.916 194.446 118.129L197.118 109.144Z" fill="#ECF6FF"/>
<path d="M194.612 121.577C195.47 121.81 195.94 122.834 195.66 123.865C195.381 124.896 194.458 125.542 193.599 125.309C192.741 125.076 192.271 124.052 192.551 123.021C192.83 121.991 193.753 121.344 194.612 121.577Z" fill="white"/>
<path d="M172.55 102.859L165.18 112.496C164.685 113.143 165.155 114.067 165.978 114.067H177.512C178.227 114.067 178.71 113.349 178.431 112.702L174.267 103.065C173.967 102.369 173.012 102.254 172.55 102.859Z" fill="#CE3D29"/>
<path fill-rule="evenodd" clip-rule="evenodd" d="M172.449 106.357C172.508 106.152 172.688 106.011 172.893 106.011C173.202 106.011 173.424 106.323 173.336 106.633L172.328 110.176C172.27 110.382 172.09 110.522 171.885 110.522C171.576 110.522 171.354 110.211 171.442 109.901L172.449 106.357Z" fill="#ECF6FF"/>
<path d="M171.535 111.187C171.865 111.276 172.045 111.669 171.938 112.064C171.83 112.459 171.476 112.707 171.147 112.618C170.818 112.528 170.638 112.136 170.745 111.741C170.852 111.345 171.206 111.097 171.535 111.187Z" fill="white"/>
<path fill-rule="evenodd" clip-rule="evenodd" d="M432.371 78.6667C431.651 88.3709 423.456 93.1663 417.058 95.4449L417.558 98.1221C418.336 102.288 414.868 106.098 410.297 106.098H368.458C363.97 106.098 360.525 102.419 361.164 98.3109L361.578 95.6571C354.962 93.4854 345.792 88.9709 346.022 80.6683C346.378 67.8329 360.438 55.7579 367.913 50.2289C370.618 47.2998 374.499 46.1389 380.077 44.4704L380.079 44.4698C380.71 44.2811 381.363 44.086 382.037 43.881C382.037 43.881 399.986 40.9553 409.074 45.2186C411.458 46.3365 413.419 47.9329 415.028 49.746C422.433 55.7444 433.26 66.6612 432.371 78.6667Z" fill="#1E9DBC"/>
<path opacity="0.203218" fill-rule="evenodd" clip-rule="evenodd" d="M383.503 56.002C383.503 57.1156 384.406 58.0178 385.519 58.0178C386.633 58.0178 387.535 57.1156 387.535 56.002C387.535 54.8887 385.519 52.0529 385.519 52.0529C385.519 52.0529 383.503 54.8887 383.503 56.002Z" fill="black"/>
<path opacity="0.195964" fill-rule="evenodd" clip-rule="evenodd" d="M403.045 97.5975C403.046 97.5975 403.048 97.5975 403.068 96.1477C403.087 94.6978 403.089 94.6978 403.091 94.6978L403.094 94.6979L403.1 94.698L403.11 94.6983L403.121 94.6987C403.122 94.6988 403.122 94.6988 403.122 94.6988C403.122 94.6988 403.119 94.6986 403.111 94.6979C403.091 94.696 403.045 94.6907 402.976 94.6776C402.838 94.6515 402.609 94.5944 402.318 94.4711C401.744 94.2281 400.887 93.711 399.985 92.5927C398.17 90.3392 396.083 85.5169 396.061 75.3251L393.161 75.3314C393.184 85.845 395.326 91.4323 397.727 94.4123C398.935 95.9106 400.183 96.7161 401.187 97.1415C401.685 97.3524 402.114 97.466 402.437 97.527C402.598 97.5575 402.732 97.5749 402.835 97.5847C402.887 97.5897 402.931 97.5927 402.967 97.5946C402.984 97.5956 403 97.5962 403.014 97.5967L403.033 97.5972L403.041 97.5974L403.045 97.5975Z" fill="black"/>
<path opacity="0.199009" fill-rule="evenodd" clip-rule="evenodd" d="M366.113 93.7315C366.115 93.7314 366.117 93.7314 366.14 95.1812C366.164 96.631 366.166 96.631 366.168 96.6309L366.173 96.6309L366.182 96.6306L366.202 96.6299C366.217 96.6293 366.233 96.6285 366.251 96.6274C366.287 96.6251 366.329 96.6215 366.377 96.616C366.474 96.6049 366.595 96.586 366.737 96.5539C367.021 96.4895 367.385 96.3726 367.799 96.1626C368.636 95.7379 369.621 94.9607 370.553 93.5749C372.393 90.8386 374.017 85.7467 374.035 76.1727L371.135 76.1675C371.118 85.5004 369.52 89.9141 368.146 91.9566C367.472 92.9602 366.852 93.3908 366.486 93.5764C366.299 93.6716 366.162 93.7106 366.095 93.7257C366.064 93.7328 366.047 93.7349 366.047 93.7349L366.047 93.7348C366.049 93.7347 366.055 93.734 366.066 93.7333L366.088 93.7322L366.101 93.7317L366.109 93.7316L366.113 93.7315Z" fill="black"/>
<path opacity="0.203497" fill-rule="evenodd" clip-rule="evenodd" d="M385.655 63.3909C385.981 61.6047 386.29 59.9118 386.525 58.2171L383.653 57.8187C383.427 59.4469 383.134 61.0523 382.812 62.8179C382.696 63.452 382.576 64.1069 382.455 64.7908C381.998 67.3608 381.526 70.2736 381.162 73.8668C380.434 81.0549 380.142 90.9078 381.219 106.189L384.112 105.985C383.044 90.8295 383.34 81.1469 384.048 74.1591C384.402 70.6644 384.86 67.8291 385.31 65.2983C385.426 64.6484 385.541 64.014 385.655 63.3909Z" fill="black"/>
<path fill-rule="evenodd" clip-rule="evenodd" d="M411.751 46.3939C411.751 46.3939 409.593 35.7389 395.827 35.7667C389.37 35.7797 388.02 39.3631 388.408 43.1649C388.419 43.2744 388.824 43.2184 389.079 43.1831L389.079 43.1831C389.135 43.1754 389.184 43.1686 389.22 43.1649C390.199 43.062 390.58 43.0407 391.2 43.0061C391.314 42.9997 391.437 42.9928 391.573 42.9849C391.597 42.9835 391.621 42.9822 391.645 42.981L385.707 49.5532L381.875 39.437L374.175 46.0641L385.849 53.474C385.849 53.474 398.028 45.7846 402.035 43.3926L411.751 46.3939ZM366.144 100.998H382.804H403.015L402.693 96.2792C397.622 94.4863 394.753 88.3596 394.84 75.3283L383.266 75.4992L373.027 75.6505C372.927 87.051 370.852 92.2066 366.467 95.9569L366.144 100.998Z" fill="#302B34"/>
<path opacity="0.201474" fill-rule="evenodd" clip-rule="evenodd" d="M385.796 62.1614C386.06 60.8064 386.31 59.5309 386.52 58.2537L383.659 57.7821C383.468 58.9372 383.232 60.1464 382.976 61.4606C382.358 64.631 381.621 68.4123 381.114 73.52C380.392 80.7922 380.119 90.8332 381.196 106.113L384.089 105.909C383.021 90.7526 383.298 80.88 384 73.8063C384.493 68.8382 385.186 65.2883 385.796 62.1614Z" fill="black"/>
<path fill-rule="evenodd" clip-rule="evenodd" d="M448.443 240.209L438.634 231.174L442.041 222.035L463.034 237.691L446.029 267.508C446.029 267.508 445.482 260.098 446.371 251.891C446.986 246.22 448.443 240.209 448.443 240.209ZM353.928 259.947L356.168 252.693L365.653 253.196L357.759 273.117L327.438 255.472C336.436 252.736 353.928 259.947 353.928 259.947Z" fill="#0D0B6D"/>
<path fill-rule="evenodd" clip-rule="evenodd" d="M441.107 233.476L442.185 222.026L454.267 231.211L448.443 240.209L441.107 233.476ZM355.774 253.919L365.151 254.767L361.689 263.198L353.928 259.947L355.774 253.919Z" fill="#F6BA96"/>
<path d="M373.542 138.475L347.384 255.948L354.589 257.794H354.592L362.98 259.946L363.021 259.956L365.925 260.7C365.925 260.7 379.252 218.473 390.984 180.802C393.839 185.471 397.055 190.085 400.673 194.574C426.383 226.461 442.114 240.091 442.114 240.091L444.454 236.55L444.46 236.54L450.083 228.03L454.149 221.876C454.149 221.876 418.943 188.5 403.103 141.549C405.887 132.408 407.817 125.883 408.313 123.795C411.152 111.888 411.21 106.433 411.21 105.998H380.773L368.567 105.998C369.012 113.757 370.239 125.296 373.542 138.475L373.542 138.475Z" fill="#19141E"/>
<path fill-rule="evenodd" clip-rule="evenodd" d="M347.384 255.948L354.589 257.794H354.592L362.98 259.946L363.021 259.956L365.925 260.7C365.925 260.7 379.252 218.473 390.984 180.802C395.563 166.096 399.897 152.086 403.103 141.549C405.887 132.408 407.817 125.883 408.313 123.795C411.152 111.888 411.21 106.433 411.21 105.998H380.773L373.542 138.475L347.384 255.948Z" fill="white" fill-opacity="0.1"/>
<path d="M365.239 33.8334C359.954 16.0467 368.407 5.04823 373.294 1.7723C395.077 0.741192 394.722 29.6982 391.822 44.3056C385.163 48.226 370.523 51.6201 365.239 33.8334Z" fill="#19141E"/>
<path d="M385.7 49.3L382.253 35.9222C382.253 35.9222 370.683 36.8377 368.208 35.56C368.208 35.56 365.54 21.6247 368.864 11.1629L393.279 8.32495L395.016 22.276C395.839 19.8654 402.258 17.1032 404.033 20.5551C407.878 28.0349 394.129 33.0714 394.129 33.0714L388.761 46.0777" fill="#F6BA96"/>
<path opacity="0.399344" fill-rule="evenodd" clip-rule="evenodd" d="M382.253 35.922L390.054 34.2598L382.29 39.4717L382.253 35.922Z" fill="black"/>
<path fill-rule="evenodd" clip-rule="evenodd" d="M375.817 20.4612L373.121 27.0106L376.352 27.0515L375.817 20.4612Z" fill="#2437A8"/>
<path fill-rule="evenodd" clip-rule="evenodd" d="M379.169 28.906C379.169 28.906 378.04 30.7256 375.803 30.5714L379.169 28.906Z" fill="white"/>
<path fill-rule="evenodd" clip-rule="evenodd" d="M379.717 29.2464C379.717 29.2461 379.717 29.2458 379.169 28.906C378.622 28.5662 378.622 28.5659 378.622 28.5657L378.622 28.5653L378.623 28.5645L378.623 28.5635C378.624 28.563 378.624 28.563 378.624 28.5633L378.619 28.5701C378.614 28.5777 378.605 28.5913 378.592 28.6099C378.565 28.6471 378.522 28.7042 378.464 28.7742C378.346 28.9149 378.168 29.1033 377.93 29.2872C377.459 29.6528 376.769 29.9921 375.848 29.9285L375.759 31.2144C377.074 31.305 378.068 30.8115 378.72 30.3059C379.045 30.0542 379.288 29.7973 379.452 29.6016C379.534 29.5034 379.597 29.4196 379.641 29.3579C379.663 29.3271 379.681 29.3017 379.693 29.2827C379.699 29.2732 379.705 29.2653 379.708 29.2591L379.714 29.2512L379.715 29.2482L379.716 29.2469L379.717 29.2464Z" fill="#252535"/>
<path d="M399.631 19.2942C400.715 15.2879 397.279 13.6876 396.817 11.1631C396.282 8.23733 398.421 6.37136 387.889 2.6042C378.966 -0.587535 373.932 1.72364 372.407 3.69021C370.087 6.68255 368.864 11.1631 368.864 11.1631C368.864 11.1631 372.5 13.7342 385.394 13.2908C385.394 13.2908 383.609 21.004 390.926 20.5608C390.926 20.5608 390.142 23.1583 393.683 23.9754C395.625 20.9733 398.204 19.7601 399.631 19.2942Z" fill="#19141E"/>
<path d="M380.061 19.6555C374.261 19.7844 368.73 18.5277 366.689 17.8833L365.561 25.1333C366.474 25.7777 369.428 27.2922 373.939 28.1944C378.45 29.0966 388.278 27.8185 392.628 27.0666L391.822 17.8833C390.318 18.4203 385.861 19.5266 380.061 19.6555Z" fill="#19141E"/>
<path fill-rule="evenodd" clip-rule="evenodd" d="M378.891 22.3225C378.73 23.2045 379.32 24.0487 380.207 24.2081C381.095 24.3677 381.944 23.7819 382.105 22.9002C382.265 22.0182 381.676 21.1739 380.789 21.0143C379.901 20.855 379.051 21.4405 378.891 22.3225Z" fill="white"/>
<path fill-rule="evenodd" clip-rule="evenodd" d="M370.411 22.3225C370.251 23.2045 370.84 24.0487 371.728 24.2081C372.615 24.3677 373.465 23.7819 373.625 22.9002C373.786 22.0182 373.197 21.1739 372.309 21.0143C371.422 20.855 370.572 21.4405 370.411 22.3225Z" fill="white"/>
<path d="M388.6 45.9166C393.884 18.5921 379.47 5.85367 373.294 1.77219C410.511 -5.96112 410.189 38.3444 401.65 43.4999C394.819 47.6244 390.104 46.8295 388.6 45.9166Z" fill="#302B34"/>
</g>
<defs>
<clipPath id="clip0">
<rect width="580" height="291" fill="white"/>
</clipPath>
</defs>
</svg>
