<svg width="580" height="265" viewBox="0 0 580 265" fill="none" xmlns="http://www.w3.org/2000/svg">
<g clip-path="url(#clip0)">
<path d="M0 0H580V265H0V0Z" fill="none"/>
<path d="M505.567 232.917C505.567 244.929 402.995 254.667 276.467 254.667C149.938 254.667 47.3667 244.929 47.3667 232.917C47.3667 220.904 149.938 211.167 276.467 211.167C402.995 211.167 505.567 220.904 505.567 232.917Z" fill="#F2F2F2"/>
<path d="M527.8 217.45C527.8 223.59 489.282 228.567 441.767 228.567C394.252 228.567 355.733 223.59 355.733 217.45C355.733 211.31 394.252 206.333 441.767 206.333C489.282 206.333 527.8 211.31 527.8 217.45Z" fill="#F2F2F2"/>
<path d="M192.367 251.283C192.367 258.491 153.848 264.333 106.333 264.333C58.8184 264.333 20.3 258.491 20.3 251.283C20.3 244.076 58.8184 238.233 106.333 238.233C153.848 238.233 192.367 244.076 192.367 251.283Z" fill="#F2F2F2"/>
<path d="M427.267 19.7667H430.167V207.3H427.267V19.7667Z" fill="#2C2C38"/>
<path d="M439.833 19.7667H437.9V84.5333H439.833V19.7667Z" fill="#2C2C38"/>
<path d="M457.233 211.167C457.233 212.234 444.466 213.1 428.717 213.1C412.967 213.1 400.2 212.234 400.2 211.167C400.2 210.099 412.967 209.233 428.717 209.233C444.466 209.233 457.233 210.099 457.233 211.167Z" fill="#2C2C38"/>
<path d="M405.911 208.178C409.128 206.336 412.77 205.367 416.477 205.367H440.956C444.663 205.367 448.306 206.336 451.523 208.178L453.367 209.233H404.067L405.911 208.178Z" fill="#2C2C38"/>
<path d="M400.2 211.167C401.003 208.852 403.185 207.3 405.635 207.3H451.798C454.249 207.3 456.43 208.852 457.233 211.167H400.2Z" fill="#2C2C38"/>
<path fill-rule="evenodd" clip-rule="evenodd" d="M372.605 200.591H190.75V157.519H372.605V200.591Z" fill="#B6D4FF"/>
<path fill-rule="evenodd" clip-rule="evenodd" d="M321.586 166.634H190.478C183.654 166.634 177.959 161.423 177.354 154.625L173.254 108.543C172.568 100.836 178.64 94.2001 186.378 94.2001H317.486C324.31 94.2001 330.005 99.4107 330.61 106.208L334.71 152.29C335.395 159.997 329.324 166.634 321.586 166.634Z" fill="#B6D4FF"/>
<path fill-rule="evenodd" clip-rule="evenodd" d="M429.498 221.518H378.471C370.923 221.518 364.994 215.055 365.642 207.535L369.866 158.541C370.44 151.883 376.012 146.77 382.695 146.77H433.722C441.27 146.77 447.2 153.233 446.552 160.753L442.327 209.747C441.753 216.405 436.181 221.518 429.498 221.518Z" fill="#B6D4FF"/>
<path fill-rule="evenodd" clip-rule="evenodd" d="M361.032 166.634H215.379C208.554 166.634 202.859 161.423 202.255 154.625L198.155 108.543C197.469 100.836 203.541 94.2001 211.279 94.2001H356.932C363.757 94.2001 369.452 99.4107 370.057 106.208L374.157 152.29C374.842 159.997 368.77 166.634 361.032 166.634Z" fill="#DCEEFF"/>
<path fill-rule="evenodd" clip-rule="evenodd" d="M424.111 221.518H201.7V198.962H424.111V221.518Z" fill="#CCE3FF"/>
<path fill-rule="evenodd" clip-rule="evenodd" d="M393.746 198.961H237.264C229.493 198.961 223.193 192.661 223.193 184.89C223.193 177.119 229.493 170.819 237.264 170.819H393.746C401.518 170.819 407.818 177.119 407.818 184.89C407.818 192.661 401.518 198.961 393.746 198.961Z" fill="#DCEEFF"/>
<path fill-rule="evenodd" clip-rule="evenodd" d="M159.434 239.793H154.097L156.353 221.518H166.201L159.434 239.793Z" fill="#916C4B"/>
<path fill-rule="evenodd" clip-rule="evenodd" d="M205.305 239.793H199.968L202.224 221.518H212.072L205.305 239.793Z" fill="#916C4B"/>
<path fill-rule="evenodd" clip-rule="evenodd" d="M423.268 239.793H428.605L426.35 221.518H416.501L423.268 239.793Z" fill="#916C4B"/>
<path fill-rule="evenodd" clip-rule="evenodd" d="M377.397 239.793H382.734L380.479 221.518H370.63L377.397 239.793Z" fill="#916C4B"/>
<path fill-rule="evenodd" clip-rule="evenodd" d="M429.498 221.518H421.852C414.304 221.518 408.375 215.055 409.023 207.535L413.247 158.541C413.821 151.883 419.393 146.77 426.076 146.77H433.722C441.27 146.77 447.2 153.233 446.552 160.753L442.327 209.747C441.753 216.405 436.181 221.518 429.498 221.518Z" fill="#CCE3FF"/>
<path fill-rule="evenodd" clip-rule="evenodd" d="M209.158 221.518H151.687C145.004 221.518 139.431 216.405 138.858 209.747L134.634 160.753C133.985 153.233 139.914 146.77 147.462 146.77H204.934C211.617 146.77 217.189 151.883 217.763 158.541L221.987 207.535C222.636 215.055 216.706 221.518 209.158 221.518Z" fill="#B6D4FF"/>
<path fill-rule="evenodd" clip-rule="evenodd" d="M209.158 221.518H201.512C194.829 221.518 189.257 216.405 188.683 209.747L184.459 160.753C183.811 153.233 189.74 146.77 197.288 146.77H204.934C211.617 146.77 217.189 151.883 217.763 158.541L221.987 207.535C222.636 215.055 216.706 221.518 209.158 221.518Z" fill="#CCE3FF"/>
<path d="M265.206 53.7298C253.056 55.4248 258.147 69.4185 261.562 76.9742C265.57 85.843 262.059 91.7893 262.059 91.7893L243.278 85.1212C250.171 76.3552 242.558 71.4732 244.432 61.0213C246.113 51.6456 255.238 47.4154 261.003 47.6149C263.881 47.7145 266.236 48.4556 268.101 49.4058C268.171 49.4419 268.239 49.4805 268.304 49.5214C271.709 46.0239 276.424 43.9335 281.873 43.9335C293.078 43.9335 303.145 52.7743 303.145 64.5132C303.145 76.252 294.062 85.7682 282.856 85.7682C271.651 85.7682 262.567 76.252 262.567 64.5132C262.567 60.5011 263.513 56.8276 265.206 53.7298Z" fill="#19141E"/>
<path fill-rule="evenodd" clip-rule="evenodd" d="M284.839 86.3295C284.839 86.3295 280.672 86.4526 278.896 85.4827L284.617 89.0746L284.839 86.3295Z" fill="#CF3E83"/>
<path d="M300.371 70.6257C299.747 75.4602 298.126 82.2722 294.124 84.9332C292.001 86.3445 288.134 86.5185 284.838 86.3284L284.084 95.689L273.328 91.2617C273.328 91.2617 274.362 80.9312 274.81 76.9711C272.648 75.012 268.965 74.1033 268.959 70.7748C268.959 69.6212 269.632 67.6267 272.12 67.6202C275.458 67.617 274.981 71.619 274.981 71.619C275.395 71.7796 275.809 71.7703 276.223 71.6228C279.528 71.4855 288.722 70.1013 294.973 59.4199C295.703 63.0154 297.219 67.4969 300.371 70.6257Z" fill="#F6BA96"/>
<path fill-rule="evenodd" clip-rule="evenodd" d="M293.896 71.6102L296.28 77.3908L293.514 77.3354L293.896 71.6102Z" fill="#125475"/>
<path fill-rule="evenodd" clip-rule="evenodd" d="M291.357 71.8608C291.298 73.0157 290.619 73.9153 289.84 73.8705C289.062 73.8258 288.479 72.8533 288.538 71.6984C288.598 70.5436 289.277 69.6439 290.055 69.6887C290.834 69.7335 291.417 70.7063 291.357 71.8608Z" fill="#0D0B6D"/>
<path fill-rule="evenodd" clip-rule="evenodd" d="M298.668 71.6765C298.608 72.8313 297.929 73.731 297.151 73.6862C296.372 73.6414 295.789 72.6689 295.849 71.5141C295.908 70.3592 296.587 69.4593 297.366 69.504C298.144 69.5488 298.727 70.5216 298.668 71.6765Z" fill="#0D0B6D"/>
<path fill-rule="evenodd" clip-rule="evenodd" d="M292.688 79.6441C292.687 79.6442 292.687 79.6443 292.836 80.1042C292.984 80.5642 292.984 80.5643 292.983 80.5644L292.983 80.5646L292.981 80.5651L292.978 80.5661L292.969 80.5688C292.962 80.5708 292.954 80.5733 292.944 80.5761C292.923 80.5818 292.896 80.5889 292.862 80.5967C292.794 80.6121 292.699 80.6301 292.582 80.6438C292.348 80.6713 292.022 80.6822 291.634 80.6217C290.849 80.4993 289.846 80.0891 288.867 79.001L289.586 78.3546C290.414 79.2748 291.215 79.5779 291.783 79.6666C292.072 79.7116 292.309 79.7026 292.469 79.6838C292.549 79.6743 292.61 79.6625 292.648 79.654C292.666 79.6497 292.679 79.6463 292.686 79.6444L292.691 79.6429C292.692 79.6429 292.691 79.643 292.69 79.6432L292.689 79.6436L292.688 79.6439L292.688 79.6441Z" fill="#1C295E"/>
<path opacity="0.402786" fill-rule="evenodd" clip-rule="evenodd" d="M284.832 86.3295C284.832 86.3295 280.665 86.4526 278.889 85.4824L284.61 89.0742L284.832 86.3295Z" fill="black"/>
<path fill-rule="evenodd" clip-rule="evenodd" d="M268.09 138.889L265.863 138.857C265.863 138.857 265.866 138.822 265.869 138.747C266.636 138.802 267.377 138.847 268.09 138.889Z" fill="#C83820"/>
<path d="M313.458 163.017L306.108 163.938L294.27 145.424L293.838 139.269L275.803 139.002L268.106 138.889H268.089C267.377 138.847 266.636 138.802 265.869 138.747C256.174 138.071 242.74 136.185 241.819 130.965C240.146 121.511 252.797 103.164 254.292 101.038C254.385 100.906 254.433 100.835 254.433 100.835C256.554 97.8059 258.687 95.4505 260.678 94.197C264.551 91.7578 268.183 91.2226 271.634 91.2326L272.558 84.5336L286.637 86.4762L285.87 92.0446C290.004 92.4409 292.817 93.2494 295.449 95.666C303.901 103.425 304.523 132.487 304.523 132.487L313.458 163.017Z" fill="#CE3D29"/>
<path fill-rule="evenodd" clip-rule="evenodd" d="M275.803 139.002V139.131C275.803 139.131 272.575 139.137 268.105 138.889L275.803 139.002Z" fill="#C83820"/>
<path opacity="0.201149" fill-rule="evenodd" clip-rule="evenodd" d="M297.651 128.303C296.536 131.428 295.393 134.634 295.025 139.309L292.134 139.081C292.535 133.987 293.856 130.286 294.998 127.088C295.375 126.033 295.732 125.033 296.03 124.056C297.216 120.165 297.716 116.107 295.244 109.046L297.981 108.088C300.664 115.751 300.164 120.442 298.804 124.902C298.448 126.068 298.051 127.18 297.651 128.303Z" fill="black"/>
<path fill-rule="evenodd" clip-rule="evenodd" d="M305.752 155.436L278.866 152.337C277.985 152.236 277.406 151.37 277.647 150.517L288.27 112.986C288.462 112.307 289.117 111.869 289.818 111.949L316.704 115.048C317.584 115.149 318.164 116.015 317.922 116.868L307.299 154.399C307.107 155.078 306.452 155.517 305.752 155.436Z" fill="#18181C"/>
<path d="M281.877 141.41C281.928 141.424 281.98 141.438 282.032 141.453C283.9 141.963 285.81 142.271 288.465 141.921C290.173 141.698 291.641 141.406 291.625 141.133C291.578 140.445 290.749 140.29 290.749 140.29L289.154 140.367L287.619 140.277C287.619 140.277 294.669 138.943 294.669 138.737C294.647 138.009 293.49 137.715 293.49 137.715C293.49 137.715 295.914 137.329 295.886 136.943C295.82 135.963 294.738 135.888 294.738 135.888C294.738 135.888 295.038 135.629 295.008 135.389C294.889 134.422 293.165 134.263 292.344 134.144C292.344 134.144 289.551 134.106 288.719 133.899C286.531 133.353 285.228 132.865 284.411 132.457L289.87 113.17C290.062 112.492 290.718 112.053 291.418 112.133L318.304 115.233C319.184 115.334 319.764 116.2 319.523 117.052L308.9 154.584C308.708 155.262 308.052 155.701 307.352 155.621L280.466 152.522C279.586 152.42 279.006 151.554 279.247 150.702L281.877 141.41Z" fill="#FCBDA4"/>
<path d="M293.49 137.715C293.49 137.715 294.647 138.009 294.669 138.737C294.669 138.943 287.619 140.277 287.619 140.277L289.154 140.367L290.749 140.29C290.749 140.29 291.578 140.445 291.625 141.133C291.641 141.406 290.173 141.698 288.465 141.921C285.81 142.271 283.9 141.963 282.032 141.453C281.876 141.409 281.724 141.37 281.578 141.332C279.655 140.828 278.798 140.734 276.325 139.387C275.228 138.789 273.611 137.604 272.936 137.004L274.719 130.409L277.176 129.569C277.176 129.569 278.316 129.122 280.242 128.767C281.452 128.544 282.632 128.632 283.88 128.497L283.171 131.095C283.091 131.153 282.999 131.348 282.931 131.423C282.983 131.467 283.036 131.516 283.096 131.571C283.606 132.037 284.57 132.863 288.719 133.899C289.551 134.106 292.344 134.144 292.344 134.144C293.165 134.263 294.889 134.422 295.008 135.389C295.038 135.629 294.738 135.888 294.738 135.888C294.738 135.888 295.82 135.963 295.886 136.943C295.914 137.329 293.49 137.715 293.49 137.715Z" fill="#F6BA96"/>
<path fill-rule="evenodd" clip-rule="evenodd" d="M305.182 127.382C304.624 128.435 303.435 129.148 302.524 128.974C301.613 128.8 301.327 127.805 301.885 126.752C302.442 125.698 303.632 124.985 304.543 125.159C305.453 125.334 305.739 126.329 305.182 127.382Z" fill="#020101"/>
<path opacity="0.200498" fill-rule="evenodd" clip-rule="evenodd" d="M264.279 110.421L266.762 111.92L260.862 121.689L276.141 127.735L275.074 130.431L256.607 123.125L264.279 110.421Z" fill="black"/>
<path fill-rule="evenodd" clip-rule="evenodd" d="M365.737 199.255L362.414 192.716L354.419 193.921L365.294 211.748L389.148 195.917C380.938 194.085 365.737 199.255 365.737 199.255ZM328.382 233.717L329.213 226.458L321.907 223.066L320.827 243.856L349.672 243.806C343.855 237.773 328.382 233.717 328.382 233.717Z" fill="#0D0B6D"/>
<path fill-rule="evenodd" clip-rule="evenodd" d="M363.256 193.644L355.152 195.336L359.818 202.821L366.537 198.726L363.256 193.644ZM329.222 227.938L321.558 224.892L321.322 233.677L329.156 233.965L329.222 227.938Z" fill="#F6BA96"/>
<path d="M340.804 186.71L336.837 229.766H318.464L319.28 167.251L284.211 167.493C274.207 167.492 264.53 158.901 265.224 148.915L266.315 138.749L319.87 122.927C329.784 120.686 333.222 123.647 339.65 135.089L368.03 193.263L352.439 203.682L340.804 186.71Z" fill="#2F2F3D"/>
<path opacity="0.150484" fill-rule="evenodd" clip-rule="evenodd" d="M324.344 142.451L284.211 167.493L319.28 167.251L318.464 229.767H336.837L343.136 161.396C344.69 148.956 336.904 142.451 324.344 142.451Z" fill="#18181C"/>
<path d="M436.933 83.5666C436.933 82.4989 437.799 81.6333 438.867 81.6333C439.934 81.6333 440.8 82.4989 440.8 83.5666V92.2666C440.8 93.3344 439.934 94.2 438.867 94.2C437.799 94.2 436.933 93.3344 436.933 92.2666V83.5666Z" fill="#2C2C38"/>
<path fill-rule="evenodd" clip-rule="evenodd" d="M457.225 61.2851C457.23 61.3012 457.233 61.3172 457.233 61.3334C457.233 62.4011 444.466 63.2667 428.717 63.2667C412.967 63.2667 400.2 62.4011 400.2 61.3334C400.2 61.3172 400.203 61.3012 400.209 61.2851L410.833 2.3667H446.6L457.225 61.2851Z" fill="#FF8B92"/>
<path d="M446.6 2.36668C446.6 3.43444 438.593 4.30002 428.717 4.30002C418.84 4.30002 410.833 3.43444 410.833 2.36668C410.833 1.29893 418.84 0.43335 428.717 0.43335C438.593 0.43335 446.6 1.29893 446.6 2.36668Z" fill="#C26F74"/>
<path fill-rule="evenodd" clip-rule="evenodd" d="M143.206 196.21C143.206 195.143 128.491 194.277 110.339 194.277C92.1875 194.277 77.4726 195.143 77.4726 196.21H143.206Z" fill="#FD7880"/>
<path d="M135.473 196.21C135.473 196.744 124.22 197.177 110.339 197.177C96.4585 197.177 85.2059 196.744 85.2059 196.21C85.2059 195.676 96.4585 195.244 110.339 195.244C124.22 195.244 135.473 195.676 135.473 196.21Z" fill="#BB3939"/>
<path fill-rule="evenodd" clip-rule="evenodd" d="M156.019 128.136C155.449 127.573 154.531 127.579 153.968 128.148C130.982 151.418 122.509 185.057 121.126 199.017C121.048 199.814 121.63 200.524 122.426 200.603C123.223 200.682 123.933 200.1 124.012 199.303C125.357 185.726 133.676 152.817 156.031 130.186C156.594 129.617 156.588 128.699 156.019 128.136Z" fill="#416B71"/>
<path d="M128.845 157.418C128.541 163.458 129.727 168.435 131.494 168.534C133.26 168.634 134.937 163.818 135.241 157.778C135.544 151.739 134.358 146.762 132.592 146.662C130.826 146.563 129.148 151.378 128.845 157.418Z" fill="#416B71"/>
<path d="M128.262 174.323C123.999 179.462 121.87 184.598 123.506 185.796C125.143 186.993 129.925 183.798 134.188 178.659C138.451 173.52 140.58 168.383 138.944 167.186C137.307 165.988 132.525 169.184 128.262 174.323Z" fill="#416B71"/>
<path d="M147.39 139.383C141.995 143.966 138.81 148.904 140.276 150.411C141.742 151.918 147.303 149.425 152.697 144.842C158.091 140.258 161.276 135.321 159.811 133.813C158.345 132.306 152.784 134.799 147.39 139.383Z" fill="#528087"/>
<path d="M155.947 122.899C152.154 127.471 150.247 132.032 151.688 133.086C153.128 134.14 157.371 131.288 161.164 126.716C164.957 122.143 166.864 117.582 165.423 116.528C163.983 115.474 159.74 118.326 155.947 122.899Z" fill="#416B71"/>
<path d="M136.714 156.969C131.385 161.805 128.257 166.877 129.729 168.296C131.201 169.716 136.714 166.946 142.043 162.109C147.373 157.273 150.5 152.201 149.029 150.782C147.557 149.362 142.044 152.132 136.714 156.969Z" fill="#528087"/>
<path d="M138.879 136.538C137.501 143.235 138.082 148.99 140.175 149.392C142.268 149.794 145.081 144.691 146.458 137.994C147.836 131.298 147.255 125.543 145.162 125.141C143.069 124.739 140.256 129.842 138.879 136.538Z" fill="#618C93"/>
<path d="M122.628 175.528C121.359 181.48 121.785 186.594 123.578 186.95C125.372 187.307 127.855 182.77 129.123 176.818C130.392 170.866 129.967 165.752 128.173 165.395C126.379 165.039 123.897 169.576 122.628 175.528Z" fill="#618C93"/>
<path fill-rule="evenodd" clip-rule="evenodd" d="M119.624 46.9834C120.357 47.3063 120.689 48.1621 120.366 48.895C118.295 53.594 115.176 61.6552 112.576 70.5051C109.97 79.3779 107.923 88.9263 107.923 96.6436C107.923 106.23 111.791 116.608 115.795 126.679C116.072 127.374 116.349 128.069 116.625 128.761C118.331 133.033 120.006 137.227 121.308 141.186C122.819 145.779 123.873 150.183 123.873 154.16C123.873 160.391 121.716 169.395 119.097 177.988C116.464 186.63 113.306 195.036 111.196 200.147C110.891 200.887 110.043 201.239 109.303 200.934C108.563 200.628 108.21 199.781 108.516 199.04C110.595 194.002 113.72 185.684 116.323 177.143C118.941 168.553 120.973 159.916 120.973 154.16C120.973 150.646 120.033 146.591 118.553 142.092C117.282 138.227 115.645 134.128 113.937 129.848C113.659 129.154 113.38 128.454 113.1 127.75C109.129 117.763 105.023 106.874 105.023 96.6436C105.023 88.5075 107.164 78.642 109.794 69.6878C112.431 60.7108 115.594 52.532 117.712 47.7255C118.035 46.9927 118.891 46.6604 119.624 46.9834Z" fill="#416B71"/>
<path d="M127.453 139.61C126.746 146.378 124.576 151.697 122.606 151.492C120.636 151.286 119.612 145.633 120.319 138.865C121.026 132.097 123.196 126.777 125.166 126.983C127.136 127.188 128.159 132.842 127.453 139.61Z" fill="#416B71"/>
<path d="M108.715 102.529C111.452 111.118 111.465 118.784 108.744 119.651C106.023 120.518 101.598 114.258 98.8616 105.669C96.1246 97.0797 96.1117 89.4138 98.8328 88.5468C101.554 87.6797 105.978 93.9399 108.715 102.529Z" fill="#416B71"/>
<path d="M126.05 60.0589C120.11 66.8403 113.701 70.9417 111.735 69.2196C109.769 67.4974 112.99 60.6039 118.929 53.8225C124.869 47.041 131.278 42.9396 133.244 44.6618C135.21 46.3839 131.989 53.2774 126.05 60.0589Z" fill="#416B71"/>
<path d="M110.135 79.3126C110.395 86.825 108.594 93.1308 106.112 93.397C103.629 93.6633 101.405 87.7891 101.145 80.2767C100.884 72.7643 102.685 66.4585 105.168 66.1923C107.65 65.9261 109.874 71.8002 110.135 79.3126Z" fill="#416B71"/>
<path d="M122.98 158.379C123.284 165.84 121.746 171.961 119.545 172.051C117.344 172.141 115.313 166.165 115.009 158.703C114.705 151.242 116.243 145.12 118.445 145.031C120.646 144.941 122.677 150.917 122.98 158.379Z" fill="#416B71"/>
<path d="M122.9 135.006C125.741 142.847 125.963 149.957 123.396 150.887C120.829 151.817 116.444 146.216 113.603 138.375C110.762 130.535 110.54 123.425 113.107 122.495C115.675 121.564 120.059 127.166 122.9 135.006Z" fill="#528087"/>
<path d="M116.274 104.799C114.414 112.928 110.816 119.039 108.239 118.45C105.662 117.86 105.081 110.792 106.941 102.663C108.802 94.5335 112.399 88.4218 114.976 89.0116C117.554 89.6015 118.135 96.6696 116.274 104.799Z" fill="#528087"/>
<path d="M129.183 38.8165C125.204 46.1455 119.994 51.0094 117.546 49.6804C115.098 48.3513 116.338 41.3326 120.317 34.0036C124.295 26.6746 129.505 21.8107 131.954 23.1398C134.402 24.4688 133.161 31.4876 129.183 38.8165Z" fill="#528087"/>
<path d="M116.039 51.7931C116.431 60.1232 114.766 66.9693 112.32 67.0843C109.874 67.1994 107.574 60.5398 107.182 52.2098C106.79 43.8797 108.455 37.0336 110.901 36.9186C113.347 36.8035 115.647 43.4631 116.039 51.7931Z" fill="#618C93"/>
<path d="M115.903 82.8257C113.45 89.6601 109.686 94.8451 107.496 94.4066C105.305 93.9682 105.517 88.0723 107.97 81.2379C110.422 74.4035 114.186 69.2185 116.377 69.657C118.568 70.0954 118.355 75.9912 115.903 82.8257Z" fill="#618C93"/>
<path d="M127.056 163.034C124.238 169.376 120.507 173.874 118.723 173.082C116.94 172.289 117.778 166.505 120.596 160.164C123.413 153.822 127.144 149.323 128.928 150.116C130.712 150.908 129.873 156.692 127.056 163.034Z" fill="#618C93"/>
<path fill-rule="evenodd" clip-rule="evenodd" d="M147.193 148.851C147.723 149.451 147.666 150.368 147.065 150.898C127.667 168.014 121.59 189.714 120.969 198.249C120.911 199.047 120.216 199.648 119.418 199.59C118.619 199.532 118.018 198.837 118.077 198.038C118.745 188.851 125.105 166.406 145.147 148.723C145.747 148.193 146.663 148.25 147.193 148.851Z" fill="#416B71"/>
<path d="M152.632 150.907C147.161 153.525 142.184 154.515 141.516 153.118C140.848 151.722 144.742 148.468 150.213 145.85C155.684 143.232 160.661 142.242 161.33 143.639C161.998 145.035 158.104 148.289 152.632 150.907Z" fill="#416B71"/>
<path d="M126.296 175.177C125.489 181.289 123.537 186.073 121.937 185.862C120.337 185.651 119.694 180.524 120.501 174.412C121.309 168.299 123.26 163.515 124.86 163.726C126.461 163.938 127.104 169.064 126.296 175.177Z" fill="#416B71"/>
<path d="M133.64 179.414C128.361 184.322 122.956 187.089 121.566 185.594C120.176 184.099 123.328 178.909 128.606 174.001C133.884 169.093 139.29 166.326 140.68 167.821C142.07 169.316 138.918 174.506 133.64 179.414Z" fill="#528087"/>
<path d="M144.473 149.794C141.533 157.209 137.461 162.55 135.378 161.725C133.295 160.899 133.989 154.218 136.929 146.803C139.869 139.388 143.941 134.046 146.024 134.872C148.107 135.698 147.413 142.379 144.473 149.794Z" fill="#528087"/>
<path fill-rule="evenodd" clip-rule="evenodd" d="M128.623 89.2103C129.258 89.6981 129.377 90.6084 128.889 91.2435C124.665 96.7427 118.31 106.143 113.018 116.412C107.7 126.73 103.573 137.706 103.573 146.427C103.573 164.298 111.853 188.598 116.026 198.549C116.336 199.288 115.989 200.138 115.25 200.447C114.511 200.757 113.662 200.409 113.352 199.671C109.148 189.645 100.673 164.902 100.673 146.427C100.673 136.974 105.084 125.475 110.44 115.083C115.822 104.641 122.274 95.0945 126.589 89.477C127.077 88.8419 127.987 88.7225 128.623 89.2103Z" fill="#416B71"/>
<path d="M118.929 117.244C113.835 124.682 107.987 129.534 105.866 128.082C103.745 126.629 106.156 119.422 111.249 111.985C116.343 104.547 122.191 99.6947 124.312 101.147C126.433 102.599 124.023 109.806 118.929 117.244Z" fill="#416B71"/>
<path d="M104.676 142.871C105.463 151.851 104.009 159.315 101.428 159.541C98.8474 159.767 96.1175 152.67 95.3306 143.69C94.5438 134.709 95.998 127.246 98.5787 127.02C101.159 126.794 103.889 133.89 104.676 142.871Z" fill="#416B71"/>
<path d="M115.195 115.206C112.295 123.025 107.868 128.593 105.308 127.644C102.748 126.694 103.024 119.586 105.924 111.767C108.824 103.949 113.25 98.38 115.81 99.3297C118.371 100.279 118.095 107.387 115.195 115.206Z" fill="#528087"/>
<path d="M109.817 174.547C113.064 181.268 113.451 187.801 110.681 189.14C107.91 190.478 103.032 186.114 99.7852 179.393C96.5382 172.672 96.1516 166.139 98.9219 164.8C101.692 163.462 106.57 167.825 109.817 174.547Z" fill="#528087"/>
<path d="M110.956 147.279C108.856 155.35 105.27 161.402 102.946 160.797C100.623 160.193 100.442 153.16 102.542 145.09C104.642 137.019 108.228 130.967 110.551 131.572C112.874 132.176 113.056 139.209 110.956 147.279Z" fill="#618C93"/>
<path d="M135.067 90.6264C129.342 96.6893 123.253 100.238 121.469 98.5528C119.684 96.8674 122.879 90.5862 128.605 84.5232C134.33 78.4603 140.419 74.9115 142.203 76.5969C143.988 78.2822 140.793 84.5634 135.067 90.6264Z" fill="#618C93"/>
<path d="M116.983 176.72C115.847 183.566 112.874 188.775 110.342 188.355C107.81 187.935 106.679 182.045 107.815 175.198C108.951 168.352 111.924 163.143 114.455 163.563C116.987 163.983 118.119 169.873 116.983 176.72Z" fill="#618C93"/>
<path fill-rule="evenodd" clip-rule="evenodd" d="M70.7976 114.821C71.4362 114.337 72.3456 114.463 72.8288 115.102C94.7434 144.061 100.189 183.147 100.189 199.11C100.189 199.911 99.5401 200.56 98.7393 200.56C97.9384 200.56 97.2893 199.911 97.2893 199.11C97.2893 183.496 91.9084 145.12 70.5163 116.852C70.0331 116.213 70.159 115.304 70.7976 114.821Z" fill="#416B71"/>
<path d="M96.4671 151.001C96.1539 157.894 94.3716 163.413 92.4862 163.327C90.6008 163.241 89.3262 157.584 89.6394 150.691C89.9525 143.798 91.7348 138.28 93.6202 138.365C95.5056 138.451 96.7802 144.108 96.4671 151.001Z" fill="#416B71"/>
<path d="M95.308 170.264C99.2931 176.58 101.013 182.652 99.1501 183.828C97.2869 185.004 92.546 180.837 88.561 174.522C84.5759 168.206 82.8558 162.133 84.7189 160.958C86.5821 159.782 91.323 163.949 95.308 170.264Z" fill="#416B71"/>
<path d="M78.6769 128.433C83.9214 134.245 86.7831 140.211 85.0687 141.758C83.3543 143.305 77.713 139.848 72.4685 134.036C67.2241 128.224 64.3624 122.258 66.0768 120.711C67.7912 119.164 73.4325 122.622 78.6769 128.433Z" fill="#528087"/>
<path d="M71.3261 108.751C74.8718 114.371 76.4166 119.765 74.7766 120.8C73.1365 121.835 68.9325 118.118 65.3868 112.499C61.8411 106.88 60.2962 101.486 61.9363 100.451C63.5764 99.4158 67.7803 103.132 71.3261 108.751Z" fill="#416B71"/>
<path d="M88.16 149.606C93.309 155.698 96.0957 161.809 94.3843 163.256C92.6728 164.702 87.1113 160.936 81.9623 154.844C76.8133 148.752 74.0267 142.641 75.7381 141.194C77.4495 139.748 83.011 143.514 88.16 149.606Z" fill="#528087"/>
<path d="M88.011 126.161C88.7689 133.921 87.5478 140.391 85.2835 140.612C83.0193 140.833 80.5694 134.722 79.8115 126.962C79.0536 119.202 80.2748 112.732 82.539 112.511C84.8033 112.289 87.2532 118.401 88.011 126.161Z" fill="#618C93"/>
<path d="M101.162 172.266C101.883 179.169 100.894 184.928 98.9521 185.131C97.0106 185.334 94.8523 179.903 94.1313 173.001C93.4104 166.099 94.3998 160.339 96.3413 160.136C98.2828 159.933 100.441 165.364 101.162 172.266Z" fill="#618C93"/>
<path fill-rule="evenodd" clip-rule="evenodd" d="M77.4726 196.21H77.4726L77.4726 196.21C77.4726 196.21 77.4726 196.21 77.4726 196.21ZM77.4795 196.25L87.1392 252.277C87.1392 253.345 97.5262 254.21 110.339 254.21C123.152 254.21 133.539 253.345 133.539 252.277L143.199 196.25C142.837 197.3 128.264 198.144 110.339 198.144C92.4147 198.144 77.8415 197.3 77.4795 196.25Z" fill="#F85454"/>
<path opacity="0.6" fill-rule="evenodd" clip-rule="evenodd" d="M79.9493 210.523L79.5126 207.991C83.9944 206.745 88.5163 206.341 93.0845 206.225C94.5251 206.188 95.9683 206.144 97.4138 206.101C102.455 205.95 107.524 205.798 112.596 205.924C118.562 206.072 124.78 207.253 130.53 208.604C133.131 209.215 134.611 209.782 137.012 211.484C138.106 212.26 138.945 213.07 139.479 214.16C139.668 214.546 139.809 214.948 139.912 215.366L139.008 220.609C138.942 220.669 138.875 220.726 138.806 220.78C138.08 221.351 137.167 221.643 136.315 221.806C134.91 222.075 133.32 222.047 132.309 222.029C132.095 222.025 131.908 222.021 131.753 222.021C125.867 222.021 120.023 222.249 114.128 222.555C112.024 222.664 109.9 222.724 107.772 222.783C99.7773 223.008 91.7236 223.234 84.4147 226.099C83.8272 226.329 83.2819 226.628 82.7867 226.981L82.3316 224.341C82.7839 224.067 83.2545 223.833 83.7371 223.644C91.3835 220.646 99.8637 220.412 107.896 220.191L107.896 220.191C109.979 220.133 112.033 220.076 114.034 219.972C119.942 219.666 125.822 219.437 131.753 219.437C131.953 219.437 132.177 219.44 132.419 219.444C133.441 219.461 134.776 219.483 135.971 219.254C136.709 219.113 137.265 218.895 137.611 218.623C137.905 218.392 137.996 218.175 137.996 217.873C137.996 216.678 137.863 215.99 137.605 215.463C137.343 214.926 136.87 214.391 135.903 213.705C133.757 212.184 132.52 211.706 130.111 211.14C124.401 209.798 118.328 208.652 112.551 208.508C107.533 208.383 102.532 208.533 97.4988 208.684L97.4988 208.684C96.0458 208.728 94.5902 208.772 93.1308 208.809C88.6113 208.924 84.2388 209.324 79.9493 210.523ZM134.864 244.645C134.336 244.692 133.807 244.74 133.277 244.788H133.277L133.276 244.788C132.097 244.895 130.912 245.002 129.718 245.102C116.214 246.236 102.959 244.863 89.6924 242.756C88.4465 242.558 86.8975 242.263 85.3354 241.763L84.8403 238.892C86.5774 239.574 88.452 239.951 89.979 240.194C103.19 242.292 116.276 243.639 129.566 242.524C130.735 242.426 131.903 242.32 133.072 242.214L133.074 242.214C133.822 242.146 134.57 242.078 135.318 242.013L134.864 244.645Z" fill="#BB3939"/>
<path fill-rule="evenodd" clip-rule="evenodd" d="M110.339 198.144C92.1875 198.144 77.4726 197.278 77.4726 196.21L85.2059 196.21C85.2059 196.744 96.4585 197.177 110.339 197.177C124.22 197.177 135.473 196.744 135.473 196.21L143.206 196.21C143.206 197.278 128.491 198.144 110.339 198.144Z" fill="#FD7880"/>
</g>
<defs>
<clipPath id="clip0">
<rect width="580" height="265" fill="white"/>
</clipPath>
</defs>
</svg>
