<svg width="120" height="120" viewBox="0 0 120 120" fill="none" xmlns="http://www.w3.org/2000/svg">
<g clip-path="url(#clip0)">
<path d="M59.7733 61.0475L48.2636 57.5572L47.0116 55.0532C46.6214 54.2725 45.7291 53.9113 44.9219 54.1614V53.7257C49.6882 50.2825 52.9228 44.8441 53.3814 38.6432C55.615 38.0191 57.3726 36.2029 57.7406 33.9388C57.9728 32.5108 57.6696 31.1048 56.9753 29.9362C59.1972 28.773 60.7178 26.4456 60.7178 23.7689C60.7178 21.3412 59.4314 19.1292 57.431 17.883C57.5414 17.4293 57.5978 16.9617 57.5978 16.4887C57.5978 13.2255 54.9431 10.5708 51.6799 10.5708C50.8971 10.5708 50.1499 10.725 49.4655 11.0022C46.0781 7.9249 41.7408 6.23975 37.1194 6.23975H28.7991C24.1981 6.23975 19.8427 7.92771 16.4525 11.002C15.7681 10.7247 15.0211 10.5708 14.2386 10.5708C10.9754 10.5708 8.32059 13.2255 8.32059 16.4887C8.32059 16.9619 8.37708 17.4295 8.48747 17.883C6.48685 19.1292 5.2006 21.3412 5.2006 23.7689C5.2006 26.4442 6.71935 28.7702 8.93887 29.9341C8.2463 31.0987 7.94466 32.5042 8.17786 33.9388C8.54583 36.2029 10.3034 38.0191 12.537 38.6432C12.9947 44.8356 16.2214 50.2672 20.9768 53.7111V54.1548C20.1748 53.9167 19.2938 54.2788 18.9066 55.0529L17.6555 57.5549L5.70005 61.1415C2.2906 62.1646 6.10352e-05 65.2433 6.10352e-05 68.8028V112.002C6.10352e-05 112.972 0.787091 113.759 1.75787 113.759C2.72865 113.759 3.51568 112.972 3.51568 112.002V68.8028C3.51568 68.6739 3.52154 68.5463 3.53209 68.4198L10.5584 75.4461C11.798 76.6857 12.4805 78.3336 12.4805 80.0865V112.001C12.4805 112.972 13.2675 113.759 14.2383 113.759C15.2091 113.759 15.9961 112.972 15.9961 112.001V80.0865C15.9961 77.3945 14.9478 74.8637 13.0442 72.9601L5.30325 65.2192C5.71763 64.9098 6.18942 64.6653 6.7102 64.5092L14.63 62.1334C15.2501 63.8764 19.8556 75.8474 31.984 83.9328C32.2793 84.1297 32.6191 84.2281 32.959 84.2281C33.2988 84.2281 33.6387 84.1297 33.934 83.9328C46.4686 75.5764 50.94 63.2237 51.3079 62.1542L58.7533 64.412C58.9235 64.4635 59.095 64.4882 59.264 64.4882C60.018 64.4882 60.7153 63.999 60.9454 63.2399C61.2271 62.3108 60.7024 61.3295 59.7733 61.0475ZM45.4444 59.78L39.5041 67.2055C39.4226 67.3074 39.3246 67.3283 39.2473 67.3264C39.1753 67.3253 39.0729 67.3021 38.9946 67.1975L35.6292 62.7102L44.6533 58.198L45.4444 59.78ZM32.959 60.1145L24.4922 55.8812V55.7633C27.0741 56.9404 29.9412 57.5973 32.959 57.5973C35.9693 57.5973 38.8294 56.9432 41.4063 55.7715V55.8908L32.959 60.1145ZM51.6797 14.0866C53.0043 14.0866 54.082 15.1643 54.082 16.4889C54.082 16.9582 53.9437 17.415 53.6824 17.8099C53.3718 18.2789 53.3046 18.8681 53.5014 19.395C53.6983 19.9218 54.1352 20.3226 54.6768 20.4735C56.1637 20.8875 57.2022 22.2426 57.2022 23.7691C57.2022 25.6673 55.6579 27.2116 53.7597 27.2116C51.8615 27.2116 50.3172 25.6673 50.3172 23.7691C50.3172 22.9185 50.6442 22.0947 51.2379 21.4497C51.6185 21.0363 51.7783 20.4658 51.6682 19.9148C51.558 19.3638 51.191 18.8986 50.681 18.6632C49.8283 18.2697 49.2773 17.4164 49.2773 16.4889C49.2773 15.1643 50.355 14.0866 51.6797 14.0866ZM8.71575 23.7691C8.71598 22.2428 9.75426 20.8877 11.2411 20.4738C11.783 20.3228 12.2199 19.9221 12.4165 19.3952C12.6132 18.8683 12.5459 18.2791 12.2356 17.8101C11.9743 17.4152 11.836 16.9584 11.836 16.4892C11.836 15.1645 12.9136 14.0868 14.2383 14.0868C15.563 14.0868 16.6407 15.1643 16.6407 16.4889C16.6407 17.4164 16.0896 18.27 15.237 18.6632C14.7268 18.8986 14.3597 19.3638 14.2498 19.9148C14.1396 20.4658 14.2995 21.0363 14.6801 21.4497C15.2738 22.0947 15.6007 22.9185 15.6007 23.7691C15.6007 25.6673 14.0564 27.2116 12.1582 27.2116C10.26 27.2116 8.71575 25.6673 8.71575 23.7691ZM15.9961 37.1188C15.9961 36.148 15.2091 35.361 14.2383 35.361C12.9455 35.361 11.8315 34.5072 11.6475 33.3749C11.4378 32.0849 12.2271 30.8983 13.4834 30.6152C13.5514 30.5999 13.6168 30.5798 13.681 30.5573C16.7874 29.8607 19.1161 27.0827 19.1161 23.7693C19.1161 22.6942 18.8639 21.6445 18.3886 20.6932C19.4977 19.5989 20.1563 18.0895 20.1563 16.4889C20.1563 15.3023 19.8038 14.1968 19.2 13.2693C21.8829 10.9983 25.2502 9.7556 28.7988 9.7556H37.1191C40.6835 9.7556 44.0407 10.9922 46.7208 13.2651C46.1151 14.1935 45.7617 15.3004 45.7617 16.4889C45.7617 18.0895 46.4203 19.5989 47.5294 20.6932C47.0538 21.6445 46.8018 22.6942 46.8018 23.7693C46.8018 27.1495 49.2253 29.9732 52.4257 30.5976C52.4796 30.6196 52.5349 30.6395 52.5918 30.6564C53.5971 30.9567 54.4964 31.9867 54.2707 33.3752C54.0867 34.5074 52.9727 35.3613 51.6799 35.3613C50.7091 35.3613 49.9221 36.1483 49.9221 37.1191C49.9221 46.4725 42.3126 54.0819 32.9592 54.0819C23.6058 54.0819 15.9961 46.4722 15.9961 37.1188ZM20.7078 59.3115L21.2646 58.198L30.289 62.7102L26.9236 67.1975C26.8453 67.3021 26.7429 67.3253 26.6709 67.3264C26.5941 67.3325 26.4956 67.3074 26.4141 67.2055L20.5207 59.8389C20.6105 59.6748 20.6735 59.4969 20.7078 59.3115ZM32.959 80.3366C25.0896 74.7437 20.8542 67.4239 19.0542 63.6334L23.6688 69.4016C24.4031 70.3194 25.4918 70.8421 26.6639 70.8421C26.6845 70.8421 26.7052 70.8418 26.7258 70.8416C27.9213 70.8228 29.0184 70.2634 29.7359 69.3069L31.2009 67.3534V74.5604C31.2009 75.5312 31.988 76.3182 32.9587 76.3182C33.9295 76.3182 34.7166 75.5312 34.7166 74.5604V67.3534L36.1816 69.3069C36.8991 70.2636 37.9962 70.8228 39.1917 70.8416C39.2123 70.8418 39.233 70.8421 39.2536 70.8421C40.4257 70.8421 41.5144 70.3194 42.2487 69.4016L46.8773 63.6156C45.0919 67.3958 40.8691 74.7177 32.959 80.3366Z" fill="#0A0D27"/>
<path d="M38.2266 41.9943C37.4727 41.3826 36.3657 41.4982 35.7542 42.2521C35.0066 43.1742 34.014 43.6818 32.9593 43.6818C31.9046 43.6818 30.9121 43.1742 30.1644 42.2521C29.5532 41.4982 28.446 41.3829 27.692 41.9943C26.938 42.6058 26.8227 43.7128 27.4342 44.4668C28.8416 46.2021 30.8556 47.1972 32.9596 47.1972C35.0635 47.1972 37.0768 46.2018 38.4845 44.4668C39.0959 43.7128 38.9806 42.6058 38.2266 41.9943Z" fill="#0A0D27"/>
<path d="M24.6387 31.2007C23.6679 31.2007 22.8809 31.9877 22.8809 32.9585V35.0386C22.8809 36.0093 23.6679 36.7964 24.6387 36.7964C25.6094 36.7964 26.3965 36.0093 26.3965 35.0386V32.9585C26.3965 31.9877 25.6094 31.2007 24.6387 31.2007Z" fill="#0A0D27"/>
<path d="M41.2793 31.2007C40.3085 31.2007 39.5215 31.9877 39.5215 32.9585V35.0386C39.5215 36.0093 40.3085 36.7964 41.2793 36.7964C42.2501 36.7964 43.0371 36.0093 43.0371 35.0386V32.9585C43.0371 31.9877 42.2501 31.2007 41.2793 31.2007Z" fill="#0A0D27"/>
<path d="M59.1627 69.1574C58.4763 68.471 57.3632 68.471 56.677 69.1574L52.8738 72.9606C50.9702 74.8642 49.9218 77.395 49.9218 80.087V112.002C49.9218 112.973 50.7088 113.76 51.6796 113.76C52.6504 113.76 53.4374 112.973 53.4374 112.002V80.087C53.4374 78.3341 54.1202 76.686 55.3595 75.4466L59.1627 71.6434C59.8492 70.957 59.8492 69.8439 59.1627 69.1574Z" fill="#0A0D27"/>
<path d="M94.3886 56.5549C93.6347 55.9432 92.5275 56.0587 91.9162 56.8127C91.1686 57.7347 90.176 58.2424 89.1213 58.2424C88.0666 58.2424 87.074 57.7347 86.3264 56.8127C85.7151 56.0587 84.608 55.9434 83.854 56.5549C83.1 57.1664 82.9847 58.2733 83.5962 59.0273C85.0034 60.7624 87.0171 61.7578 89.1211 61.7578C91.2251 61.7578 93.2388 60.7624 94.6465 59.0273C95.2579 58.2733 95.1426 57.1664 94.3886 56.5549Z" fill="#0A0D27"/>
<path d="M70.4003 87.3628C69.4295 87.3628 68.6425 88.1498 68.6425 89.1206V112.001C68.6425 112.972 69.4295 113.759 70.4003 113.759C71.3711 113.759 72.1581 112.972 72.1581 112.001V89.1206C72.1581 88.1498 71.3711 87.3628 70.4003 87.3628Z" fill="#0A0D27"/>
<path d="M107.842 87.3628C106.871 87.3628 106.084 88.1498 106.084 89.1206V112.001C106.084 112.972 106.871 113.759 107.842 113.759C108.812 113.759 109.599 112.972 109.599 112.001V89.1206C109.599 88.1498 108.812 87.3628 107.842 87.3628Z" fill="#0A0D27"/>
<path d="M114.124 75.3503C115.222 73.9576 115.84 72.2216 115.84 70.3998C115.84 67.4375 114.215 64.7865 111.673 63.4075C111.677 63.3114 111.68 63.2155 111.68 63.1197C111.68 60.8347 110.573 58.7432 108.767 57.456C108.887 57.0505 108.998 56.6422 109.092 56.2288C109.32 55.225 109.465 54.1642 109.533 53.0017C112.3 48.9194 113.76 44.1569 113.76 39.1987C113.76 25.6129 102.707 14.5601 89.121 14.5601C75.5352 14.5601 64.4823 25.6129 64.4823 39.1987C64.4823 44.1573 65.9423 48.9198 68.7091 53.0019C68.7773 54.1651 68.9226 55.2257 69.1501 56.2286C69.2439 56.6418 69.355 57.0501 69.4745 57.4558C67.6687 58.7429 66.5624 60.8345 66.5624 63.1197C66.5624 63.2155 66.5648 63.3114 66.5692 63.4075C64.0267 64.7865 62.4023 67.4378 62.4023 70.3998C62.4023 72.2216 63.0206 73.9576 64.1184 75.3503C60.4959 77.5238 58.2421 81.4283 58.2421 85.7614V112.002C58.2421 112.973 59.0292 113.76 59.9999 113.76C60.9707 113.76 61.7577 112.973 61.7577 112.002V85.7614C61.7577 82.2069 63.8903 79.0571 67.1905 77.7369L67.5269 77.6024C72.726 84.6289 80.7355 88.7982 89.1212 88.7982C97.6215 88.7982 105.455 84.725 110.714 77.6019L111.052 77.7369C114.352 79.0571 116.484 82.2069 116.484 85.7614V112.001C116.484 112.972 117.271 113.759 118.242 113.759C119.213 113.759 120 112.972 120 112.001V85.7614C120 81.4283 117.746 77.5238 114.124 75.3503ZM67.998 39.1987C67.998 27.5514 77.4737 18.0757 89.121 18.0757C100.768 18.0757 110.244 27.5514 110.244 39.1987C110.244 42.1614 109.635 45.0416 108.464 47.6999C105.932 42.25 100.303 40.7228 94.8264 39.2411C90.3993 38.0432 85.8214 36.8043 81.8985 33.666C81.4839 33.3344 80.9413 33.2076 80.4233 33.3217C79.9049 33.4356 79.4657 33.7776 79.2283 34.2524C79.21 34.2888 77.3685 37.9094 73.7741 39.7066C72.9058 40.1406 72.5537 41.1965 72.988 42.0648C73.4221 42.9332 74.4777 43.2855 75.3463 42.8509C78.2073 41.4203 80.1786 39.1488 81.2901 37.5761C85.3846 40.3281 89.8836 41.5457 93.9081 42.6346C95.229 42.992 96.4447 43.3309 97.5559 43.6841C97.5174 43.6834 97.4795 43.6813 97.441 43.6813C95.2989 43.6813 93.4189 44.8253 92.3802 46.5346C91.4085 46.0345 90.2931 45.7614 89.121 45.7614C87.9486 45.7614 86.833 46.0345 85.8615 46.5346C84.8225 44.8255 82.9426 43.6813 80.8007 43.6813C77.5375 43.6813 74.8827 46.3361 74.8827 49.5993C74.8827 52.8625 77.5375 55.5173 80.8007 55.5173C83.8419 55.5173 86.3537 53.211 86.6814 50.2555C87.2549 49.6452 88.1516 49.277 89.121 49.277C90.0901 49.277 90.9868 49.6452 91.5603 50.2555C91.888 53.211 94.3998 55.5173 97.441 55.5173C100.704 55.5173 103.359 52.8625 103.359 49.5993C103.359 47.8898 102.63 46.348 101.467 45.2669C103.981 46.6368 105.527 48.5493 106.1 51.9271C106.07 52.045 106.051 52.1673 106.047 52.2937C106.005 53.4658 105.879 54.4984 105.663 55.4509C104.826 59.1383 102.735 62.4866 99.7754 64.8793C96.7297 67.3412 93.0456 68.6425 89.1207 68.6425C85.1959 68.6425 81.5115 67.3412 78.4661 64.8793C75.5062 62.4868 73.4153 59.1383 72.5783 55.4509C72.3627 54.5003 72.2371 53.4686 72.1949 52.2967C72.178 51.8312 71.9814 51.4133 71.673 51.1091C69.2676 47.5933 67.998 43.4819 67.998 39.1987ZM99.8436 49.5991C99.8436 50.9237 98.766 52.0014 97.4413 52.0014C96.1166 52.0014 95.0389 50.9237 95.0389 49.5991C95.0389 48.2744 96.1166 47.1967 97.4413 47.1967C98.766 47.1967 99.8436 48.2744 99.8436 49.5991ZM83.203 49.5991C83.203 50.9237 82.1254 52.0014 80.8007 52.0014C79.476 52.0014 78.3983 50.9237 78.3983 49.5991C78.3983 48.2744 79.476 47.1967 80.8007 47.1967C82.1254 47.1967 83.203 48.2744 83.203 49.5991ZM99.2267 73.0014C96.4937 75.5385 92.9185 76.9621 89.1207 76.9621C85.3269 76.9621 81.7499 75.5373 79.0159 73.0009C80.1137 72.5204 81.0229 71.7318 81.6468 70.7392C84.0144 71.6666 86.5518 72.1576 89.121 72.1576C91.6902 72.1576 94.2275 71.6666 96.5952 70.7392C97.2193 71.7322 98.1289 72.5209 99.2267 73.0014ZM67.5091 73.8231C66.5057 72.9751 65.9181 71.7282 65.9181 70.3996C65.9179 68.4559 67.1784 66.7499 69.0543 66.1543C69.9524 65.8693 70.4657 64.9269 70.2187 64.0178C70.1226 63.6651 70.078 63.3796 70.078 63.1197C70.078 62.3045 70.364 61.5404 70.8576 60.9381C72.1605 63.4996 73.998 65.7878 76.2562 67.6131C76.9551 68.1779 77.6896 68.6929 78.4527 69.1576C78.2057 69.4421 77.8937 69.6693 77.5328 69.8136L67.5091 73.8231ZM89.121 85.2826C82.0358 85.2826 75.4883 82.0095 70.9166 76.2465L75.4776 74.4224C78.9667 78.2839 83.8787 80.4779 89.1212 80.4779C94.3686 80.4779 99.2755 78.2846 102.764 74.4221L107.327 76.2472C102.753 82.0084 96.1946 85.2826 89.121 85.2826ZM110.733 73.8233L100.709 69.8136C100.348 69.6693 100.036 69.4421 99.7892 69.1576C100.552 68.6926 101.287 68.1779 101.986 67.6131C104.244 65.7878 106.081 63.4993 107.384 60.9381C107.878 61.5404 108.164 62.3045 108.164 63.1197C108.164 63.3796 108.119 63.6651 108.023 64.0178C107.776 64.9269 108.29 65.8693 109.188 66.1543C111.064 66.7499 112.324 68.4559 112.324 70.3998C112.324 71.7285 111.736 72.9753 110.733 73.8233Z" fill="#0A0D27"/>
</g>
<defs>
<clipPath id="clip0">
<rect width="120" height="120" fill="white"/>
</clipPath>
</defs>
</svg>
