<svg width="121" height="120" viewBox="0 0 121 120" fill="none" xmlns="http://www.w3.org/2000/svg">
<path d="M47.821 43.6957C49.3426 43.6957 50.5761 42.4622 50.5761 40.9406C50.5761 39.419 49.3426 38.1855 47.821 38.1855C46.2994 38.1855 45.0659 39.419 45.0659 40.9406C45.0659 42.4622 46.2994 43.6957 47.821 43.6957Z" fill="#0A0D27"/>
<path d="M73.4644 43.6957C74.986 43.6957 76.2194 42.4622 76.2194 40.9406C76.2194 39.419 74.986 38.1855 73.4644 38.1855C71.9428 38.1855 70.7093 39.419 70.7093 40.9406C70.7093 42.4622 71.9428 43.6957 73.4644 43.6957Z" fill="#0A0D27"/>
<path d="M60.6426 52.7984C63.1502 52.7984 65.658 51.844 67.5672 49.9348C68.2537 49.2481 68.2537 48.1353 67.5672 47.4488C66.8805 46.7625 65.7677 46.7625 65.0812 47.4488C62.6341 49.8963 58.6513 49.8963 56.2042 47.4488C55.5175 46.7625 54.4047 46.7625 53.7182 47.4488C53.0317 48.1355 53.0317 49.2483 53.7182 49.9348C55.6272 51.844 58.135 52.7984 60.6426 52.7984Z" fill="#0A0D27"/>
<path d="M81.4123 56.1837C85.5227 51.3947 88.0102 45.1741 88.0102 38.3829C88.0102 23.2924 75.7331 11.0156 60.6427 11.0156C45.5522 11.0156 33.2752 23.2924 33.2752 38.3829C33.2752 45.1741 35.7626 51.3947 39.873 56.1837C31.721 57.7755 25.5483 64.9692 25.5483 73.5802V107.179C25.5483 108.15 26.3353 108.937 27.3061 108.937C28.2769 108.937 29.0639 108.15 29.0639 107.179V73.5802C29.0639 68.1841 32.0869 63.4812 36.5283 61.0751V107.179C36.5283 108.149 37.3153 108.936 38.2861 108.936C39.2569 108.936 40.0439 108.149 40.0439 107.179V90.8981C44.5623 90.8981 48.2252 87.2352 48.2252 82.7168V62.7673C48.8487 63.086 49.4862 63.3806 50.1361 63.6518L58.883 74.7511V107.179C58.883 108.15 59.67 108.937 60.6408 108.937C61.6116 108.937 62.3986 108.15 62.3986 107.179V74.7516L71.1443 63.6537C71.7771 63.3898 72.3982 63.1031 73.0059 62.794V82.717C73.0059 87.2355 76.6688 90.8984 81.1873 90.8984V107.179C81.1873 108.15 81.9743 108.937 82.9451 108.937C83.9159 108.937 84.7029 108.15 84.7029 107.179V61.0477C89.1731 63.4451 92.2209 68.1628 92.2209 73.5802V107.179C92.2209 108.15 93.0079 108.937 93.9787 108.937C94.9496 108.937 95.7366 108.15 95.7366 107.179V73.5802C95.7368 64.9692 89.5643 57.7758 81.4123 56.1837ZM82.2049 28.1927C79.3111 31.0716 75.3933 32.7068 71.2877 32.7068C62.7548 32.7068 55.8129 25.7646 55.8129 17.2317C55.8129 16.7452 55.8354 16.2579 55.8794 15.7833L55.8844 15.7291C55.908 15.4837 55.9397 15.2374 55.9755 14.9911C57.4856 14.6904 59.0459 14.5312 60.6429 14.5312C70.151 14.5312 78.3766 20.1244 82.2049 28.1927ZM52.0327 16.1398C49.9844 20.7914 45.7755 24.1155 40.8523 25.083C43.5598 21.0675 47.4565 17.9173 52.0327 16.1398ZM38.7748 28.8645C44.3592 28.5991 49.4599 25.8877 52.8145 21.6192C54.8006 29.9815 62.3269 36.2224 71.2877 36.2224C75.8067 36.2224 80.1417 34.6113 83.5495 31.7311C84.1638 33.8433 84.4945 36.075 84.4945 38.3829C84.4945 51.5348 73.7948 62.2348 60.6427 62.2348C47.4905 62.2348 36.7908 51.5348 36.7908 38.3829C36.7908 35.0009 37.5 31.782 38.7748 28.8645ZM44.7096 87.3827H40.0439V59.7434C41.0285 59.5134 42.0513 59.3852 43.102 59.3726C43.6221 59.8078 44.1581 60.2245 44.7098 60.6209L44.7096 87.3827ZM60.641 71.302L55.9472 65.3459C57.4732 65.6109 59.0419 65.7504 60.6427 65.7504C62.242 65.7504 63.8095 65.6112 65.3344 65.3466L60.641 71.302ZM81.1875 87.3827H76.5218V60.66C77.0925 60.252 77.6463 59.8221 78.1833 59.3726C79.2148 59.385 80.2195 59.509 81.1875 59.7309V87.3827Z" fill="#0A0D27"/>
</svg>
