<svg width="121" height="120" viewBox="0 0 121 120" fill="none" xmlns="http://www.w3.org/2000/svg">
<g clip-path="url(#clip0)">
<path d="M40.2896 42.0387C40.5711 41.7572 40.944 41.6023 41.3401 41.6023C41.7362 41.6023 42.109 41.7572 42.3905 42.0387C42.7339 42.382 43.1837 42.5536 43.6337 42.5536C44.0834 42.5536 44.5332 42.382 44.8765 42.0389C45.563 41.3524 45.5633 40.2396 44.8768 39.5529C43.9313 38.6072 42.6753 38.0864 41.3398 38.0864C40.0046 38.0864 38.7486 38.6072 37.8031 39.5529C37.1169 40.2396 37.1169 41.3524 37.8033 42.0389C38.4901 42.7252 39.6029 42.7254 40.2896 42.0387Z" fill="#0A0D27"/>
<path d="M59.7034 42.0387C59.9849 41.7572 60.3592 41.6023 60.7574 41.6023C61.1556 41.6023 61.5299 41.7572 61.8114 42.0387C62.1545 42.3821 62.6045 42.5536 63.0545 42.5536C63.5043 42.5536 63.954 42.3821 64.2974 42.0389C64.9839 41.3524 64.9841 40.2396 64.2976 39.5529C63.3522 38.6072 62.095 38.0864 60.7576 38.0864C59.4203 38.0864 58.1631 38.6072 57.2176 39.5529C56.5311 40.2394 56.5314 41.3524 57.2179 42.0389C57.9039 42.7254 59.0169 42.7254 59.7034 42.0387Z" fill="#0A0D27"/>
<path d="M41.9415 52.9628C41.9415 55.5046 42.9936 57.738 44.904 59.2511C46.5458 60.5514 48.7274 61.2677 51.0468 61.2677C55.5716 61.2677 60.1522 58.4151 60.1522 52.9628C60.1522 51.1816 58.7033 49.7324 56.9223 49.7324H45.178C43.3935 49.7324 41.9415 51.1816 41.9415 52.9628ZM56.6298 53.2483C56.4575 56.7946 53.0699 57.752 51.047 57.752C49.0241 57.752 45.6365 56.7946 45.4642 53.2483H56.6298Z" fill="#0A0D27"/>
<path d="M111.688 89.3431H110.854C110.652 88.776 110.423 88.2181 110.17 87.6721L110.756 87.0861C112.293 85.5463 112.295 83.0361 110.753 81.482L106.614 77.3499C105.869 76.6046 104.877 76.1945 103.818 76.1945C102.759 76.1945 101.765 76.6046 101.02 77.3499L100.436 77.9359C99.89 77.6804 99.3322 77.4531 98.7626 77.2492V76.4171C98.7626 74.2328 96.9884 72.4562 94.804 72.4562H88.9561C88.5764 72.4562 88.2085 72.5101 87.8593 72.6109C84.1461 69.8356 79.681 67.7781 75.2246 66.8181C74.5332 66.2996 73.2596 65.3103 71.8151 64.1881C70.6357 63.2717 69.3518 62.2745 68.1392 61.3421C71.9862 57.5959 74.9649 52.9339 76.3311 48.1881C77.8962 47.8644 79.4794 47.0014 80.7607 45.7365C82.3493 44.1681 83.2604 42.1974 83.2604 40.3295V37.8974C83.2604 35.5726 81.3661 33.6812 79.0379 33.6812H77.1284V33.6575V30.1145V22.1014C77.1284 17.4083 75.3059 12.9442 71.8582 9.19158C68.8573 5.92557 64.6207 3.24713 59.9293 1.6494C55.5286 0.150802 50.8723 -0.349354 46.8183 0.242442C42.5553 0.864239 39.0762 2.6319 36.7046 5.3715C31.8893 6.06268 24.7203 9.71846 24.9685 25.3951C24.9708 25.5514 24.9732 25.6794 24.9732 25.7757V29.7592V33.6807H23.0572C20.7326 33.6807 18.8414 35.5721 18.8414 37.8969V40.329C18.8414 42.2007 19.7522 44.173 21.3401 45.7407C22.6191 47.0035 24.2002 47.8646 25.7644 48.1878C27.1514 53.0056 30.1997 57.7384 34.1328 61.5137C33.0164 62.3736 31.8495 63.2797 30.7763 64.1141C29.288 65.2719 27.9755 66.2914 27.27 66.8188C22.7161 67.8031 18.1456 69.9266 14.3581 72.8237C13.587 73.4143 13.4417 74.5182 14.03 75.2893C14.3768 75.7417 14.8995 75.9784 15.4292 75.9784C15.8018 75.9784 16.1768 75.8612 16.4956 75.6174C19.7182 73.1518 23.7263 71.2531 27.6052 70.3438L37.8617 77.9659C37.8992 77.994 37.939 78.0198 37.9789 78.0456C38.3609 78.2846 38.6117 78.4792 38.8109 78.6362C39.439 79.1284 39.9781 79.3206 40.4562 79.3206C41.2531 79.3206 41.8789 78.7815 42.4601 78.1909C42.7554 77.8909 43.1797 77.4596 43.8195 76.8854L44.7945 80.6964L38.8482 100.504C38.6372 101.083 38.6794 101.648 38.9724 102.184L42.2114 108.328H23.9532V97.0304C23.9532 96.0601 23.1657 95.2726 22.1954 95.2726C21.225 95.2726 20.4375 96.0601 20.4375 97.0304V108.328H9.55715C9.36497 108.328 9.17981 108.33 9.00403 108.332C8.86106 108.335 8.69231 108.339 8.53997 108.337C8.53762 108.269 8.53528 108.192 8.53528 108.1V89.6146C8.53528 86.5091 9.55012 83.4948 11.5517 80.6565C12.1118 79.8643 11.922 78.7674 11.1298 78.2073C10.3353 77.6471 9.2384 77.837 8.68059 78.6292C6.25012 82.0721 5.01965 85.7685 5.01965 89.6146V108.1C5.01965 108.937 5.12043 110.146 5.98293 110.995C6.88997 111.885 8.04778 111.867 9.06731 111.848C9.222 111.845 9.38606 111.843 9.55715 111.843H45.1222H45.1268H56.9677H56.9724H73.8807L77.1432 115.106C77.8885 115.851 78.8822 116.263 79.9416 116.263C81.001 116.263 81.9924 115.851 82.7377 115.106L83.6354 114.21C84.0783 114.417 84.533 114.606 84.9947 114.78V116.038C84.9947 118.223 86.7713 119.999 88.9557 119.999H94.8036C96.9879 119.999 98.7622 118.223 98.7622 116.038V114.895C99.2543 114.717 99.7418 114.522 100.22 114.306L101.019 115.106C101.764 115.851 102.758 116.263 103.818 116.263C104.877 116.263 105.868 115.851 106.614 115.106L110.755 110.967C112.297 109.422 112.297 106.914 110.755 105.369L110.068 104.685C110.314 104.169 110.539 103.647 110.739 103.112H111.688C113.87 103.112 115.647 101.336 115.647 99.1538V93.3036C115.647 91.1197 113.871 89.3431 111.688 89.3431ZM77.1282 42.9191V37.1966H79.0376C79.4206 37.1966 79.7443 37.5174 79.7443 37.8971V40.3292C79.7443 41.2496 79.2007 42.3357 78.2902 43.2346C77.9157 43.6042 77.5029 43.9201 77.0778 44.1704C77.1101 43.7474 77.1282 43.3292 77.1282 42.9191ZM69.6579 66.9641C70.358 67.5081 71.0004 68.007 71.5592 68.4392L62.5934 75.1028C62.4448 75.1965 62.3105 75.2858 62.1891 75.3699C61.8005 74.9821 61.2694 74.4714 60.511 73.8158L58.5814 72.0411C58.5678 72.028 58.5537 72.0153 58.5397 72.0029L55.1743 68.9078C55.9986 68.7006 56.8526 68.4331 57.7536 68.0989C60.4515 67.0932 63.0589 65.5756 65.4422 63.7044C66.8023 64.7457 68.2997 65.9092 69.6579 66.9641ZM55.4061 73.8971L54.1154 78.9763H47.9815L46.7604 74.1997L51.2504 70.0749L55.4061 73.8971ZM37.7675 8.78658C38.2571 8.74346 38.7061 8.4976 39.0061 8.1083C41.5346 4.82635 45.7667 3.51549 50.2365 3.51549C53.1223 3.51549 56.1073 4.06229 58.7956 4.97752C65.6307 7.3051 73.6123 13.1863 73.6123 22.1014V30.1142V31.8992H70.8945C67.0918 31.8992 64.6608 29.6192 61.8457 26.979C58.4733 23.8163 54.6511 20.2316 47.8791 20.2316H40.1897C34.4785 20.2316 33.5562 24.7257 32.8826 28.0074C32.1624 31.517 31.6147 33.4466 28.4879 33.6606V29.7592V25.7757C28.4879 25.6653 28.4857 25.5186 28.4829 25.3396C28.3695 18.17 29.8882 9.47869 37.7675 8.78658ZM22.3564 40.3292V37.8971C22.3564 37.5109 22.6704 37.1966 23.0564 37.1966H24.9725V42.9191C24.9725 43.3325 24.99 43.7514 25.0215 44.1737C24.5961 43.9239 24.1833 43.6084 23.8093 43.239C22.8994 42.3409 22.3564 41.2531 22.3564 40.3292ZM28.8715 46.1839C28.6172 45.0655 28.4881 43.967 28.4881 42.9188V37.1814C34.6514 36.8781 35.6553 31.986 36.3268 28.7141C37.0817 25.0349 37.5788 23.7474 40.1897 23.7474H47.8791C53.2604 23.7474 56.2625 26.563 59.4406 29.5435C62.5186 32.4301 65.7012 35.4149 70.8945 35.4149H73.6123V42.9188C73.6123 43.9475 73.4811 45.046 73.2225 46.183C71.4626 53.9061 64.2842 61.9114 56.5278 64.8031C54.4568 65.5714 52.7152 65.9291 51.0467 65.9291C49.3784 65.9291 47.6368 65.5714 45.5684 64.8041C37.8097 61.9117 30.6312 53.9063 28.8715 46.1839ZM43.6313 72.3013C43.6149 72.3177 43.5961 72.3341 43.5797 72.3505L41.9836 73.8153C41.2266 74.4716 40.6946 74.9825 40.3055 75.3692C40.1836 75.2849 40.05 75.1958 39.9024 75.1021L30.9373 68.4385C31.5303 67.9792 32.2123 67.4518 32.9318 66.8917C34.1895 65.9146 35.5744 64.8378 36.8508 63.8581C39.1807 65.6586 41.7193 67.1214 44.3433 68.0996C45.3612 68.4772 46.3186 68.7674 47.2416 68.9832L43.6313 72.3013ZM72.9992 105.37C72.1929 106.183 71.8086 107.264 71.8531 108.328H59.8857L63.1411 102.161C63.5607 101.357 63.3239 100.715 63.2466 100.502L61.3786 94.2835C61.0997 93.3531 60.12 92.8257 59.1896 93.1046C58.2615 93.3835 57.7341 94.3632 58.013 95.2937L59.745 101.064L55.9083 108.328H46.1862L42.3518 101.057L47.9255 82.4919H54.1507L55.5523 87.5054C55.7703 88.2812 56.4757 88.7898 57.2445 88.7898C57.4015 88.7898 57.5609 88.7687 57.7179 88.7242C58.6531 88.464 59.1992 87.4937 58.9367 86.5585L57.3031 80.713L58.3491 76.5955C59.1774 77.3195 59.6918 77.8417 60.0364 78.1923C60.616 78.7822 61.2418 79.3206 62.0393 79.3206C62.517 79.3206 63.0561 79.1274 63.6837 78.6371C63.885 78.4799 64.1356 78.2842 64.5174 78.0458C64.5577 78.0207 64.5971 77.9938 64.6353 77.9654L74.8906 70.3438C78.5124 71.1824 82.1405 72.8117 85.2483 75.0296C85.0843 75.4609 84.9952 75.9296 84.9952 76.4171V77.3663C84.4632 77.5656 83.9382 77.7882 83.4249 78.0343L82.7382 77.3499C81.9929 76.6046 81.0014 76.1945 79.9421 76.1945C78.8827 76.1945 77.8913 76.6046 77.146 77.3476L72.9999 81.489C71.4647 83.0359 71.4647 85.546 73.0046 87.0861L73.8061 87.8877C73.5905 88.3658 73.3936 88.851 73.2155 89.3431H72.0718C69.8897 89.3431 68.1132 91.1197 68.1132 93.3041V99.1543C68.1132 101.336 69.8897 103.113 72.0718 103.113H73.3304C73.5038 103.575 73.6936 104.029 73.8999 104.472L72.9992 105.37ZM112.131 99.1543C112.131 99.391 111.925 99.5973 111.688 99.5973H109.481C108.705 99.5973 108.02 100.106 107.795 100.849C107.451 101.995 106.977 103.106 106.384 104.151C105.995 104.838 106.113 105.7 106.673 106.261L108.269 107.857C108.438 108.025 108.438 108.311 108.269 108.48L104.13 112.622C104.02 112.732 103.886 112.748 103.818 112.748C103.748 112.748 103.617 112.732 103.506 112.622L101.817 110.932C101.27 110.386 100.431 110.259 99.7493 110.622C98.7204 111.171 97.6353 111.607 96.5243 111.923C95.7697 112.139 95.247 112.828 95.247 113.615V116.039C95.247 116.275 95.0407 116.484 94.804 116.484H88.9561C88.7194 116.484 88.5108 116.275 88.5108 116.039V113.522C88.5108 112.75 88.0069 112.071 87.2733 111.843C87.271 111.843 87.2686 111.841 87.2663 111.841C86.1671 111.506 85.1124 111.065 84.135 110.529C83.8702 110.383 83.5796 110.313 83.2913 110.313C82.8343 110.313 82.3843 110.489 82.0468 110.826L81.0319 111.843L80.2538 112.622C80.1436 112.732 80.01 112.748 79.9421 112.748C79.8718 112.748 79.7405 112.732 79.6304 112.622L78.8522 111.843L75.4913 108.48C75.4468 108.436 75.4139 108.384 75.3929 108.328C75.3319 108.168 75.3647 107.976 75.489 107.852L77.2819 106.064C77.835 105.513 77.9593 104.66 77.5819 103.975C77.0475 102.996 76.6046 101.943 76.2694 100.844C76.0444 100.104 75.3624 99.5973 74.589 99.5973H72.0718C71.835 99.5973 71.6288 99.391 71.6288 99.1543V93.3041C71.6288 93.0627 71.8304 92.8588 72.0718 92.8588H74.4975C75.2827 92.8588 75.9718 92.3385 76.1874 91.5814C76.5038 90.4705 76.9397 89.3853 77.4882 88.3564C77.8514 87.6744 77.7249 86.8353 77.1788 86.2892L75.4913 84.5994C75.3202 84.4306 75.3225 84.14 75.489 83.9713L79.6304 79.8369V79.8346C79.7405 79.7267 79.8718 79.7103 79.9421 79.7103C80.01 79.7103 80.1436 79.7267 80.2538 79.8346L81.8499 81.433C82.4077 81.9908 83.2702 82.108 83.9593 81.7189C85.0046 81.1283 86.1155 80.6525 87.2593 80.308C88.0022 80.0853 88.5108 79.401 88.5108 78.6252V77.7767V76.4174C88.5108 76.176 88.7147 75.9721 88.9561 75.9721H91.6397H94.8038C95.0452 75.9721 95.2468 76.176 95.2468 76.4174V78.5338C95.2468 79.3213 95.7718 80.0103 96.5288 80.226C97.7147 80.5588 98.8585 81.0275 99.9296 81.6181C100.616 81.9955 101.467 81.8736 102.02 81.3205L103.506 79.8346C103.616 79.7267 103.748 79.7103 103.818 79.7103C103.886 79.7103 104.019 79.7267 104.13 79.8369L108.264 83.9642C108.437 84.14 108.44 84.4306 108.269 84.5994L106.783 86.0853C106.232 86.6385 106.11 87.4892 106.487 88.176C107.076 89.2471 107.544 90.3932 107.88 91.5791C108.093 92.3361 108.784 92.8588 109.572 92.8588H111.688C111.927 92.8588 112.131 93.0627 112.131 93.3041V99.1543H112.131Z" fill="#0A0D27"/>
<path d="M91.8796 88.916C87.8481 88.916 84.5682 92.1963 84.5682 96.2283C84.5682 100.26 87.8481 103.541 91.8796 103.541C95.911 103.541 99.1909 100.26 99.1909 96.2283C99.1907 92.1963 95.9108 88.916 91.8796 88.916ZM91.8796 100.025C89.7868 100.025 88.0841 98.3215 88.0841 96.228C88.0841 94.1346 89.7868 92.4314 91.8796 92.4314C93.9723 92.4314 95.675 94.1346 95.675 96.228C95.675 98.3217 93.9723 100.025 91.8796 100.025Z" fill="#0A0D27"/>
</g>
<defs>
<clipPath id="clip0">
<rect width="120" height="120" fill="white" transform="translate(0.333374)"/>
</clipPath>
</defs>
</svg>
